# MagicaVoxel @ Ephtracy

# group
o 

# material
mtllib 2_4 coco.mtl
usemtl palette

# normals
vn -1 0 0
vn 1 0 0
vn 0 0 1
vn 0 0 -1
vn 0 -1 0
vn 0 1 0

# texcoords
vt 0.759766 0.5
vt 0.822266 0.5

# verts
v 0.5 2.6 -0.8
v 0.5 2.6 -1.2
v 0.5 3 -0.8
v 0.5 3 -1.2
v 0.6 2.4 -0.9
v 0.6 2.4 -1.1
v 0.6 2.5 -0.7
v 0.6 2.5 -0.9
v 0.6 2.5 -1.1
v 0.6 2.5 -1.3
v 0.6 2.6 -0.8
v 0.6 2.6 -1.2
v 0.6 2.7 -0.6
v 0.6 2.7 -0.7
v 0.6 2.7 -1.3
v 0.6 2.7 -1.4
v 0.6 2.9 -0.6
v 0.6 2.9 -0.7
v 0.6 2.9 -1.3
v 0.6 2.9 -1.4
v 0.6 3 -0.8
v 0.6 3 -1.2
v 0.6 3.1 -0.7
v 0.6 3.1 -0.9
v 0.6 3.1 -1.1
v 0.6 3.1 -1.3
v 0.6 3.2 -0.9
v 0.6 3.2 -1.1
v 0.7 2.4 -0.7
v 0.7 2.4 -0.9
v 0.7 2.4 -1.1
v 0.7 2.4 -1.3
v 0.7 2.5 -0.6
v 0.7 2.5 -0.7
v 0.7 2.5 -0.9
v 0.7 2.5 -1.1
v 0.7 2.5 -1.3
v 0.7 2.5 -1.4
v 0.7 2.7 -0.6
v 0.7 2.7 -0.7
v 0.7 2.7 -1.3
v 0.7 2.7 -1.4
v 0.7 2.9 -0.6
v 0.7 2.9 -0.7
v 0.7 2.9 -1.3
v 0.7 2.9 -1.4
v 0.7 3.1 -0.6
v 0.7 3.1 -0.7
v 0.7 3.1 -0.9
v 0.7 3.1 -1.1
v 0.7 3.1 -1.3
v 0.7 3.1 -1.4
v 0.7 3.2 -0.7
v 0.7 3.2 -0.9
v 0.7 3.2 -1.1
v 0.7 3.2 -1.3
v 0.8 2.3 -0.8
v 0.8 2.3 -1.2
v 0.8 2.4 -0.8
v 0.8 2.4 -1.2
v 0.8 2.6 -0.5
v 0.8 2.6 -0.6
v 0.8 2.6 -1.4
v 0.8 2.6 -1.5
v 0.8 3 -0.5
v 0.8 3 -0.6
v 0.8 3 -1.4
v 0.8 3 -1.5
v 0.8 3.2 -0.8
v 0.8 3.2 -1.2
v 0.8 3.3 -0.8
v 0.8 3.3 -1.2
v 0.9 2.4 -0.6
v 0.9 2.4 -0.7
v 0.9 2.4 -1.3
v 0.9 2.4 -1.4
v 0.9 2.5 -0.6
v 0.9 2.5 -0.7
v 0.9 2.5 -1.3
v 0.9 2.5 -1.4
v 0.9 3.1 -0.6
v 0.9 3.1 -0.7
v 0.9 3.1 -1.3
v 0.9 3.1 -1.4
v 0.9 3.2 -0.6
v 0.9 3.2 -0.7
v 0.9 3.2 -1.3
v 0.9 3.2 -1.4
v 0.9 3.3 -0.9
v 0.9 3.3 -1.1
v 0.9 3.4 -0.9
v 0.9 3.4 -1
v 0.9 3.5 -1
v 0.9 3.5 -1.1
v 0.9 3.5 -1.2
v 0.9 3.6 -1.1
v 0.9 3.6 -1.2
v 1.1 2.4 -0.6
v 1.1 2.4 -0.7
v 1.1 2.4 -1.3
v 1.1 2.4 -1.4
v 1.1 2.5 -0.6
v 1.1 2.5 -0.7
v 1.1 2.5 -1.3
v 1.1 2.5 -1.4
v 1.1 3.1 -0.6
v 1.1 3.1 -0.7
v 1.1 3.1 -1.3
v 1.1 3.1 -1.4
v 1.1 3.2 -0.6
v 1.1 3.2 -0.7
v 1.1 3.2 -1.3
v 1.1 3.2 -1.4
v 1.1 3.3 -0.9
v 1.1 3.3 -1.1
v 1.1 3.4 -0.9
v 1.1 3.4 -1
v 1.1 3.5 -1
v 1.1 3.5 -1.1
v 1.1 3.5 -1.2
v 1.1 3.6 -1.1
v 1.1 3.6 -1.2
v 1.2 2.3 -0.8
v 1.2 2.3 -1.2
v 1.2 2.4 -0.8
v 1.2 2.4 -1.2
v 1.2 2.6 -0.5
v 1.2 2.6 -0.6
v 1.2 2.6 -1.4
v 1.2 2.6 -1.5
v 1.2 3 -0.5
v 1.2 3 -0.6
v 1.2 3 -1.4
v 1.2 3 -1.5
v 1.2 3.2 -0.8
v 1.2 3.2 -1.2
v 1.2 3.3 -0.8
v 1.2 3.3 -1.2
v 1.3 2.4 -0.7
v 1.3 2.4 -0.9
v 1.3 2.4 -1.1
v 1.3 2.4 -1.3
v 1.3 2.5 -0.6
v 1.3 2.5 -0.7
v 1.3 2.5 -0.9
v 1.3 2.5 -1.1
v 1.3 2.5 -1.3
v 1.3 2.5 -1.4
v 1.3 2.7 -0.6
v 1.3 2.7 -0.7
v 1.3 2.7 -1.3
v 1.3 2.7 -1.4
v 1.3 2.9 -0.6
v 1.3 2.9 -0.7
v 1.3 2.9 -1.3
v 1.3 2.9 -1.4
v 1.3 3.1 -0.6
v 1.3 3.1 -0.7
v 1.3 3.1 -0.9
v 1.3 3.1 -1.1
v 1.3 3.1 -1.3
v 1.3 3.1 -1.4
v 1.3 3.2 -0.7
v 1.3 3.2 -0.9
v 1.3 3.2 -1.1
v 1.3 3.2 -1.3
v 1.4 2.4 -0.9
v 1.4 2.4 -1.1
v 1.4 2.5 -0.7
v 1.4 2.5 -0.9
v 1.4 2.5 -1.1
v 1.4 2.5 -1.3
v 1.4 2.6 -0.8
v 1.4 2.6 -1.2
v 1.4 2.7 -0.6
v 1.4 2.7 -0.7
v 1.4 2.7 -1.3
v 1.4 2.7 -1.4
v 1.4 2.9 -0.6
v 1.4 2.9 -0.7
v 1.4 2.9 -1.3
v 1.4 2.9 -1.4
v 1.4 3 -0.8
v 1.4 3 -1.2
v 1.4 3.1 -0.7
v 1.4 3.1 -0.9
v 1.4 3.1 -1.1
v 1.4 3.1 -1.3
v 1.4 3.2 -0.9
v 1.4 3.2 -1.1
v 1.5 2.6 -0.8
v 1.5 2.6 -1.2
v 1.5 3 -0.8
v 1.5 3 -1.2
v 0.8 2.6 -0.5
v 0.8 3 -0.5
v 1.2 2.6 -0.5
v 1.2 3 -0.5
v 0.6 2.7 -0.6
v 0.6 2.9 -0.6
v 0.7 2.5 -0.6
v 0.7 2.7 -0.6
v 0.7 2.9 -0.6
v 0.7 3.1 -0.6
v 0.8 2.6 -0.6
v 0.8 3 -0.6
v 0.9 2.4 -0.6
v 0.9 2.5 -0.6
v 0.9 3.1 -0.6
v 0.9 3.2 -0.6
v 1.1 2.4 -0.6
v 1.1 2.5 -0.6
v 1.1 3.1 -0.6
v 1.1 3.2 -0.6
v 1.2 2.6 -0.6
v 1.2 3 -0.6
v 1.3 2.5 -0.6
v 1.3 2.7 -0.6
v 1.3 2.9 -0.6
v 1.3 3.1 -0.6
v 1.4 2.7 -0.6
v 1.4 2.9 -0.6
v 0.6 2.5 -0.7
v 0.6 2.7 -0.7
v 0.6 2.9 -0.7
v 0.6 3.1 -0.7
v 0.7 2.4 -0.7
v 0.7 2.5 -0.7
v 0.7 2.7 -0.7
v 0.7 2.9 -0.7
v 0.7 3.1 -0.7
v 0.7 3.2 -0.7
v 0.9 2.4 -0.7
v 0.9 2.5 -0.7
v 0.9 3.1 -0.7
v 0.9 3.2 -0.7
v 1.1 2.4 -0.7
v 1.1 2.5 -0.7
v 1.1 3.1 -0.7
v 1.1 3.2 -0.7
v 1.3 2.4 -0.7
v 1.3 2.5 -0.7
v 1.3 2.7 -0.7
v 1.3 2.9 -0.7
v 1.3 3.1 -0.7
v 1.3 3.2 -0.7
v 1.4 2.5 -0.7
v 1.4 2.7 -0.7
v 1.4 2.9 -0.7
v 1.4 3.1 -0.7
v 0.5 2.6 -0.8
v 0.5 3 -0.8
v 0.6 2.6 -0.8
v 0.6 3 -0.8
v 0.8 2.3 -0.8
v 0.8 2.4 -0.8
v 0.8 3.2 -0.8
v 0.8 3.3 -0.8
v 1.2 2.3 -0.8
v 1.2 2.4 -0.8
v 1.2 3.2 -0.8
v 1.2 3.3 -0.8
v 1.4 2.6 -0.8
v 1.4 3 -0.8
v 1.5 2.6 -0.8
v 1.5 3 -0.8
v 0.6 2.4 -0.9
v 0.6 2.5 -0.9
v 0.6 3.1 -0.9
v 0.6 3.2 -0.9
v 0.7 2.4 -0.9
v 0.7 2.5 -0.9
v 0.7 3.1 -0.9
v 0.7 3.2 -0.9
v 0.9 3.3 -0.9
v 0.9 3.4 -0.9
v 1.1 3.3 -0.9
v 1.1 3.4 -0.9
v 1.3 2.4 -0.9
v 1.3 2.5 -0.9
v 1.3 3.1 -0.9
v 1.3 3.2 -0.9
v 1.4 2.4 -0.9
v 1.4 2.5 -0.9
v 1.4 3.1 -0.9
v 1.4 3.2 -0.9
v 0.9 3.4 -1
v 0.9 3.5 -1
v 1.1 3.4 -1
v 1.1 3.5 -1
v 0.9 3.5 -1.1
v 0.9 3.6 -1.1
v 1.1 3.5 -1.1
v 1.1 3.6 -1.1
v 0.6 2.4 -1.1
v 0.6 2.5 -1.1
v 0.6 3.1 -1.1
v 0.6 3.2 -1.1
v 0.7 2.4 -1.1
v 0.7 2.5 -1.1
v 0.7 3.1 -1.1
v 0.7 3.2 -1.1
v 0.9 3.3 -1.1
v 0.9 3.5 -1.1
v 1.1 3.3 -1.1
v 1.1 3.5 -1.1
v 1.3 2.4 -1.1
v 1.3 2.5 -1.1
v 1.3 3.1 -1.1
v 1.3 3.2 -1.1
v 1.4 2.4 -1.1
v 1.4 2.5 -1.1
v 1.4 3.1 -1.1
v 1.4 3.2 -1.1
v 0.5 2.6 -1.2
v 0.5 3 -1.2
v 0.6 2.6 -1.2
v 0.6 3 -1.2
v 0.8 2.3 -1.2
v 0.8 2.4 -1.2
v 0.8 3.2 -1.2
v 0.8 3.3 -1.2
v 0.9 3.5 -1.2
v 0.9 3.6 -1.2
v 1.1 3.5 -1.2
v 1.1 3.6 -1.2
v 1.2 2.3 -1.2
v 1.2 2.4 -1.2
v 1.2 3.2 -1.2
v 1.2 3.3 -1.2
v 1.4 2.6 -1.2
v 1.4 3 -1.2
v 1.5 2.6 -1.2
v 1.5 3 -1.2
v 0.6 2.5 -1.3
v 0.6 2.7 -1.3
v 0.6 2.9 -1.3
v 0.6 3.1 -1.3
v 0.7 2.4 -1.3
v 0.7 2.5 -1.3
v 0.7 2.7 -1.3
v 0.7 2.9 -1.3
v 0.7 3.1 -1.3
v 0.7 3.2 -1.3
v 0.9 2.4 -1.3
v 0.9 2.5 -1.3
v 0.9 3.1 -1.3
v 0.9 3.2 -1.3
v 1.1 2.4 -1.3
v 1.1 2.5 -1.3
v 1.1 3.1 -1.3
v 1.1 3.2 -1.3
v 1.3 2.4 -1.3
v 1.3 2.5 -1.3
v 1.3 2.7 -1.3
v 1.3 2.9 -1.3
v 1.3 3.1 -1.3
v 1.3 3.2 -1.3
v 1.4 2.5 -1.3
v 1.4 2.7 -1.3
v 1.4 2.9 -1.3
v 1.4 3.1 -1.3
v 0.6 2.7 -1.4
v 0.6 2.9 -1.4
v 0.7 2.5 -1.4
v 0.7 2.7 -1.4
v 0.7 2.9 -1.4
v 0.7 3.1 -1.4
v 0.8 2.6 -1.4
v 0.8 3 -1.4
v 0.9 2.4 -1.4
v 0.9 2.5 -1.4
v 0.9 3.1 -1.4
v 0.9 3.2 -1.4
v 1.1 2.4 -1.4
v 1.1 2.5 -1.4
v 1.1 3.1 -1.4
v 1.1 3.2 -1.4
v 1.2 2.6 -1.4
v 1.2 3 -1.4
v 1.3 2.5 -1.4
v 1.3 2.7 -1.4
v 1.3 2.9 -1.4
v 1.3 3.1 -1.4
v 1.4 2.7 -1.4
v 1.4 2.9 -1.4
v 0.8 2.6 -1.5
v 0.8 3 -1.5
v 1.2 2.6 -1.5
v 1.2 3 -1.5
v 0.8 2.3 -0.8
v 1.2 2.3 -0.8
v 0.8 2.3 -1.2
v 1.2 2.3 -1.2
v 0.9 2.4 -0.6
v 1.1 2.4 -0.6
v 0.7 2.4 -0.7
v 0.9 2.4 -0.7
v 1.1 2.4 -0.7
v 1.3 2.4 -0.7
v 0.8 2.4 -0.8
v 1.2 2.4 -0.8
v 0.6 2.4 -0.9
v 0.7 2.4 -0.9
v 1.3 2.4 -0.9
v 1.4 2.4 -0.9
v 0.6 2.4 -1.1
v 0.7 2.4 -1.1
v 1.3 2.4 -1.1
v 1.4 2.4 -1.1
v 0.8 2.4 -1.2
v 1.2 2.4 -1.2
v 0.7 2.4 -1.3
v 0.9 2.4 -1.3
v 1.1 2.4 -1.3
v 1.3 2.4 -1.3
v 0.9 2.4 -1.4
v 1.1 2.4 -1.4
v 0.7 2.5 -0.6
v 0.9 2.5 -0.6
v 1.1 2.5 -0.6
v 1.3 2.5 -0.6
v 0.6 2.5 -0.7
v 0.7 2.5 -0.7
v 0.9 2.5 -0.7
v 1.1 2.5 -0.7
v 1.3 2.5 -0.7
v 1.4 2.5 -0.7
v 0.6 2.5 -0.9
v 0.7 2.5 -0.9
v 1.3 2.5 -0.9
v 1.4 2.5 -0.9
v 0.6 2.5 -1.1
v 0.7 2.5 -1.1
v 1.3 2.5 -1.1
v 1.4 2.5 -1.1
v 0.6 2.5 -1.3
v 0.7 2.5 -1.3
v 0.9 2.5 -1.3
v 1.1 2.5 -1.3
v 1.3 2.5 -1.3
v 1.4 2.5 -1.3
v 0.7 2.5 -1.4
v 0.9 2.5 -1.4
v 1.1 2.5 -1.4
v 1.3 2.5 -1.4
v 0.8 2.6 -0.5
v 1.2 2.6 -0.5
v 0.8 2.6 -0.6
v 1.2 2.6 -0.6
v 0.5 2.6 -0.8
v 0.6 2.6 -0.8
v 1.4 2.6 -0.8
v 1.5 2.6 -0.8
v 0.5 2.6 -1.2
v 0.6 2.6 -1.2
v 1.4 2.6 -1.2
v 1.5 2.6 -1.2
v 0.8 2.6 -1.4
v 1.2 2.6 -1.4
v 0.8 2.6 -1.5
v 1.2 2.6 -1.5
v 0.6 2.7 -0.6
v 0.7 2.7 -0.6
v 1.3 2.7 -0.6
v 1.4 2.7 -0.6
v 0.6 2.7 -0.7
v 0.7 2.7 -0.7
v 1.3 2.7 -0.7
v 1.4 2.7 -0.7
v 0.6 2.7 -1.3
v 0.7 2.7 -1.3
v 1.3 2.7 -1.3
v 1.4 2.7 -1.3
v 0.6 2.7 -1.4
v 0.7 2.7 -1.4
v 1.3 2.7 -1.4
v 1.4 2.7 -1.4
v 0.9 3.5 -1.1
v 1.1 3.5 -1.1
v 0.9 3.5 -1.2
v 1.1 3.5 -1.2
v 0.6 2.9 -0.6
v 0.7 2.9 -0.6
v 1.3 2.9 -0.6
v 1.4 2.9 -0.6
v 0.6 2.9 -0.7
v 0.7 2.9 -0.7
v 1.3 2.9 -0.7
v 1.4 2.9 -0.7
v 0.6 2.9 -1.3
v 0.7 2.9 -1.3
v 1.3 2.9 -1.3
v 1.4 2.9 -1.3
v 0.6 2.9 -1.4
v 0.7 2.9 -1.4
v 1.3 2.9 -1.4
v 1.4 2.9 -1.4
v 0.8 3 -0.5
v 1.2 3 -0.5
v 0.8 3 -0.6
v 1.2 3 -0.6
v 0.5 3 -0.8
v 0.6 3 -0.8
v 1.4 3 -0.8
v 1.5 3 -0.8
v 0.5 3 -1.2
v 0.6 3 -1.2
v 1.4 3 -1.2
v 1.5 3 -1.2
v 0.8 3 -1.4
v 1.2 3 -1.4
v 0.8 3 -1.5
v 1.2 3 -1.5
v 0.7 3.1 -0.6
v 0.9 3.1 -0.6
v 1.1 3.1 -0.6
v 1.3 3.1 -0.6
v 0.6 3.1 -0.7
v 0.7 3.1 -0.7
v 0.9 3.1 -0.7
v 1.1 3.1 -0.7
v 1.3 3.1 -0.7
v 1.4 3.1 -0.7
v 0.6 3.1 -0.9
v 0.7 3.1 -0.9
v 1.3 3.1 -0.9
v 1.4 3.1 -0.9
v 0.6 3.1 -1.1
v 0.7 3.1 -1.1
v 1.3 3.1 -1.1
v 1.4 3.1 -1.1
v 0.6 3.1 -1.3
v 0.7 3.1 -1.3
v 0.9 3.1 -1.3
v 1.1 3.1 -1.3
v 1.3 3.1 -1.3
v 1.4 3.1 -1.3
v 0.7 3.1 -1.4
v 0.9 3.1 -1.4
v 1.1 3.1 -1.4
v 1.3 3.1 -1.4
v 0.9 3.2 -0.6
v 1.1 3.2 -0.6
v 0.7 3.2 -0.7
v 0.9 3.2 -0.7
v 1.1 3.2 -0.7
v 1.3 3.2 -0.7
v 0.8 3.2 -0.8
v 1.2 3.2 -0.8
v 0.6 3.2 -0.9
v 0.7 3.2 -0.9
v 1.3 3.2 -0.9
v 1.4 3.2 -0.9
v 0.6 3.2 -1.1
v 0.7 3.2 -1.1
v 1.3 3.2 -1.1
v 1.4 3.2 -1.1
v 0.8 3.2 -1.2
v 1.2 3.2 -1.2
v 0.7 3.2 -1.3
v 0.9 3.2 -1.3
v 1.1 3.2 -1.3
v 1.3 3.2 -1.3
v 0.9 3.2 -1.4
v 1.1 3.2 -1.4
v 0.8 3.3 -0.8
v 1.2 3.3 -0.8
v 0.9 3.3 -0.9
v 1.1 3.3 -0.9
v 0.9 3.3 -1.1
v 1.1 3.3 -1.1
v 0.8 3.3 -1.2
v 1.2 3.3 -1.2
v 0.9 3.4 -0.9
v 1.1 3.4 -0.9
v 0.9 3.4 -1
v 1.1 3.4 -1
v 0.9 3.5 -1
v 1.1 3.5 -1
v 0.9 3.5 -1.1
v 1.1 3.5 -1.1
v 0.9 3.6 -1.1
v 1.1 3.6 -1.1
v 0.9 3.6 -1.2
v 1.1 3.6 -1.2

# faces
f 3/1/1 2/1/1 1/1/1
f 4/1/1 2/1/1 3/1/1
f 8/1/1 6/1/1 5/1/1
f 9/1/1 6/1/1 8/1/1
f 11/1/1 8/1/1 7/1/1
f 11/1/1 10/1/1 9/1/1
f 11/1/1 9/1/1 8/1/1
f 12/1/1 10/1/1 11/1/1
f 14/1/1 11/1/1 7/1/1
f 15/1/1 10/1/1 12/1/1
f 17/1/1 14/1/1 13/1/1
f 18/1/1 11/1/1 14/1/1
f 18/1/1 14/1/1 17/1/1
f 19/1/1 16/1/1 15/1/1
f 19/1/1 15/1/1 12/1/1
f 20/1/1 16/1/1 19/1/1
f 21/1/1 11/1/1 18/1/1
f 22/1/1 19/1/1 12/1/1
f 23/1/1 21/1/1 18/1/1
f 23/1/1 22/1/1 21/1/1
f 24/1/1 22/1/1 23/1/1
f 25/1/1 22/1/1 24/1/1
f 26/1/1 19/1/1 22/1/1
f 26/1/1 22/1/1 25/1/1
f 27/1/1 25/1/1 24/1/1
f 28/1/1 25/1/1 27/1/1
f 34/1/1 30/1/1 29/1/1
f 35/1/1 30/1/1 34/1/1
f 36/1/1 32/1/1 31/1/1
f 37/1/1 32/1/1 36/1/1
f 39/1/1 34/1/1 33/1/1
f 40/1/1 34/1/1 39/1/1
f 41/1/1 38/1/1 37/1/1
f 42/1/1 38/1/1 41/1/1
f 47/1/1 44/1/1 43/1/1
f 48/1/1 44/1/1 47/1/1
f 51/1/1 46/1/1 45/1/1
f 52/1/1 46/1/1 51/1/1
f 53/1/1 49/1/1 48/1/1
f 54/1/1 49/1/1 53/1/1
f 55/1/1 51/1/1 50/1/1
f 56/1/1 51/1/1 55/1/1
f 59/1/1 58/1/1 57/1/1
f 60/1/1 58/1/1 59/1/1
f 65/1/1 62/1/1 61/1/1
f 66/1/1 62/1/1 65/1/1
f 67/1/1 64/1/1 63/1/1
f 68/1/1 64/1/1 67/1/1
f 71/2/1 70/2/1 69/2/1
f 72/2/1 70/2/1 71/2/1
f 77/1/1 74/1/1 73/1/1
f 78/1/1 74/1/1 77/1/1
f 79/1/1 76/1/1 75/1/1
f 80/1/1 76/1/1 79/1/1
f 85/1/1 82/1/1 81/1/1
f 86/1/1 82/1/1 85/1/1
f 87/1/1 84/1/1 83/1/1
f 88/1/1 84/1/1 87/1/1
f 91/2/1 90/2/1 89/2/1
f 92/2/1 90/2/1 91/2/1
f 93/2/1 90/2/1 92/2/1
f 94/2/1 90/2/1 93/2/1
f 96/2/1 95/2/1 94/2/1
f 97/2/1 95/2/1 96/2/1
f 98/1/2 99/1/2 102/1/2
f 102/1/2 99/1/2 103/1/2
f 100/1/2 101/1/2 104/1/2
f 104/1/2 101/1/2 105/1/2
f 106/1/2 107/1/2 110/1/2
f 110/1/2 107/1/2 111/1/2
f 108/1/2 109/1/2 112/1/2
f 112/1/2 109/1/2 113/1/2
f 114/2/2 115/2/2 116/2/2
f 116/2/2 115/2/2 117/2/2
f 117/2/2 115/2/2 118/2/2
f 118/2/2 115/2/2 119/2/2
f 119/2/2 120/2/2 121/2/2
f 121/2/2 120/2/2 122/2/2
f 123/1/2 124/1/2 125/1/2
f 125/1/2 124/1/2 126/1/2
f 127/1/2 128/1/2 131/1/2
f 131/1/2 128/1/2 132/1/2
f 129/1/2 130/1/2 133/1/2
f 133/1/2 130/1/2 134/1/2
f 135/2/2 136/2/2 137/2/2
f 137/2/2 136/2/2 138/2/2
f 139/1/2 140/1/2 144/1/2
f 144/1/2 140/1/2 145/1/2
f 141/1/2 142/1/2 146/1/2
f 146/1/2 142/1/2 147/1/2
f 143/1/2 144/1/2 149/1/2
f 149/1/2 144/1/2 150/1/2
f 147/1/2 148/1/2 151/1/2
f 151/1/2 148/1/2 152/1/2
f 153/1/2 154/1/2 157/1/2
f 157/1/2 154/1/2 158/1/2
f 155/1/2 156/1/2 161/1/2
f 161/1/2 156/1/2 162/1/2
f 158/1/2 159/1/2 163/1/2
f 163/1/2 159/1/2 164/1/2
f 160/1/2 161/1/2 165/1/2
f 165/1/2 161/1/2 166/1/2
f 167/1/2 168/1/2 170/1/2
f 170/1/2 168/1/2 171/1/2
f 169/1/2 170/1/2 173/1/2
f 171/1/2 172/1/2 173/1/2
f 170/1/2 171/1/2 173/1/2
f 173/1/2 172/1/2 174/1/2
f 169/1/2 173/1/2 176/1/2
f 174/1/2 172/1/2 177/1/2
f 175/1/2 176/1/2 179/1/2
f 176/1/2 173/1/2 180/1/2
f 179/1/2 176/1/2 180/1/2
f 177/1/2 178/1/2 181/1/2
f 174/1/2 177/1/2 181/1/2
f 181/1/2 178/1/2 182/1/2
f 180/1/2 173/1/2 183/1/2
f 174/1/2 181/1/2 184/1/2
f 180/1/2 183/1/2 185/1/2
f 183/1/2 184/1/2 185/1/2
f 185/1/2 184/1/2 186/1/2
f 186/1/2 184/1/2 187/1/2
f 184/1/2 181/1/2 188/1/2
f 187/1/2 184/1/2 188/1/2
f 186/1/2 187/1/2 189/1/2
f 189/1/2 187/1/2 190/1/2
f 191/1/2 192/1/2 193/1/2
f 193/1/2 192/1/2 194/1/2
f 197/1/3 196/1/3 195/1/3
f 198/1/3 196/1/3 197/1/3
f 202/1/3 200/1/3 199/1/3
f 203/1/3 200/1/3 202/1/3
f 205/1/3 202/1/3 201/1/3
f 205/1/3 204/1/3 203/1/3
f 205/1/3 203/1/3 202/1/3
f 206/1/3 204/1/3 205/1/3
f 208/1/3 205/1/3 201/1/3
f 209/1/3 204/1/3 206/1/3
f 211/1/3 208/1/3 207/1/3
f 212/1/3 205/1/3 208/1/3
f 212/1/3 208/1/3 211/1/3
f 213/1/3 210/1/3 209/1/3
f 213/1/3 209/1/3 206/1/3
f 214/1/3 210/1/3 213/1/3
f 215/1/3 205/1/3 212/1/3
f 216/1/3 213/1/3 206/1/3
f 217/1/3 215/1/3 212/1/3
f 217/1/3 216/1/3 215/1/3
f 218/1/3 216/1/3 217/1/3
f 219/1/3 216/1/3 218/1/3
f 220/1/3 213/1/3 216/1/3
f 220/1/3 216/1/3 219/1/3
f 221/1/3 219/1/3 218/1/3
f 222/1/3 219/1/3 221/1/3
f 228/1/3 224/1/3 223/1/3
f 229/1/3 224/1/3 228/1/3
f 230/1/3 226/1/3 225/1/3
f 231/1/3 226/1/3 230/1/3
f 233/1/3 228/1/3 227/1/3
f 234/1/3 228/1/3 233/1/3
f 235/1/3 232/1/3 231/1/3
f 236/1/3 232/1/3 235/1/3
f 241/1/3 238/1/3 237/1/3
f 242/1/3 238/1/3 241/1/3
f 245/1/3 240/1/3 239/1/3
f 246/1/3 240/1/3 245/1/3
f 247/1/3 243/1/3 242/1/3
f 248/1/3 243/1/3 247/1/3
f 249/1/3 245/1/3 244/1/3
f 250/1/3 245/1/3 249/1/3
f 253/1/3 252/1/3 251/1/3
f 254/1/3 252/1/3 253/1/3
f 259/1/3 256/1/3 255/1/3
f 260/1/3 256/1/3 259/1/3
f 261/2/3 258/2/3 257/2/3
f 262/2/3 258/2/3 261/2/3
f 265/1/3 264/1/3 263/1/3
f 266/1/3 264/1/3 265/1/3
f 271/1/3 268/1/3 267/1/3
f 272/1/3 268/1/3 271/1/3
f 273/1/3 270/1/3 269/1/3
f 274/1/3 270/1/3 273/1/3
f 277/2/3 276/2/3 275/2/3
f 278/2/3 276/2/3 277/2/3
f 283/1/3 280/1/3 279/1/3
f 284/1/3 280/1/3 283/1/3
f 285/1/3 282/1/3 281/1/3
f 286/1/3 282/1/3 285/1/3
f 289/2/3 288/2/3 287/2/3
f 290/2/3 288/2/3 289/2/3
f 293/2/3 292/2/3 291/2/3
f 294/2/3 292/2/3 293/2/3
f 295/1/4 296/1/4 299/1/4
f 299/1/4 296/1/4 300/1/4
f 297/1/4 298/1/4 301/1/4
f 301/1/4 298/1/4 302/1/4
f 303/2/4 304/2/4 305/2/4
f 305/2/4 304/2/4 306/2/4
f 307/1/4 308/1/4 311/1/4
f 311/1/4 308/1/4 312/1/4
f 309/1/4 310/1/4 313/1/4
f 313/1/4 310/1/4 314/1/4
f 315/1/4 316/1/4 317/1/4
f 317/1/4 316/1/4 318/1/4
f 323/2/4 324/2/4 325/2/4
f 325/2/4 324/2/4 326/2/4
f 319/1/4 320/1/4 327/1/4
f 327/1/4 320/1/4 328/1/4
f 321/2/4 322/2/4 329/2/4
f 329/2/4 322/2/4 330/2/4
f 331/1/4 332/1/4 333/1/4
f 333/1/4 332/1/4 334/1/4
f 335/1/4 336/1/4 340/1/4
f 340/1/4 336/1/4 341/1/4
f 337/1/4 338/1/4 342/1/4
f 342/1/4 338/1/4 343/1/4
f 339/1/4 340/1/4 345/1/4
f 345/1/4 340/1/4 346/1/4
f 343/1/4 344/1/4 347/1/4
f 347/1/4 344/1/4 348/1/4
f 349/1/4 350/1/4 353/1/4
f 353/1/4 350/1/4 354/1/4
f 351/1/4 352/1/4 357/1/4
f 357/1/4 352/1/4 358/1/4
f 354/1/4 355/1/4 359/1/4
f 359/1/4 355/1/4 360/1/4
f 356/1/4 357/1/4 361/1/4
f 361/1/4 357/1/4 362/1/4
f 363/1/4 364/1/4 366/1/4
f 366/1/4 364/1/4 367/1/4
f 365/1/4 366/1/4 369/1/4
f 367/1/4 368/1/4 369/1/4
f 366/1/4 367/1/4 369/1/4
f 369/1/4 368/1/4 370/1/4
f 365/1/4 369/1/4 372/1/4
f 370/1/4 368/1/4 373/1/4
f 371/1/4 372/1/4 375/1/4
f 372/1/4 369/1/4 376/1/4
f 375/1/4 372/1/4 376/1/4
f 373/1/4 374/1/4 377/1/4
f 370/1/4 373/1/4 377/1/4
f 377/1/4 374/1/4 378/1/4
f 376/1/4 369/1/4 379/1/4
f 370/1/4 377/1/4 380/1/4
f 376/1/4 379/1/4 381/1/4
f 379/1/4 380/1/4 381/1/4
f 381/1/4 380/1/4 382/1/4
f 382/1/4 380/1/4 383/1/4
f 380/1/4 377/1/4 384/1/4
f 383/1/4 380/1/4 384/1/4
f 382/1/4 383/1/4 385/1/4
f 385/1/4 383/1/4 386/1/4
f 387/1/4 388/1/4 389/1/4
f 389/1/4 388/1/4 390/1/4
f 393/1/5 392/1/5 391/1/5
f 394/1/5 392/1/5 393/1/5
f 398/1/5 396/1/5 395/1/5
f 399/1/5 396/1/5 398/1/5
f 401/1/5 398/1/5 397/1/5
f 401/1/5 400/1/5 399/1/5
f 401/1/5 399/1/5 398/1/5
f 402/1/5 400/1/5 401/1/5
f 404/1/5 401/1/5 397/1/5
f 405/1/5 400/1/5 402/1/5
f 407/1/5 404/1/5 403/1/5
f 408/1/5 401/1/5 404/1/5
f 408/1/5 404/1/5 407/1/5
f 409/1/5 406/1/5 405/1/5
f 409/1/5 405/1/5 402/1/5
f 410/1/5 406/1/5 409/1/5
f 411/1/5 401/1/5 408/1/5
f 412/1/5 409/1/5 402/1/5
f 413/1/5 411/1/5 408/1/5
f 413/1/5 412/1/5 411/1/5
f 414/1/5 412/1/5 413/1/5
f 415/1/5 412/1/5 414/1/5
f 416/1/5 409/1/5 412/1/5
f 416/1/5 412/1/5 415/1/5
f 417/1/5 415/1/5 414/1/5
f 418/1/5 415/1/5 417/1/5
f 424/1/5 420/1/5 419/1/5
f 425/1/5 420/1/5 424/1/5
f 426/1/5 422/1/5 421/1/5
f 427/1/5 422/1/5 426/1/5
f 429/1/5 424/1/5 423/1/5
f 430/1/5 424/1/5 429/1/5
f 431/1/5 428/1/5 427/1/5
f 432/1/5 428/1/5 431/1/5
f 437/1/5 434/1/5 433/1/5
f 438/1/5 434/1/5 437/1/5
f 441/1/5 436/1/5 435/1/5
f 442/1/5 436/1/5 441/1/5
f 443/1/5 439/1/5 438/1/5
f 444/1/5 439/1/5 443/1/5
f 445/1/5 441/1/5 440/1/5
f 446/1/5 441/1/5 445/1/5
f 449/1/5 448/1/5 447/1/5
f 450/1/5 448/1/5 449/1/5
f 455/1/5 452/1/5 451/1/5
f 456/1/5 452/1/5 455/1/5
f 457/1/5 454/1/5 453/1/5
f 458/1/5 454/1/5 457/1/5
f 461/1/5 460/1/5 459/1/5
f 462/1/5 460/1/5 461/1/5
f 467/1/5 464/1/5 463/1/5
f 468/1/5 464/1/5 467/1/5
f 469/1/5 466/1/5 465/1/5
f 470/1/5 466/1/5 469/1/5
f 475/1/5 472/1/5 471/1/5
f 476/1/5 472/1/5 475/1/5
f 477/1/5 474/1/5 473/1/5
f 478/1/5 474/1/5 477/1/5
f 481/2/5 480/2/5 479/2/5
f 482/2/5 480/2/5 481/2/5
f 483/1/6 484/1/6 487/1/6
f 487/1/6 484/1/6 488/1/6
f 485/1/6 486/1/6 489/1/6
f 489/1/6 486/1/6 490/1/6
f 491/1/6 492/1/6 495/1/6
f 495/1/6 492/1/6 496/1/6
f 493/1/6 494/1/6 497/1/6
f 497/1/6 494/1/6 498/1/6
f 499/1/6 500/1/6 501/1/6
f 501/1/6 500/1/6 502/1/6
f 503/1/6 504/1/6 507/1/6
f 507/1/6 504/1/6 508/1/6
f 505/1/6 506/1/6 509/1/6
f 509/1/6 506/1/6 510/1/6
f 511/1/6 512/1/6 513/1/6
f 513/1/6 512/1/6 514/1/6
f 515/1/6 516/1/6 520/1/6
f 520/1/6 516/1/6 521/1/6
f 517/1/6 518/1/6 522/1/6
f 522/1/6 518/1/6 523/1/6
f 519/1/6 520/1/6 525/1/6
f 525/1/6 520/1/6 526/1/6
f 523/1/6 524/1/6 527/1/6
f 527/1/6 524/1/6 528/1/6
f 529/1/6 530/1/6 533/1/6
f 533/1/6 530/1/6 534/1/6
f 531/1/6 532/1/6 537/1/6
f 537/1/6 532/1/6 538/1/6
f 534/1/6 535/1/6 539/1/6
f 539/1/6 535/1/6 540/1/6
f 536/1/6 537/1/6 541/1/6
f 541/1/6 537/1/6 542/1/6
f 543/1/6 544/1/6 546/1/6
f 546/1/6 544/1/6 547/1/6
f 545/1/6 546/1/6 549/1/6
f 547/1/6 548/1/6 549/1/6
f 546/1/6 547/1/6 549/1/6
f 549/1/6 548/1/6 550/1/6
f 545/1/6 549/1/6 552/1/6
f 550/1/6 548/1/6 553/1/6
f 551/1/6 552/1/6 555/1/6
f 552/1/6 549/1/6 556/1/6
f 555/1/6 552/1/6 556/1/6
f 553/1/6 554/1/6 557/1/6
f 550/1/6 553/1/6 557/1/6
f 557/1/6 554/1/6 558/1/6
f 556/1/6 549/1/6 559/1/6
f 550/1/6 557/1/6 560/1/6
f 556/1/6 559/1/6 561/1/6
f 559/1/6 560/1/6 561/1/6
f 561/1/6 560/1/6 562/1/6
f 562/1/6 560/1/6 563/1/6
f 560/1/6 557/1/6 564/1/6
f 563/1/6 560/1/6 564/1/6
f 562/1/6 563/1/6 565/1/6
f 565/1/6 563/1/6 566/1/6
f 567/2/6 568/2/6 569/2/6
f 569/2/6 568/2/6 570/2/6
f 567/2/6 569/2/6 571/2/6
f 570/2/6 568/2/6 572/2/6
f 567/2/6 571/2/6 573/2/6
f 571/2/6 572/2/6 573/2/6
f 572/2/6 568/2/6 574/2/6
f 573/2/6 572/2/6 574/2/6
f 575/2/6 576/2/6 577/2/6
f 577/2/6 576/2/6 578/2/6
f 579/2/6 580/2/6 581/2/6
f 581/2/6 580/2/6 582/2/6
f 583/2/6 584/2/6 585/2/6
f 585/2/6 584/2/6 586/2/6
