# MagicaVoxel @ Ephtracy

# group
o 

# material
mtllib 1_4 caja.mtl
usemtl palette

# normals
vn -1 0 0
vn 1 0 0
vn 0 0 1
vn 0 0 -1
vn 0 -1 0
vn 0 1 0

# texcoords
vt 0.349609 0.5
vt 0.365234 0.5
vt 0.443359 0.5

# verts
v 0.5 2.7 -1.3
v 0.5 2.7 -1.5
v 0.5 2.8 -1.1
v 0.5 2.8 -1.3
v 0.5 2.9 -1.3
v 0.5 2.9 -1.5
v 0.5 3 -1.1
v 0.5 3 -1.3
v 0.6 2.4 -0.9
v 0.6 2.4 -1.1
v 0.6 2.6 -0.9
v 0.6 2.6 -1.1
v 0.7 2.4 -1.5
v 0.7 2.4 -1.7
v 0.7 2.6 -0.5
v 0.7 2.6 -0.7
v 0.7 2.6 -1.3
v 0.7 2.6 -1.5
v 0.7 2.6 -1.7
v 0.7 2.7 -1.3
v 0.7 2.7 -1.5
v 0.7 2.8 -0.5
v 0.7 2.8 -0.7
v 0.7 3 -0.7
v 0.7 3 -0.9
v 0.7 3.2 -0.7
v 0.7 3.2 -0.9
v 0.8 2.3 -0.9
v 0.8 2.3 -1
v 0.8 2.4 -0.9
v 0.8 2.4 -1
v 0.8 2.5 -0.7
v 0.8 2.5 -0.9
v 0.8 2.5 -1.2
v 0.8 2.5 -1.5
v 0.8 2.6 -0.7
v 0.8 2.6 -0.8
v 0.8 2.6 -0.9
v 0.8 2.6 -1.3
v 0.8 2.6 -1.5
v 0.8 2.7 -1.1
v 0.8 2.7 -1.2
v 0.8 2.8 -0.7
v 0.8 2.8 -0.8
v 0.8 2.8 -0.9
v 0.8 2.8 -1.2
v 0.8 2.8 -1.3
v 0.8 2.9 -0.7
v 0.8 2.9 -0.8
v 0.8 2.9 -0.9
v 0.8 2.9 -1.1
v 0.8 2.9 -1.2
v 0.8 3 -0.8
v 0.8 3 -0.9
v 0.8 3 -1
v 0.8 3 -1.1
v 0.8 3 -1.2
v 0.8 3 -1.3
v 0.8 3.1 -0.9
v 0.8 3.1 -1
v 0.8 3.2 -0.7
v 0.8 3.2 -0.9
v 0.8 3.2 -1
v 0.8 3.2 -1.1
v 0.8 3.2 -1.3
v 0.8 3.4 -0.7
v 0.8 3.4 -0.9
v 0.8 3.4 -1
v 0.9 2.2 -0.9
v 0.9 2.2 -1.1
v 0.9 2.3 -0.9
v 0.9 2.3 -1
v 0.9 2.4 -1
v 0.9 2.4 -1.1
v 0.9 2.8 -0.6
v 0.9 2.8 -0.7
v 0.9 2.9 -0.6
v 0.9 2.9 -0.7
v 1 2.7 -1
v 1 2.7 -1.2
v 1 2.8 -1
v 1 2.8 -1.1
v 1 2.8 -1.2
v 1 3 -0.7
v 1 3 -0.9
v 1 3.2 -0.7
v 1 3.2 -0.9
v 1.1 2.6 -1.1
v 1.1 2.6 -1.3
v 1.1 2.7 -0.9
v 1.1 2.7 -1
v 1.1 2.7 -1.1
v 1.1 2.7 -1.2
v 1.1 2.8 -1
v 1.1 2.8 -1.1
v 1.1 2.8 -1.2
v 1.1 2.8 -1.3
v 1.1 2.9 -0.7
v 1.1 2.9 -0.8
v 1.1 2.9 -0.9
v 1.1 2.9 -1.1
v 1.1 3 -0.7
v 1.1 3 -0.8
v 1.3 2.4 -1.1
v 1.3 2.4 -1.3
v 1.3 2.6 -1.1
v 1.3 2.6 -1.3
v 1.3 2.8 -0.7
v 1.3 2.8 -0.9
v 1.3 2.9 -0.7
v 1.3 2.9 -0.8
v 1.3 2.9 -0.9
v 1.3 3 -0.8
v 1.3 3 -0.9
v 1.4 2.4 -0.8
v 1.4 2.4 -0.9
v 1.4 2.6 -0.6
v 1.4 2.6 -0.8
v 1.4 2.7 -0.6
v 1.4 2.7 -0.7
v 1.4 2.7 -0.8
v 1.4 2.7 -0.9
v 1.4 2.8 -0.7
v 1.4 2.8 -0.8
v 1.5 2.3 -0.7
v 1.5 2.3 -0.9
v 1.5 2.4 -0.8
v 1.5 2.4 -0.9
v 1.5 2.5 -0.7
v 1.5 2.5 -0.8
v 1.5 2.6 -0.5
v 1.5 2.6 -0.6
v 1.5 2.7 -0.6
v 1.5 2.7 -0.7
v 1.5 2.8 -0.5
v 1.5 2.8 -0.7
v 0.7 2.8 -1.1
v 0.7 2.8 -1.3
v 0.7 2.8 -1.5
v 0.7 2.9 -1.1
v 0.7 2.9 -1.2
v 0.7 2.9 -1.3
v 0.7 2.9 -1.5
v 0.7 3 -1.2
v 0.7 3 -1.3
v 0.8 2.4 -1
v 0.8 2.4 -1.1
v 0.8 2.6 -1
v 0.8 2.6 -1.1
v 0.9 2.4 -0.9
v 0.9 2.4 -1
v 0.9 2.4 -1.5
v 0.9 2.4 -1.7
v 0.9 2.5 -0.7
v 0.9 2.5 -0.9
v 0.9 2.5 -1.2
v 0.9 2.5 -1.5
v 0.9 2.6 -0.5
v 0.9 2.6 -0.7
v 0.9 2.6 -0.8
v 0.9 2.6 -1
v 0.9 2.6 -1.3
v 0.9 2.6 -1.5
v 0.9 2.6 -1.7
v 0.9 2.7 -0.6
v 0.9 2.7 -0.7
v 0.9 2.7 -0.8
v 0.9 2.7 -1.1
v 0.9 2.7 -1.2
v 0.9 2.8 -0.5
v 0.9 2.8 -0.6
v 0.9 2.8 -0.8
v 0.9 2.8 -0.9
v 0.9 2.8 -1.1
v 0.9 2.8 -1.2
v 0.9 2.8 -1.3
v 0.9 2.8 -1.5
v 0.9 2.9 -0.8
v 0.9 2.9 -0.9
v 0.9 2.9 -1.1
v 0.9 2.9 -1.2
v 0.9 3 -0.7
v 0.9 3 -0.8
v 0.9 3 -0.9
v 0.9 3 -1
v 0.9 3 -1.1
v 0.9 3 -1.2
v 0.9 3.1 -0.9
v 0.9 3.1 -1
v 0.9 3.2 -0.7
v 0.9 3.2 -0.9
v 0.9 3.2 -1
v 0.9 3.2 -1.1
v 0.9 3.4 -0.9
v 0.9 3.4 -1
v 1 3 -1.1
v 1 3 -1.3
v 1 3.2 -0.7
v 1 3.2 -0.9
v 1 3.2 -1.1
v 1 3.2 -1.3
v 1 3.4 -0.7
v 1 3.4 -0.9
v 1.1 2.2 -0.9
v 1.1 2.2 -1.1
v 1.1 2.4 -0.9
v 1.1 2.4 -1.1
v 1.1 2.7 -0.6
v 1.1 2.7 -0.8
v 1.1 2.8 -1.1
v 1.1 2.8 -1.2
v 1.1 2.9 -0.6
v 1.1 2.9 -0.7
v 1.1 2.9 -0.8
v 1.1 2.9 -1.1
v 1.1 2.9 -1.2
v 1.2 3 -0.7
v 1.2 3 -0.8
v 1.2 3 -0.9
v 1.2 3.2 -0.7
v 1.2 3.2 -0.9
v 1.3 2.6 -1.1
v 1.3 2.6 -1.2
v 1.3 2.7 -0.9
v 1.3 2.7 -1.1
v 1.3 2.7 -1.2
v 1.3 2.7 -1.3
v 1.3 2.8 -0.9
v 1.3 2.8 -1.1
v 1.3 2.8 -1.3
v 1.3 2.9 -0.9
v 1.3 2.9 -1.1
v 1.4 2.6 -1.2
v 1.4 2.6 -1.3
v 1.4 2.7 -1.2
v 1.4 2.7 -1.3
v 1.5 2.4 -1.1
v 1.5 2.4 -1.3
v 1.5 2.5 -0.8
v 1.5 2.5 -0.9
v 1.5 2.6 -0.7
v 1.5 2.6 -0.8
v 1.5 2.6 -0.9
v 1.5 2.6 -1.1
v 1.5 2.6 -1.3
v 1.5 2.7 -0.8
v 1.5 2.8 -0.7
v 1.5 2.8 -0.8
v 1.5 2.8 -0.9
v 1.5 3 -0.7
v 1.5 3 -0.9
v 1.6 2.6 -0.8
v 1.6 2.6 -0.9
v 1.6 2.7 -0.8
v 1.6 2.7 -0.9
v 1.7 2.3 -0.7
v 1.7 2.3 -0.9
v 1.7 2.5 -0.7
v 1.7 2.5 -0.9
v 1.7 2.6 -0.5
v 1.7 2.6 -0.7
v 1.7 2.8 -0.5
v 1.7 2.8 -0.7
v 0.7 2.6 -0.5
v 0.7 2.8 -0.5
v 0.9 2.6 -0.5
v 0.9 2.8 -0.5
v 1.5 2.6 -0.5
v 1.5 2.8 -0.5
v 1.7 2.6 -0.5
v 1.7 2.8 -0.5
v 0.9 2.7 -0.6
v 0.9 2.8 -0.6
v 0.9 2.9 -0.6
v 1.1 2.7 -0.6
v 1.1 2.9 -0.6
v 1.4 2.6 -0.6
v 1.4 2.7 -0.6
v 1.5 2.6 -0.6
v 1.5 2.7 -0.6
v 0.7 3 -0.7
v 0.7 3.2 -0.7
v 0.8 2.5 -0.7
v 0.8 2.6 -0.7
v 0.8 2.8 -0.7
v 0.8 2.9 -0.7
v 0.8 3.2 -0.7
v 0.8 3.4 -0.7
v 0.9 2.5 -0.7
v 0.9 2.6 -0.7
v 0.9 2.8 -0.7
v 0.9 2.9 -0.7
v 0.9 3 -0.7
v 0.9 3.2 -0.7
v 1 3 -0.7
v 1 3.2 -0.7
v 1 3.4 -0.7
v 1.1 2.9 -0.7
v 1.1 3 -0.7
v 1.2 3 -0.7
v 1.2 3.2 -0.7
v 1.3 2.8 -0.7
v 1.3 2.9 -0.7
v 1.3 3 -0.7
v 1.4 2.7 -0.7
v 1.4 2.8 -0.7
v 1.5 2.3 -0.7
v 1.5 2.5 -0.7
v 1.5 2.7 -0.7
v 1.5 2.8 -0.7
v 1.5 3 -0.7
v 1.7 2.3 -0.7
v 1.7 2.5 -0.7
v 0.8 2.9 -0.8
v 0.8 3 -0.8
v 0.9 2.9 -0.8
v 0.9 3 -0.8
v 1.4 2.4 -0.8
v 1.4 2.6 -0.8
v 1.5 2.4 -0.8
v 1.5 2.5 -0.8
v 1.5 2.6 -0.8
v 1.5 2.7 -0.8
v 1.6 2.6 -0.8
v 1.6 2.7 -0.8
v 0.6 2.4 -0.9
v 0.6 2.6 -0.9
v 0.8 2.3 -0.9
v 0.8 2.4 -0.9
v 0.8 2.5 -0.9
v 0.8 2.6 -0.9
v 0.9 2.2 -0.9
v 0.9 2.3 -0.9
v 0.9 2.4 -0.9
v 0.9 2.5 -0.9
v 1.1 2.2 -0.9
v 1.1 2.4 -0.9
v 1.1 2.7 -0.9
v 1.1 2.9 -0.9
v 1.3 2.7 -0.9
v 1.3 2.8 -0.9
v 1.3 2.9 -0.9
v 0.8 3 -1
v 0.8 3.1 -1
v 0.9 3 -1
v 0.9 3.1 -1
v 1 2.7 -1
v 1 2.8 -1
v 1.1 2.7 -1
v 1.1 2.8 -1
v 0.5 2.8 -1.1
v 0.5 3 -1.1
v 0.7 2.8 -1.1
v 0.7 2.9 -1.1
v 0.7 3 -1.1
v 0.8 2.7 -1.1
v 0.8 2.9 -1.1
v 0.8 3 -1.1
v 0.9 2.7 -1.1
v 0.9 2.8 -1.1
v 0.9 2.9 -1.1
v 0.9 3 -1.1
v 0.9 3.2 -1.1
v 1 2.8 -1.1
v 1 3 -1.1
v 1 3.2 -1.1
v 1.1 2.6 -1.1
v 1.1 2.7 -1.1
v 1.1 2.8 -1.1
v 1.1 2.9 -1.1
v 1.3 2.4 -1.1
v 1.3 2.6 -1.1
v 1.3 2.7 -1.1
v 1.5 2.4 -1.1
v 1.5 2.6 -1.1
v 0.8 2.5 -1.2
v 0.8 2.7 -1.2
v 0.9 2.5 -1.2
v 0.9 2.7 -1.2
v 1.3 2.6 -1.2
v 1.3 2.7 -1.2
v 1.4 2.6 -1.2
v 1.4 2.7 -1.2
v 0.5 2.7 -1.3
v 0.5 2.8 -1.3
v 0.7 2.6 -1.3
v 0.7 2.7 -1.3
v 0.7 2.8 -1.3
v 0.8 2.6 -1.3
v 0.8 2.8 -1.3
v 0.7 2.4 -1.5
v 0.7 2.6 -1.5
v 0.8 2.5 -1.5
v 0.8 2.6 -1.5
v 0.9 2.4 -1.5
v 0.9 2.5 -1.5
v 0.7 2.6 -0.7
v 0.7 2.8 -0.7
v 0.8 2.6 -0.7
v 0.8 2.8 -0.7
v 1.5 2.6 -0.7
v 1.5 2.8 -0.7
v 1.7 2.6 -0.7
v 1.7 2.8 -0.7
v 0.8 2.6 -0.8
v 0.8 2.8 -0.8
v 0.9 2.6 -0.8
v 0.9 2.7 -0.8
v 0.9 2.8 -0.8
v 0.9 2.9 -0.8
v 1.1 2.7 -0.8
v 1.1 2.9 -0.8
v 1.1 3 -0.8
v 1.2 3 -0.8
v 1.3 2.9 -0.8
v 1.3 3 -0.8
v 1.4 2.7 -0.8
v 1.4 2.8 -0.8
v 1.5 2.7 -0.8
v 1.5 2.8 -0.8
v 0.7 3 -0.9
v 0.7 3.2 -0.9
v 0.8 2.8 -0.9
v 0.8 2.9 -0.9
v 0.8 3 -0.9
v 0.8 3.1 -0.9
v 0.8 3.2 -0.9
v 0.9 2.8 -0.9
v 0.9 2.9 -0.9
v 0.9 3 -0.9
v 0.9 3.1 -0.9
v 0.9 3.2 -0.9
v 0.9 3.4 -0.9
v 1 3 -0.9
v 1 3.2 -0.9
v 1 3.4 -0.9
v 1.2 3 -0.9
v 1.2 3.2 -0.9
v 1.3 2.8 -0.9
v 1.3 2.9 -0.9
v 1.3 3 -0.9
v 1.4 2.4 -0.9
v 1.4 2.7 -0.9
v 1.5 2.3 -0.9
v 1.5 2.4 -0.9
v 1.5 2.5 -0.9
v 1.5 2.6 -0.9
v 1.5 2.8 -0.9
v 1.5 3 -0.9
v 1.6 2.6 -0.9
v 1.6 2.7 -0.9
v 1.7 2.3 -0.9
v 1.7 2.5 -0.9
v 0.8 2.3 -1
v 0.8 2.4 -1
v 0.8 2.6 -1
v 0.8 3.2 -1
v 0.8 3.4 -1
v 0.9 2.3 -1
v 0.9 2.4 -1
v 0.9 2.6 -1
v 0.9 3.2 -1
v 0.9 3.4 -1
v 0.6 2.4 -1.1
v 0.6 2.6 -1.1
v 0.8 2.4 -1.1
v 0.8 2.6 -1.1
v 0.9 2.2 -1.1
v 0.9 2.4 -1.1
v 1.1 2.2 -1.1
v 1.1 2.4 -1.1
v 1.1 2.8 -1.1
v 1.1 2.9 -1.1
v 1.3 2.8 -1.1
v 1.3 2.9 -1.1
v 0.7 2.9 -1.2
v 0.7 3 -1.2
v 0.8 2.8 -1.2
v 0.8 2.9 -1.2
v 0.8 3 -1.2
v 0.9 2.8 -1.2
v 0.9 2.9 -1.2
v 0.9 3 -1.2
v 1 2.7 -1.2
v 1 2.8 -1.2
v 1.1 2.7 -1.2
v 1.1 2.8 -1.2
v 1.1 2.9 -1.2
v 0.5 2.9 -1.3
v 0.5 3 -1.3
v 0.7 2.9 -1.3
v 0.7 3 -1.3
v 0.8 3 -1.3
v 0.8 3.2 -1.3
v 1 3 -1.3
v 1 3.2 -1.3
v 1.1 2.6 -1.3
v 1.1 2.8 -1.3
v 1.3 2.4 -1.3
v 1.3 2.6 -1.3
v 1.3 2.7 -1.3
v 1.3 2.8 -1.3
v 1.4 2.6 -1.3
v 1.4 2.7 -1.3
v 1.5 2.4 -1.3
v 1.5 2.6 -1.3
v 0.5 2.7 -1.5
v 0.5 2.9 -1.5
v 0.7 2.6 -1.5
v 0.7 2.7 -1.5
v 0.7 2.8 -1.5
v 0.7 2.9 -1.5
v 0.9 2.6 -1.5
v 0.9 2.8 -1.5
v 0.7 2.4 -1.7
v 0.7 2.6 -1.7
v 0.9 2.4 -1.7
v 0.9 2.6 -1.7
v 0.9 2.2 -0.9
v 1.1 2.2 -0.9
v 0.9 2.2 -1.1
v 1.1 2.2 -1.1
v 1.5 2.3 -0.7
v 1.7 2.3 -0.7
v 0.8 2.3 -0.9
v 0.9 2.3 -0.9
v 1.5 2.3 -0.9
v 1.7 2.3 -0.9
v 0.8 2.3 -1
v 0.9 2.3 -1
v 1.4 2.4 -0.8
v 1.5 2.4 -0.8
v 0.6 2.4 -0.9
v 0.8 2.4 -0.9
v 1.4 2.4 -0.9
v 1.5 2.4 -0.9
v 0.8 2.4 -1
v 0.6 2.4 -1.1
v 0.8 2.4 -1.1
v 1.3 2.4 -1.1
v 1.5 2.4 -1.1
v 1.3 2.4 -1.3
v 1.5 2.4 -1.3
v 0.7 2.4 -1.5
v 0.9 2.4 -1.5
v 0.7 2.4 -1.7
v 0.9 2.4 -1.7
v 0.8 2.5 -0.7
v 0.9 2.5 -0.7
v 0.8 2.5 -0.9
v 0.9 2.5 -0.9
v 0.8 2.5 -1.2
v 0.9 2.5 -1.2
v 0.8 2.5 -1.5
v 0.9 2.5 -1.5
v 0.7 2.6 -0.5
v 0.9 2.6 -0.5
v 1.5 2.6 -0.5
v 1.7 2.6 -0.5
v 1.4 2.6 -0.6
v 1.5 2.6 -0.6
v 0.7 2.6 -0.7
v 0.8 2.6 -0.7
v 0.9 2.6 -0.7
v 1.5 2.6 -0.7
v 1.7 2.6 -0.7
v 1.4 2.6 -0.8
v 1.5 2.6 -0.8
v 1.6 2.6 -0.8
v 1.5 2.6 -0.9
v 1.6 2.6 -0.9
v 1.1 2.6 -1.1
v 1.3 2.6 -1.1
v 0.7 2.6 -1.3
v 0.8 2.6 -1.3
v 1.1 2.6 -1.3
v 1.3 2.6 -1.3
v 0.7 2.6 -1.5
v 0.8 2.6 -1.5
v 0.9 2.7 -0.6
v 1.1 2.7 -0.6
v 0.9 2.7 -0.7
v 0.9 2.7 -0.8
v 1.1 2.7 -0.8
v 1.1 2.7 -0.9
v 1.3 2.7 -0.9
v 1 2.7 -1
v 1.1 2.7 -1
v 0.8 2.7 -1.1
v 0.9 2.7 -1.1
v 1.1 2.7 -1.1
v 1.3 2.7 -1.1
v 0.8 2.7 -1.2
v 0.9 2.7 -1.2
v 1 2.7 -1.2
v 1.1 2.7 -1.2
v 0.5 2.7 -1.3
v 0.7 2.7 -1.3
v 0.5 2.7 -1.5
v 0.7 2.7 -1.5
v 1.3 2.8 -0.7
v 1.4 2.8 -0.7
v 0.8 2.8 -0.8
v 0.9 2.8 -0.8
v 1.4 2.8 -0.8
v 1.5 2.8 -0.8
v 0.8 2.8 -0.9
v 0.9 2.8 -0.9
v 1.3 2.8 -0.9
v 1.5 2.8 -0.9
v 0.5 2.8 -1.1
v 0.7 2.8 -1.1
v 0.9 2.8 -1.1
v 1 2.8 -1.1
v 0.9 2.8 -1.2
v 1 2.8 -1.2
v 0.5 2.8 -1.3
v 0.7 2.8 -1.3
v 1.1 2.9 -0.7
v 1.3 2.9 -0.7
v 1.1 2.9 -0.8
v 1.3 2.9 -0.8
v 0.8 2.9 -0.9
v 0.9 2.9 -0.9
v 0.7 2.9 -1.1
v 0.8 2.9 -1.1
v 0.9 2.9 -1.1
v 0.7 2.9 -1.2
v 0.8 2.9 -1.2
v 0.7 3 -0.7
v 0.9 3 -0.7
v 1 3 -0.7
v 1.1 3 -0.7
v 0.8 3 -0.8
v 0.9 3 -0.8
v 1.1 3 -0.8
v 1.2 3 -0.8
v 0.7 3 -0.9
v 0.8 3 -0.9
v 1 3 -0.9
v 1.2 3 -0.9
v 0.9 3 -1.1
v 1 3 -1.1
v 0.8 3 -1.2
v 0.9 3 -1.2
v 0.8 3 -1.3
v 1 3 -1.3
v 0.8 3.1 -0.9
v 0.9 3.1 -0.9
v 0.8 3.1 -1
v 0.9 3.1 -1
v 0.9 3.2 -0.7
v 1 3.2 -0.7
v 0.9 3.2 -0.9
v 1 3.2 -0.9
v 0.9 2.4 -0.9
v 1.1 2.4 -0.9
v 0.9 2.4 -1
v 0.9 2.4 -1.1
v 1.1 2.4 -1.1
v 1.5 2.5 -0.7
v 1.7 2.5 -0.7
v 1.5 2.5 -0.8
v 1.5 2.5 -0.9
v 1.7 2.5 -0.9
v 0.8 2.6 -0.8
v 0.9 2.6 -0.8
v 0.6 2.6 -0.9
v 0.8 2.6 -0.9
v 0.8 2.6 -1
v 0.9 2.6 -1
v 0.6 2.6 -1.1
v 0.8 2.6 -1.1
v 1.3 2.6 -1.1
v 1.5 2.6 -1.1
v 1.3 2.6 -1.2
v 1.4 2.6 -1.2
v 1.4 2.6 -1.3
v 1.5 2.6 -1.3
v 0.7 2.6 -1.5
v 0.9 2.6 -1.5
v 0.7 2.6 -1.7
v 0.9 2.6 -1.7
v 1.4 2.7 -0.6
v 1.5 2.7 -0.6
v 1.4 2.7 -0.7
v 1.5 2.7 -0.7
v 1.4 2.7 -0.8
v 1.5 2.7 -0.8
v 1.6 2.7 -0.8
v 1.4 2.7 -0.9
v 1.6 2.7 -0.9
v 1.3 2.7 -1.2
v 1.4 2.7 -1.2
v 1.3 2.7 -1.3
v 1.4 2.7 -1.3
v 0.7 2.8 -0.5
v 0.9 2.8 -0.5
v 1.5 2.8 -0.5
v 1.7 2.8 -0.5
v 0.9 2.8 -0.6
v 0.7 2.8 -0.7
v 0.8 2.8 -0.7
v 0.9 2.8 -0.7
v 1.5 2.8 -0.7
v 1.7 2.8 -0.7
v 1 2.8 -1
v 1.1 2.8 -1
v 1 2.8 -1.1
v 1.1 2.8 -1.1
v 1.3 2.8 -1.1
v 0.8 2.8 -1.2
v 0.9 2.8 -1.2
v 1.1 2.8 -1.2
v 0.7 2.8 -1.3
v 0.8 2.8 -1.3
v 0.9 2.8 -1.3
v 1.1 2.8 -1.3
v 1.3 2.8 -1.3
v 0.7 2.8 -1.5
v 0.9 2.8 -1.5
v 0.9 2.9 -0.6
v 1.1 2.9 -0.6
v 0.8 2.9 -0.7
v 0.9 2.9 -0.7
v 1.1 2.9 -0.7
v 0.8 2.9 -0.8
v 0.9 2.9 -0.8
v 1.1 2.9 -0.8
v 1.1 2.9 -0.9
v 1.3 2.9 -0.9
v 0.9 2.9 -1.1
v 1.1 2.9 -1.1
v 1.3 2.9 -1.1
v 0.9 2.9 -1.2
v 1.1 2.9 -1.2
v 0.5 2.9 -1.3
v 0.7 2.9 -1.3
v 0.5 2.9 -1.5
v 0.7 2.9 -1.5
v 1.2 3 -0.7
v 1.3 3 -0.7
v 1.5 3 -0.7
v 1.2 3 -0.8
v 1.3 3 -0.8
v 0.8 3 -0.9
v 0.9 3 -0.9
v 1.3 3 -0.9
v 1.5 3 -0.9
v 0.8 3 -1
v 0.9 3 -1
v 0.5 3 -1.1
v 0.7 3 -1.1
v 0.8 3 -1.1
v 0.7 3 -1.2
v 0.8 3 -1.2
v 0.5 3 -1.3
v 0.7 3 -1.3
v 0.7 3.2 -0.7
v 0.8 3.2 -0.7
v 1 3.2 -0.7
v 1.2 3.2 -0.7
v 0.7 3.2 -0.9
v 0.8 3.2 -0.9
v 1 3.2 -0.9
v 1.2 3.2 -0.9
v 0.8 3.2 -1
v 0.9 3.2 -1
v 0.8 3.2 -1.1
v 0.9 3.2 -1.1
v 1 3.2 -1.1
v 0.8 3.2 -1.3
v 1 3.2 -1.3
v 0.8 3.4 -0.7
v 1 3.4 -0.7
v 0.8 3.4 -0.9
v 0.9 3.4 -0.9
v 1 3.4 -0.9
v 0.8 3.4 -1
v 0.9 3.4 -1

# faces
f 4/1/1 2/1/1 1/1/1
f 5/1/1 2/1/1 4/1/1
f 5/1/1 4/1/1 3/1/1
f 6/1/1 2/1/1 5/1/1
f 7/1/1 5/1/1 3/1/1
f 8/1/1 5/1/1 7/1/1
f 11/1/1 10/1/1 9/1/1
f 12/1/1 10/1/1 11/1/1
f 18/1/1 14/1/1 13/1/1
f 19/1/1 14/1/1 18/1/1
f 20/1/1 18/1/1 17/1/1
f 21/1/1 18/1/1 20/1/1
f 22/1/1 16/1/1 15/1/1
f 23/1/1 16/1/1 22/1/1
f 26/1/1 25/1/1 24/1/1
f 27/1/1 25/1/1 26/1/1
f 30/3/1 29/3/1 28/3/1
f 31/3/1 29/3/1 30/3/1
f 36/3/1 33/3/1 32/3/1
f 37/3/1 33/3/1 36/3/1
f 38/3/1 33/3/1 37/3/1
f 39/3/1 35/3/1 34/3/1
f 40/3/1 35/3/1 39/3/1
f 42/3/1 39/3/1 34/3/1
f 43/3/1 37/3/1 36/3/1
f 44/3/1 37/3/1 43/3/1
f 46/3/1 42/3/1 41/3/1
f 46/3/1 39/3/1 42/3/1
f 47/3/1 39/3/1 46/3/1
f 48/3/1 45/3/1 44/3/1
f 48/3/1 44/3/1 43/3/1
f 49/3/1 45/3/1 48/3/1
f 50/3/1 45/3/1 49/3/1
f 51/3/1 46/3/1 41/3/1
f 52/3/1 46/3/1 51/3/1
f 53/3/1 50/3/1 49/3/1
f 53/3/1 51/3/1 50/3/1
f 54/3/1 51/3/1 53/3/1
f 55/3/1 51/3/1 54/3/1
f 56/3/1 51/3/1 55/3/1
f 60/3/1 56/3/1 55/3/1
f 62/3/1 60/3/1 59/3/1
f 63/3/1 56/3/1 60/3/1
f 63/3/1 60/3/1 62/3/1
f 64/1/1 57/1/1 56/1/1
f 64/3/1 56/3/1 63/3/1
f 64/1/1 58/1/1 57/1/1
f 65/1/1 58/1/1 64/1/1
f 66/2/1 62/2/1 61/2/1
f 67/3/1 63/3/1 62/3/1
f 67/2/1 62/2/1 66/2/1
f 68/3/1 63/3/1 67/3/1
f 71/1/1 70/1/1 69/1/1
f 72/1/1 70/1/1 71/1/1
f 73/1/1 70/1/1 72/1/1
f 74/1/1 70/1/1 73/1/1
f 77/1/1 76/1/1 75/1/1
f 78/1/1 76/1/1 77/1/1
f 81/3/1 80/3/1 79/3/1
f 82/3/1 80/3/1 81/3/1
f 83/3/1 80/3/1 82/3/1
f 86/1/1 85/1/1 84/1/1
f 87/1/1 85/1/1 86/1/1
f 92/1/1 89/1/1 88/1/1
f 93/1/1 89/1/1 92/1/1
f 94/1/1 91/1/1 90/1/1
f 96/1/1 89/1/1 93/1/1
f 97/1/1 89/1/1 96/1/1
f 100/1/1 95/1/1 94/1/1
f 100/1/1 94/1/1 90/1/1
f 101/1/1 95/1/1 100/1/1
f 102/3/1 99/3/1 98/3/1
f 103/3/1 99/3/1 102/3/1
f 106/2/1 105/2/1 104/2/1
f 107/2/1 105/2/1 106/2/1
f 110/1/1 109/1/1 108/1/1
f 111/1/1 109/1/1 110/1/1
f 112/1/1 109/1/1 111/1/1
f 113/1/1 112/1/1 111/1/1
f 114/1/1 112/1/1 113/1/1
f 118/3/1 116/3/1 115/3/1
f 119/3/1 118/3/1 117/3/1
f 120/3/1 118/3/1 119/3/1
f 121/3/1 116/3/1 118/3/1
f 121/3/1 118/3/1 120/3/1
f 122/3/1 116/3/1 121/3/1
f 123/3/1 121/3/1 120/3/1
f 124/3/1 121/3/1 123/3/1
f 127/1/1 126/1/1 125/1/1
f 128/1/1 126/1/1 127/1/1
f 129/1/1 127/1/1 125/1/1
f 130/1/1 127/1/1 129/1/1
f 133/2/1 132/2/1 131/2/1
f 135/2/1 133/2/1 131/2/1
f 135/2/1 134/2/1 133/2/1
f 136/2/1 134/2/1 135/2/1
f 137/1/2 138/1/2 140/1/2
f 138/1/2 139/1/2 140/1/2
f 140/1/2 139/1/2 141/1/2
f 141/1/2 139/1/2 142/1/2
f 142/1/2 139/1/2 143/1/2
f 141/1/2 142/1/2 144/1/2
f 144/1/2 142/1/2 145/1/2
f 146/1/2 147/1/2 148/1/2
f 148/1/2 147/1/2 149/1/2
f 150/3/2 151/3/2 155/3/2
f 152/1/2 153/1/2 157/1/2
f 154/3/2 155/3/2 159/3/2
f 159/3/2 155/3/2 160/3/2
f 155/3/2 151/3/2 161/3/2
f 160/3/2 155/3/2 161/3/2
f 156/3/2 157/3/2 162/3/2
f 157/1/2 153/1/2 163/1/2
f 162/3/2 157/3/2 163/3/2
f 163/1/2 153/1/2 164/1/2
f 158/1/2 159/1/2 165/1/2
f 159/3/2 160/3/2 166/3/2
f 165/1/2 159/1/2 166/1/2
f 166/3/2 160/3/2 167/3/2
f 156/3/2 162/3/2 169/3/2
f 158/1/2 165/1/2 170/1/2
f 170/1/2 165/1/2 171/1/2
f 168/3/2 169/3/2 174/3/2
f 169/3/2 162/3/2 175/3/2
f 174/3/2 169/3/2 175/3/2
f 162/1/2 163/1/2 176/1/2
f 175/3/2 162/3/2 176/3/2
f 176/1/2 163/1/2 177/1/2
f 172/3/2 173/3/2 178/3/2
f 178/3/2 173/3/2 179/3/2
f 178/3/2 179/3/2 183/3/2
f 180/3/2 181/3/2 183/3/2
f 179/3/2 180/3/2 183/3/2
f 183/3/2 181/3/2 184/3/2
f 184/3/2 181/3/2 185/3/2
f 185/3/2 181/3/2 186/3/2
f 186/3/2 181/3/2 187/3/2
f 182/1/2 183/1/2 188/1/2
f 183/1/2 184/1/2 188/1/2
f 185/3/2 186/3/2 189/3/2
f 182/1/2 188/1/2 190/1/2
f 188/3/2 189/3/2 191/3/2
f 190/1/2 188/1/2 191/1/2
f 189/3/2 186/3/2 192/3/2
f 191/3/2 189/3/2 192/3/2
f 192/3/2 186/3/2 193/3/2
f 191/3/2 192/3/2 194/3/2
f 194/3/2 192/3/2 195/3/2
f 196/1/2 197/1/2 200/1/2
f 200/1/2 197/1/2 201/1/2
f 198/2/2 199/2/2 202/2/2
f 202/2/2 199/2/2 203/2/2
f 204/1/2 205/1/2 206/1/2
f 206/1/2 205/1/2 207/1/2
f 208/1/2 209/1/2 212/1/2
f 212/1/2 209/1/2 213/1/2
f 213/1/2 209/1/2 214/1/2
f 210/3/2 211/3/2 215/3/2
f 215/3/2 211/3/2 216/3/2
f 217/1/2 218/1/2 220/1/2
f 218/1/2 219/1/2 220/1/2
f 220/1/2 219/1/2 221/1/2
f 222/1/2 223/1/2 225/1/2
f 225/1/2 223/1/2 226/1/2
f 224/1/2 225/1/2 228/1/2
f 226/1/2 227/1/2 228/1/2
f 225/1/2 226/1/2 228/1/2
f 228/1/2 227/1/2 229/1/2
f 229/1/2 227/1/2 230/1/2
f 228/1/2 229/1/2 231/1/2
f 231/1/2 229/1/2 232/1/2
f 233/3/2 234/3/2 235/3/2
f 235/3/2 234/3/2 236/3/2
f 239/3/2 240/3/2 242/3/2
f 242/3/2 240/3/2 243/3/2
f 237/2/2 238/2/2 244/2/2
f 244/2/2 238/2/2 245/2/2
f 241/3/2 242/3/2 246/3/2
f 241/3/2 246/3/2 247/3/2
f 247/3/2 246/3/2 248/3/2
f 247/1/2 248/1/2 250/1/2
f 248/1/2 249/1/2 250/1/2
f 250/1/2 249/1/2 251/1/2
f 252/3/2 253/3/2 254/3/2
f 254/3/2 253/3/2 255/3/2
f 256/1/2 257/1/2 258/1/2
f 258/1/2 257/1/2 259/1/2
f 260/2/2 261/2/2 262/2/2
f 262/2/2 261/2/2 263/2/2
f 266/1/3 265/1/3 264/1/3
f 267/1/3 265/1/3 266/1/3
f 270/2/3 269/2/3 268/2/3
f 271/2/3 269/2/3 270/2/3
f 275/1/3 273/1/3 272/1/3
f 275/1/3 274/1/3 273/1/3
f 276/1/3 274/1/3 275/1/3
f 279/3/3 278/3/3 277/3/3
f 280/3/3 278/3/3 279/3/3
f 287/1/3 282/1/3 281/1/3
f 289/3/3 284/3/3 283/3/3
f 290/3/3 284/3/3 289/3/3
f 291/3/3 286/3/3 285/3/3
f 292/3/3 286/3/3 291/3/3
f 293/1/3 287/1/3 281/1/3
f 294/2/3 288/2/3 287/2/3
f 294/1/3 287/1/3 293/1/3
f 296/2/3 288/2/3 294/2/3
f 297/2/3 288/2/3 296/2/3
f 299/1/3 296/1/3 295/1/3
f 300/1/3 296/1/3 299/1/3
f 300/3/3 299/3/3 298/3/3
f 301/1/3 296/1/3 300/1/3
f 303/3/3 300/3/3 298/3/3
f 304/3/3 300/3/3 303/3/3
f 306/1/3 303/1/3 302/1/3
f 306/1/3 304/1/3 303/1/3
f 309/3/3 306/3/3 305/3/3
f 310/1/3 304/1/3 306/1/3
f 310/3/3 306/3/3 309/3/3
f 311/1/3 304/1/3 310/1/3
f 312/1/3 308/1/3 307/1/3
f 313/1/3 308/1/3 312/1/3
f 316/3/3 315/3/3 314/3/3
f 317/3/3 315/3/3 316/3/3
f 320/3/3 319/3/3 318/3/3
f 321/3/3 319/3/3 320/3/3
f 322/3/3 319/3/3 321/3/3
f 324/3/3 323/3/3 322/3/3
f 325/3/3 323/3/3 324/3/3
f 329/1/3 327/1/3 326/1/3
f 330/1/3 327/1/3 329/1/3
f 331/1/3 327/1/3 330/1/3
f 333/3/3 329/3/3 328/3/3
f 333/3/3 330/3/3 329/3/3
f 334/3/3 330/3/3 333/3/3
f 335/3/3 330/3/3 334/3/3
f 336/1/3 333/1/3 332/1/3
f 336/1/3 334/1/3 333/1/3
f 337/1/3 334/1/3 336/1/3
f 340/1/3 339/1/3 338/1/3
f 341/1/3 339/1/3 340/1/3
f 342/1/3 339/1/3 341/1/3
f 345/3/3 344/3/3 343/3/3
f 346/3/3 344/3/3 345/3/3
f 349/3/3 348/3/3 347/3/3
f 350/3/3 348/3/3 349/3/3
f 353/1/3 352/1/3 351/1/3
f 354/1/3 352/1/3 353/1/3
f 355/1/3 352/1/3 354/1/3
f 357/3/3 355/3/3 354/3/3
f 358/3/3 355/3/3 357/3/3
f 359/3/3 357/3/3 356/3/3
f 360/3/3 357/3/3 359/3/3
f 361/3/3 357/3/3 360/3/3
f 364/3/3 361/3/3 360/3/3
f 365/1/3 363/1/3 362/1/3
f 366/1/3 363/1/3 365/1/3
f 369/3/3 361/3/3 364/3/3
f 370/3/3 361/3/3 369/3/3
f 372/1/3 368/1/3 367/1/3
f 373/1/3 368/1/3 372/1/3
f 374/2/3 372/2/3 371/2/3
f 375/2/3 372/2/3 374/2/3
f 378/3/3 377/3/3 376/3/3
f 379/3/3 377/3/3 378/3/3
f 382/3/3 381/3/3 380/3/3
f 383/3/3 381/3/3 382/3/3
f 387/1/3 385/1/3 384/1/3
f 388/1/3 385/1/3 387/1/3
f 389/1/3 387/1/3 386/1/3
f 389/1/3 388/1/3 387/1/3
f 390/1/3 388/1/3 389/1/3
f 393/1/3 392/1/3 391/1/3
f 394/1/3 392/1/3 393/1/3
f 395/1/3 393/1/3 391/1/3
f 396/1/3 393/1/3 395/1/3
f 397/1/4 398/1/4 399/1/4
f 399/1/4 398/1/4 400/1/4
f 401/2/4 402/2/4 403/2/4
f 403/2/4 402/2/4 404/2/4
f 405/3/4 406/3/4 407/3/4
f 407/3/4 406/3/4 408/3/4
f 408/3/4 406/3/4 409/3/4
f 409/1/4 410/1/4 411/1/4
f 408/1/4 409/1/4 411/1/4
f 411/1/4 410/1/4 412/1/4
f 412/3/4 413/3/4 414/3/4
f 412/3/4 414/3/4 415/3/4
f 415/3/4 414/3/4 416/3/4
f 417/3/4 418/3/4 419/3/4
f 419/3/4 418/3/4 420/3/4
f 421/1/4 422/1/4 425/1/4
f 425/1/4 422/1/4 426/1/4
f 426/1/4 422/1/4 427/1/4
f 423/3/4 424/3/4 428/3/4
f 428/3/4 424/3/4 429/3/4
f 425/1/4 426/1/4 430/1/4
f 430/1/4 426/1/4 431/1/4
f 432/2/4 433/2/4 435/2/4
f 435/2/4 433/2/4 436/2/4
f 434/1/4 435/1/4 437/1/4
f 437/1/4 435/1/4 438/1/4
f 442/3/4 443/3/4 445/3/4
f 445/3/4 443/3/4 446/3/4
f 446/3/4 443/3/4 447/3/4
f 439/1/4 440/1/4 448/1/4
f 440/1/4 441/1/4 448/1/4
f 448/1/4 441/1/4 449/1/4
f 447/3/4 443/3/4 450/3/4
f 450/3/4 443/3/4 451/3/4
f 444/1/4 445/1/4 452/1/4
f 445/1/4 446/1/4 452/1/4
f 452/1/4 446/1/4 453/1/4
f 454/3/4 455/3/4 459/3/4
f 455/3/4 456/3/4 459/3/4
f 459/3/4 456/3/4 460/3/4
f 460/3/4 456/3/4 461/3/4
f 457/3/4 458/3/4 462/3/4
f 462/3/4 458/3/4 463/3/4
f 464/1/4 465/1/4 466/1/4
f 466/1/4 465/1/4 467/1/4
f 468/1/4 469/1/4 470/1/4
f 470/1/4 469/1/4 471/1/4
f 472/1/4 473/1/4 474/1/4
f 474/1/4 473/1/4 475/1/4
f 476/3/4 477/3/4 479/3/4
f 479/3/4 477/3/4 480/3/4
f 478/3/4 479/3/4 481/3/4
f 479/3/4 480/3/4 481/3/4
f 481/3/4 480/3/4 482/3/4
f 482/3/4 480/3/4 483/3/4
f 481/3/4 482/3/4 485/3/4
f 484/3/4 485/3/4 486/3/4
f 485/3/4 482/3/4 487/3/4
f 486/3/4 485/3/4 487/3/4
f 487/3/4 482/3/4 488/3/4
f 489/1/4 490/1/4 491/1/4
f 491/1/4 490/1/4 492/1/4
f 493/1/4 494/1/4 495/1/4
f 495/1/4 494/1/4 496/1/4
f 497/1/4 498/1/4 500/1/4
f 500/1/4 498/1/4 501/1/4
f 501/1/4 498/1/4 502/1/4
f 499/2/4 500/2/4 503/2/4
f 500/3/4 501/3/4 503/3/4
f 503/3/4 501/3/4 504/3/4
f 499/2/4 503/2/4 505/2/4
f 505/2/4 503/2/4 506/2/4
f 507/1/4 508/1/4 510/1/4
f 510/1/4 508/1/4 511/1/4
f 511/1/4 508/1/4 512/1/4
f 509/1/4 510/1/4 513/1/4
f 510/1/4 511/1/4 513/1/4
f 513/1/4 511/1/4 514/1/4
f 515/1/4 516/1/4 517/1/4
f 517/1/4 516/1/4 518/1/4
f 521/1/5 520/1/5 519/1/5
f 522/1/5 520/1/5 521/1/5
f 527/1/5 524/1/5 523/1/5
f 528/1/5 524/1/5 527/1/5
f 529/3/5 526/3/5 525/3/5
f 530/3/5 526/3/5 529/3/5
f 535/3/5 532/3/5 531/3/5
f 536/3/5 532/3/5 535/3/5
f 537/1/5 534/1/5 533/1/5
f 538/1/5 537/1/5 533/1/5
f 539/1/5 537/1/5 538/1/5
f 542/2/5 541/2/5 540/2/5
f 543/2/5 541/2/5 542/2/5
f 546/1/5 545/1/5 544/1/5
f 547/1/5 545/1/5 546/1/5
f 550/3/5 549/3/5 548/3/5
f 551/3/5 549/3/5 550/3/5
f 554/3/5 553/3/5 552/3/5
f 555/3/5 553/3/5 554/3/5
f 561/2/5 559/2/5 558/2/5
f 562/1/5 557/1/5 556/1/5
f 563/1/5 557/1/5 562/1/5
f 564/1/5 557/1/5 563/1/5
f 565/3/5 561/3/5 560/3/5
f 565/2/5 559/2/5 561/2/5
f 566/2/5 559/2/5 565/2/5
f 567/3/5 565/3/5 560/3/5
f 568/3/5 565/3/5 567/3/5
f 570/3/5 569/3/5 568/3/5
f 571/3/5 569/3/5 570/3/5
f 576/1/5 573/1/5 572/1/5
f 577/1/5 573/1/5 576/1/5
f 578/1/5 575/1/5 574/1/5
f 579/1/5 575/1/5 578/1/5
f 582/1/5 581/1/5 580/1/5
f 583/1/5 581/1/5 582/1/5
f 584/1/5 581/1/5 583/1/5
f 588/1/5 586/1/5 585/1/5
f 591/1/5 586/1/5 588/1/5
f 591/3/5 588/3/5 587/3/5
f 592/1/5 586/1/5 591/1/5
f 593/3/5 590/3/5 589/3/5
f 594/3/5 590/3/5 593/3/5
f 595/3/5 591/3/5 587/3/5
f 596/3/5 591/3/5 595/3/5
f 599/1/5 598/1/5 597/1/5
f 600/1/5 598/1/5 599/1/5
f 605/1/5 602/1/5 601/1/5
f 607/3/5 604/3/5 603/3/5
f 608/3/5 604/3/5 607/3/5
f 609/1/5 606/1/5 605/1/5
f 609/1/5 605/1/5 601/1/5
f 610/1/5 606/1/5 609/1/5
f 615/3/5 614/3/5 613/3/5
f 616/3/5 614/3/5 615/3/5
f 617/1/5 612/1/5 611/1/5
f 618/1/5 612/1/5 617/1/5
f 621/3/5 620/3/5 619/3/5
f 622/3/5 620/3/5 621/3/5
f 626/3/5 624/3/5 623/3/5
f 627/3/5 624/3/5 626/3/5
f 628/3/5 626/3/5 625/3/5
f 629/3/5 626/3/5 628/3/5
f 634/1/5 631/1/5 630/1/5
f 635/1/5 631/1/5 634/1/5
f 636/1/5 633/1/5 632/1/5
f 638/1/5 634/1/5 630/1/5
f 639/1/5 634/1/5 638/1/5
f 640/1/5 637/1/5 636/1/5
f 640/1/5 636/1/5 632/1/5
f 641/1/5 637/1/5 640/1/5
f 645/1/5 643/1/5 642/1/5
f 646/1/5 645/1/5 644/1/5
f 647/1/5 643/1/5 645/1/5
f 647/1/5 645/1/5 646/1/5
f 650/3/5 649/3/5 648/3/5
f 651/3/5 649/3/5 650/3/5
f 654/2/5 653/2/5 652/2/5
f 655/2/5 653/2/5 654/2/5
f 656/1/6 657/1/6 658/1/6
f 658/1/6 657/1/6 659/1/6
f 659/1/6 657/1/6 660/1/6
f 661/1/6 662/1/6 663/1/6
f 663/1/6 662/1/6 664/1/6
f 664/1/6 662/1/6 665/1/6
f 666/3/6 667/3/6 669/3/6
f 669/3/6 667/3/6 670/3/6
f 668/1/6 669/1/6 670/1/6
f 670/3/6 667/3/6 671/3/6
f 668/1/6 670/1/6 672/1/6
f 672/1/6 670/1/6 673/1/6
f 674/2/6 675/2/6 676/2/6
f 676/2/6 675/2/6 677/2/6
f 677/2/6 675/2/6 678/2/6
f 678/2/6 675/2/6 679/2/6
f 680/1/6 681/1/6 682/1/6
f 682/1/6 681/1/6 683/1/6
f 684/3/6 685/3/6 686/3/6
f 686/3/6 685/3/6 687/3/6
f 688/3/6 689/3/6 691/3/6
f 689/3/6 690/3/6 691/3/6
f 691/3/6 690/3/6 692/3/6
f 693/3/6 694/3/6 695/3/6
f 695/3/6 694/3/6 696/3/6
f 697/1/6 698/1/6 701/1/6
f 697/1/6 701/1/6 702/1/6
f 702/1/6 701/1/6 703/1/6
f 703/1/6 701/1/6 704/1/6
f 699/2/6 700/2/6 705/2/6
f 705/2/6 700/2/6 706/2/6
f 707/3/6 708/3/6 709/3/6
f 709/3/6 708/3/6 710/3/6
f 710/1/6 711/1/6 714/1/6
f 712/3/6 713/3/6 716/3/6
f 716/3/6 713/3/6 717/3/6
f 714/1/6 711/1/6 718/1/6
f 718/1/6 711/1/6 719/1/6
f 716/1/6 717/1/6 720/1/6
f 715/1/6 716/1/6 720/1/6
f 720/1/6 717/1/6 721/1/6
f 722/1/6 723/1/6 725/1/6
f 725/1/6 723/1/6 726/1/6
f 724/3/6 725/3/6 727/3/6
f 725/1/6 726/1/6 728/1/6
f 727/3/6 725/3/6 728/3/6
f 728/1/6 726/1/6 729/1/6
f 730/1/6 731/1/6 733/1/6
f 733/1/6 731/1/6 734/1/6
f 732/3/6 733/3/6 735/3/6
f 735/3/6 733/3/6 736/3/6
f 737/1/6 738/1/6 739/1/6
f 739/1/6 738/1/6 740/1/6
f 741/3/6 742/3/6 744/3/6
f 742/1/6 743/1/6 745/1/6
f 744/3/6 742/3/6 745/3/6
f 745/1/6 743/1/6 748/1/6
f 748/1/6 743/1/6 749/1/6
f 746/3/6 747/3/6 750/3/6
f 750/3/6 747/3/6 751/3/6
f 752/1/6 753/1/6 755/1/6
f 753/3/6 754/3/6 755/3/6
f 755/3/6 754/3/6 756/3/6
f 752/1/6 755/1/6 757/1/6
f 757/1/6 755/1/6 758/1/6
f 759/1/6 760/1/6 763/1/6
f 763/1/6 760/1/6 764/1/6
f 761/1/6 762/1/6 765/1/6
f 765/1/6 762/1/6 766/1/6
f 767/3/6 768/3/6 769/3/6
f 769/3/6 768/3/6 770/3/6
f 769/1/6 770/1/6 772/1/6
f 770/1/6 771/1/6 772/1/6
f 772/1/6 771/1/6 773/1/6
f 774/2/6 775/2/6 776/2/6
f 776/2/6 775/2/6 777/2/6
f 777/2/6 775/2/6 778/2/6
f 776/3/6 777/3/6 779/3/6
f 779/3/6 777/3/6 780/3/6
