# MagicaVoxel @ Ephtracy

# group
o 

# material
mtllib 0_4 feij.mtl
usemtl palette

# normals
vn -1 0 0
vn 1 0 0
vn 0 0 1
vn 0 0 -1
vn 0 -1 0
vn 0 1 0

# texcoords
vt 0.306641 0.5
vt 0.990234 0.5
vt 0.994141 0.5

# verts
v -0.3 1.1 0.1
v -0.3 1.1 0
v -0.3 1.2 0.1
v -0.3 1.2 0
v -0.3 2.7 0.1
v -0.3 2.7 0
v -0.3 2.8 0.1
v -0.3 2.8 0
v -0.2 1.2 0.1
v -0.2 1.2 0
v -0.2 2.7 0.1
v -0.2 2.7 0
v -0.1 1.4 0.2
v -0.1 1.4 0.1
v -0.1 1.4 0
v -0.1 1.4 -0.1
v -0.1 2.6 0.2
v -0.1 2.6 0.1
v -0.1 2.6 0
v -0.1 2.6 -0.1
v 0 1.5 0.3
v 0 1.5 0.2
v 0 1.5 -0.1
v 0 1.5 -0.2
v 0 1.7 0.3
v 0 1.7 0.2
v 0 1.7 -0.1
v 0 1.7 -0.2
v 0 1.9 0.3
v 0 1.9 0.2
v 0 1.9 -0.1
v 0 1.9 -0.2
v 0 2.1 0.3
v 0 2.1 0.2
v 0 2.1 -0.1
v 0 2.1 -0.2
v 0 2.3 0.3
v 0 2.3 0.2
v 0 2.3 -0.1
v 0 2.3 -0.2
v 0 2.5 0.3
v 0 2.5 0.2
v 0 2.5 -0.1
v 0 2.5 -0.2
v 0.2 1.5 0.1
v 0.2 1.5 0
v 0.2 1.7 0.1
v 0.2 1.7 0
v 0.2 2.3 0.1
v 0.2 2.3 0
v 0.2 2.5 0.1
v 0.2 2.5 0
v 0 1.1 0.1
v 0 1.1 0
v 0 1.3 0.1
v 0 1.3 0
v 0 1.5 0.1
v 0 1.5 0
v 0 1.7 0.1
v 0 1.7 0
v 0 2.3 0.1
v 0 2.3 0
v 0 2.5 0.1
v 0 2.5 0
v 0 2.7 0.1
v 0 2.7 0
v 0 2.8 0.1
v 0 2.8 0
v 0.2 1.3 0.1
v 0.2 1.3 0
v 0.2 1.4 0.2
v 0.2 1.4 0.1
v 0.2 1.4 0
v 0.2 1.4 -0.1
v 0.2 1.5 0.3
v 0.2 1.5 0.2
v 0.2 1.5 0.1
v 0.2 1.5 0
v 0.2 1.5 -0.1
v 0.2 1.5 -0.2
v 0.2 1.7 0.3
v 0.2 1.7 0.2
v 0.2 1.7 -0.1
v 0.2 1.7 -0.2
v 0.2 1.9 0.3
v 0.2 1.9 0.2
v 0.2 1.9 -0.1
v 0.2 1.9 -0.2
v 0.2 2.1 0.3
v 0.2 2.1 0.2
v 0.2 2.1 -0.1
v 0.2 2.1 -0.2
v 0.2 2.3 0.3
v 0.2 2.3 0.2
v 0.2 2.3 -0.1
v 0.2 2.3 -0.2
v 0.2 2.5 0.3
v 0.2 2.5 0.2
v 0.2 2.5 0.1
v 0.2 2.5 0
v 0.2 2.5 -0.1
v 0.2 2.5 -0.2
v 0.2 2.6 0.2
v 0.2 2.6 0.1
v 0.2 2.6 0
v 0.2 2.6 -0.1
v 0.2 2.7 0.1
v 0.2 2.7 0
v 0.3 1.4 0.1
v 0.3 1.4 0
v 0.3 1.5 0.2
v 0.3 1.5 0.1
v 0.3 1.5 0
v 0.3 1.5 -0.1
v 0.3 2.5 0.2
v 0.3 2.5 0.1
v 0.3 2.5 0
v 0.3 2.5 -0.1
v 0.3 2.6 0.1
v 0.3 2.6 0
v 0.4 1.5 0.1
v 0.4 1.5 0
v 0.4 2.5 0.1
v 0.4 2.5 0
v 0 1.5 0.3
v 0 1.7 0.3
v 0 1.9 0.3
v 0 2.1 0.3
v 0 2.3 0.3
v 0 2.5 0.3
v 0.2 1.5 0.3
v 0.2 1.7 0.3
v 0.2 1.9 0.3
v 0.2 2.1 0.3
v 0.2 2.3 0.3
v 0.2 2.5 0.3
v -0.1 1.4 0.2
v -0.1 2.6 0.2
v 0 1.5 0.2
v 0 1.7 0.2
v 0 1.9 0.2
v 0 2.1 0.2
v 0 2.3 0.2
v 0 2.5 0.2
v 0.2 1.4 0.2
v 0.2 1.5 0.2
v 0.2 1.7 0.2
v 0.2 1.9 0.2
v 0.2 2.1 0.2
v 0.2 2.3 0.2
v 0.2 2.5 0.2
v 0.2 2.6 0.2
v 0.3 1.5 0.2
v 0.3 2.5 0.2
v -0.3 1.1 0.1
v -0.3 1.2 0.1
v -0.3 2.7 0.1
v -0.3 2.8 0.1
v -0.2 1.2 0.1
v -0.2 2.7 0.1
v -0.1 1.4 0.1
v -0.1 2.6 0.1
v 0 1.1 0.1
v 0 1.3 0.1
v 0 2.7 0.1
v 0 2.8 0.1
v 0.2 1.3 0.1
v 0.2 1.4 0.1
v 0.2 1.5 0.1
v 0.2 2.5 0.1
v 0.2 2.6 0.1
v 0.2 2.7 0.1
v 0.3 1.4 0.1
v 0.3 1.5 0.1
v 0.3 2.5 0.1
v 0.3 2.6 0.1
v 0.4 1.5 0.1
v 0.4 2.5 0.1
v 0 1.5 0
v 0 1.7 0
v 0 2.3 0
v 0 2.5 0
v 0.2 1.5 0
v 0.2 1.7 0
v 0.2 2.3 0
v 0.2 2.5 0
v 0 1.5 0.1
v 0 1.7 0.1
v 0 2.3 0.1
v 0 2.5 0.1
v 0.2 1.5 0.1
v 0.2 1.7 0.1
v 0.2 2.3 0.1
v 0.2 2.5 0.1
v -0.3 1.1 0
v -0.3 1.2 0
v -0.3 2.7 0
v -0.3 2.8 0
v -0.2 1.2 0
v -0.2 2.7 0
v -0.1 1.4 0
v -0.1 2.6 0
v 0 1.1 0
v 0 1.3 0
v 0 2.7 0
v 0 2.8 0
v 0.2 1.3 0
v 0.2 1.4 0
v 0.2 1.5 0
v 0.2 2.5 0
v 0.2 2.6 0
v 0.2 2.7 0
v 0.3 1.4 0
v 0.3 1.5 0
v 0.3 2.5 0
v 0.3 2.6 0
v 0.4 1.5 0
v 0.4 2.5 0
v -0.1 1.4 -0.1
v -0.1 2.6 -0.1
v 0 1.5 -0.1
v 0 1.7 -0.1
v 0 1.9 -0.1
v 0 2.1 -0.1
v 0 2.3 -0.1
v 0 2.5 -0.1
v 0.2 1.4 -0.1
v 0.2 1.5 -0.1
v 0.2 1.7 -0.1
v 0.2 1.9 -0.1
v 0.2 2.1 -0.1
v 0.2 2.3 -0.1
v 0.2 2.5 -0.1
v 0.2 2.6 -0.1
v 0.3 1.5 -0.1
v 0.3 2.5 -0.1
v 0 1.5 -0.2
v 0 1.7 -0.2
v 0 1.9 -0.2
v 0 2.1 -0.2
v 0 2.3 -0.2
v 0 2.5 -0.2
v 0.2 1.5 -0.2
v 0.2 1.7 -0.2
v 0.2 1.9 -0.2
v 0.2 2.1 -0.2
v 0.2 2.3 -0.2
v 0.2 2.5 -0.2
v -0.3 1.1 0.1
v 0 1.1 0.1
v -0.3 1.1 0
v 0 1.1 0
v 0 1.3 0.1
v 0.2 1.3 0.1
v 0 1.3 0
v 0.2 1.3 0
v -0.1 1.4 0.2
v 0.2 1.4 0.2
v -0.1 1.4 0.1
v 0.2 1.4 0.1
v 0.3 1.4 0.1
v -0.1 1.4 0
v 0.2 1.4 0
v 0.3 1.4 0
v -0.1 1.4 -0.1
v 0.2 1.4 -0.1
v 0 1.5 0.3
v 0.2 1.5 0.3
v 0 1.5 0.2
v 0.2 1.5 0.2
v 0.3 1.5 0.2
v 0.2 1.5 0.1
v 0.3 1.5 0.1
v 0.4 1.5 0.1
v 0.2 1.5 0
v 0.3 1.5 0
v 0.4 1.5 0
v 0 1.5 -0.1
v 0.2 1.5 -0.1
v 0.3 1.5 -0.1
v 0 1.5 -0.2
v 0.2 1.5 -0.2
v 0 1.7 0.1
v 0.2 1.7 0.1
v 0 1.7 0
v 0.2 1.7 0
v 0 1.9 0.3
v 0.2 1.9 0.3
v 0 1.9 0.2
v 0.2 1.9 0.2
v 0 1.9 -0.1
v 0.2 1.9 -0.1
v 0 1.9 -0.2
v 0.2 1.9 -0.2
v 0 2.3 0.3
v 0.2 2.3 0.3
v 0 2.3 0.2
v 0.2 2.3 0.2
v 0 2.3 -0.1
v 0.2 2.3 -0.1
v 0 2.3 -0.2
v 0.2 2.3 -0.2
v 0 2.5 0.1
v 0.2 2.5 0.1
v 0 2.5 0
v 0.2 2.5 0
v -0.3 2.7 0.1
v -0.2 2.7 0.1
v -0.3 2.7 0
v -0.2 2.7 0
v -0.3 1.2 0.1
v -0.2 1.2 0.1
v -0.3 1.2 0
v -0.2 1.2 0
v 0 1.5 0.1
v 0.2 1.5 0.1
v 0 1.5 0
v 0.2 1.5 0
v 0 1.7 0.3
v 0.2 1.7 0.3
v 0 1.7 0.2
v 0.2 1.7 0.2
v 0 1.7 -0.1
v 0.2 1.7 -0.1
v 0 1.7 -0.2
v 0.2 1.7 -0.2
v 0 2.1 0.3
v 0.2 2.1 0.3
v 0 2.1 0.2
v 0.2 2.1 0.2
v 0 2.1 -0.1
v 0.2 2.1 -0.1
v 0 2.1 -0.2
v 0.2 2.1 -0.2
v 0 2.3 0.1
v 0.2 2.3 0.1
v 0 2.3 0
v 0.2 2.3 0
v 0 2.5 0.3
v 0.2 2.5 0.3
v 0 2.5 0.2
v 0.2 2.5 0.2
v 0.3 2.5 0.2
v 0.2 2.5 0.1
v 0.3 2.5 0.1
v 0.4 2.5 0.1
v 0.2 2.5 0
v 0.3 2.5 0
v 0.4 2.5 0
v 0 2.5 -0.1
v 0.2 2.5 -0.1
v 0.3 2.5 -0.1
v 0 2.5 -0.2
v 0.2 2.5 -0.2
v -0.1 2.6 0.2
v 0.2 2.6 0.2
v -0.1 2.6 0.1
v 0.2 2.6 0.1
v 0.3 2.6 0.1
v -0.1 2.6 0
v 0.2 2.6 0
v 0.3 2.6 0
v -0.1 2.6 -0.1
v 0.2 2.6 -0.1
v 0 2.7 0.1
v 0.2 2.7 0.1
v 0 2.7 0
v 0.2 2.7 0
v -0.3 2.8 0.1
v 0 2.8 0.1
v -0.3 2.8 0
v 0 2.8 0

# faces
f 3/3/1 2/3/1 1/3/1
f 4/3/1 2/3/1 3/3/1
f 7/3/1 6/3/1 5/3/1
f 8/3/1 6/3/1 7/3/1
f 11/3/1 10/3/1 9/3/1
f 12/3/1 10/3/1 11/3/1
f 17/3/1 14/3/1 13/3/1
f 18/3/1 14/3/1 17/3/1
f 19/3/1 16/3/1 15/3/1
f 20/3/1 16/3/1 19/3/1
f 25/2/1 22/2/1 21/2/1
f 26/2/1 22/2/1 25/2/1
f 27/2/1 24/2/1 23/2/1
f 28/2/1 24/2/1 27/2/1
f 33/2/1 30/2/1 29/2/1
f 34/2/1 30/2/1 33/2/1
f 35/2/1 32/2/1 31/2/1
f 36/2/1 32/2/1 35/2/1
f 41/2/1 38/2/1 37/2/1
f 42/2/1 38/2/1 41/2/1
f 43/2/1 40/2/1 39/2/1
f 44/2/1 40/2/1 43/2/1
f 47/3/1 46/3/1 45/3/1
f 48/3/1 46/3/1 47/3/1
f 51/3/1 50/3/1 49/3/1
f 52/3/1 50/3/1 51/3/1
f 53/3/2 54/3/2 55/3/2
f 55/3/2 54/3/2 56/3/2
f 57/3/2 58/3/2 59/3/2
f 59/3/2 58/3/2 60/3/2
f 61/3/2 62/3/2 63/3/2
f 63/3/2 62/3/2 64/3/2
f 65/3/2 66/3/2 67/3/2
f 67/3/2 66/3/2 68/3/2
f 69/3/2 70/3/2 72/3/2
f 72/3/2 70/3/2 73/3/2
f 71/3/2 72/3/2 76/3/2
f 76/3/2 72/3/2 77/3/2
f 73/3/2 74/3/2 78/3/2
f 78/3/2 74/3/2 79/3/2
f 75/2/2 76/2/2 81/2/2
f 81/2/2 76/2/2 82/2/2
f 79/2/2 80/2/2 83/2/2
f 83/2/2 80/2/2 84/2/2
f 85/2/2 86/2/2 89/2/2
f 89/2/2 86/2/2 90/2/2
f 87/2/2 88/2/2 91/2/2
f 91/2/2 88/2/2 92/2/2
f 93/2/2 94/2/2 97/2/2
f 97/2/2 94/2/2 98/2/2
f 95/2/2 96/2/2 101/2/2
f 101/2/2 96/2/2 102/2/2
f 98/3/2 99/3/2 103/3/2
f 103/3/2 99/3/2 104/3/2
f 100/3/2 101/3/2 105/3/2
f 105/3/2 101/3/2 106/3/2
f 104/3/2 105/3/2 107/3/2
f 107/3/2 105/3/2 108/3/2
f 109/3/2 110/3/2 112/3/2
f 112/3/2 110/3/2 113/3/2
f 111/3/2 112/3/2 115/3/2
f 115/3/2 112/3/2 116/3/2
f 113/3/2 114/3/2 117/3/2
f 117/3/2 114/3/2 118/3/2
f 116/3/2 117/3/2 119/3/2
f 119/3/2 117/3/2 120/3/2
f 121/3/2 122/3/2 123/3/2
f 123/3/2 122/3/2 124/3/2
f 131/2/3 126/2/3 125/2/3
f 132/2/3 126/2/3 131/2/3
f 133/2/3 128/2/3 127/2/3
f 134/2/3 128/2/3 133/2/3
f 135/2/3 130/2/3 129/2/3
f 136/2/3 130/2/3 135/2/3
f 139/3/3 138/3/3 137/3/3
f 140/3/3 138/3/3 139/3/3
f 141/3/3 138/3/3 140/3/3
f 142/3/3 138/3/3 141/3/3
f 143/3/3 138/3/3 142/3/3
f 144/3/3 138/3/3 143/3/3
f 145/3/3 139/3/3 137/3/3
f 146/3/3 139/3/3 145/3/3
f 147/3/3 141/3/3 140/3/3
f 148/3/3 141/3/3 147/3/3
f 149/3/3 143/3/3 142/3/3
f 150/3/3 143/3/3 149/3/3
f 151/3/3 138/3/3 144/3/3
f 152/3/3 138/3/3 151/3/3
f 153/3/3 150/3/3 149/3/3
f 153/3/3 148/3/3 147/3/3
f 153/3/3 151/3/3 150/3/3
f 153/3/3 149/3/3 148/3/3
f 153/3/3 147/3/3 146/3/3
f 154/3/3 151/3/3 153/3/3
f 159/3/3 156/3/3 155/3/3
f 160/3/3 158/3/3 157/3/3
f 161/3/3 160/3/3 159/3/3
f 162/3/3 160/3/3 161/3/3
f 163/3/3 159/3/3 155/3/3
f 163/3/3 161/3/3 159/3/3
f 164/3/3 161/3/3 163/3/3
f 165/3/3 160/3/3 162/3/3
f 165/3/3 158/3/3 160/3/3
f 166/3/3 158/3/3 165/3/3
f 167/3/3 161/3/3 164/3/3
f 168/3/3 161/3/3 167/3/3
f 171/3/3 165/3/3 162/3/3
f 172/3/3 165/3/3 171/3/3
f 173/3/3 169/3/3 168/3/3
f 174/3/3 169/3/3 173/3/3
f 175/3/3 171/3/3 170/3/3
f 176/3/3 171/3/3 175/3/3
f 177/3/3 175/3/3 174/3/3
f 178/3/3 175/3/3 177/3/3
f 183/2/3 180/2/3 179/2/3
f 184/2/3 180/2/3 183/2/3
f 185/2/3 182/2/3 181/2/3
f 186/2/3 182/2/3 185/2/3
f 187/2/4 188/2/4 191/2/4
f 191/2/4 188/2/4 192/2/4
f 189/2/4 190/2/4 193/2/4
f 193/2/4 190/2/4 194/2/4
f 195/3/4 196/3/4 199/3/4
f 197/3/4 198/3/4 200/3/4
f 199/3/4 200/3/4 201/3/4
f 201/3/4 200/3/4 202/3/4
f 195/3/4 199/3/4 203/3/4
f 199/3/4 201/3/4 203/3/4
f 203/3/4 201/3/4 204/3/4
f 202/3/4 200/3/4 205/3/4
f 200/3/4 198/3/4 205/3/4
f 205/3/4 198/3/4 206/3/4
f 204/3/4 201/3/4 207/3/4
f 207/3/4 201/3/4 208/3/4
f 202/3/4 205/3/4 211/3/4
f 211/3/4 205/3/4 212/3/4
f 208/3/4 209/3/4 213/3/4
f 213/3/4 209/3/4 214/3/4
f 210/3/4 211/3/4 215/3/4
f 215/3/4 211/3/4 216/3/4
f 214/3/4 215/3/4 217/3/4
f 217/3/4 215/3/4 218/3/4
f 219/3/4 220/3/4 221/3/4
f 221/3/4 220/3/4 222/3/4
f 222/3/4 220/3/4 223/3/4
f 223/3/4 220/3/4 224/3/4
f 224/3/4 220/3/4 225/3/4
f 225/3/4 220/3/4 226/3/4
f 219/3/4 221/3/4 227/3/4
f 227/3/4 221/3/4 228/3/4
f 222/3/4 223/3/4 229/3/4
f 229/3/4 223/3/4 230/3/4
f 224/3/4 225/3/4 231/3/4
f 231/3/4 225/3/4 232/3/4
f 226/3/4 220/3/4 233/3/4
f 233/3/4 220/3/4 234/3/4
f 231/3/4 232/3/4 235/3/4
f 229/3/4 230/3/4 235/3/4
f 232/3/4 233/3/4 235/3/4
f 230/3/4 231/3/4 235/3/4
f 228/3/4 229/3/4 235/3/4
f 235/3/4 233/3/4 236/3/4
f 237/2/4 238/2/4 243/2/4
f 243/2/4 238/2/4 244/2/4
f 239/2/4 240/2/4 245/2/4
f 245/2/4 240/2/4 246/2/4
f 241/2/4 242/2/4 247/2/4
f 247/2/4 242/2/4 248/2/4
f 251/3/5 250/3/5 249/3/5
f 252/3/5 250/3/5 251/3/5
f 255/3/5 254/3/5 253/3/5
f 256/3/5 254/3/5 255/3/5
f 259/3/5 258/3/5 257/3/5
f 260/3/5 258/3/5 259/3/5
f 263/3/5 261/3/5 260/3/5
f 264/3/5 261/3/5 263/3/5
f 265/3/5 263/3/5 262/3/5
f 266/3/5 263/3/5 265/3/5
f 269/2/5 268/2/5 267/2/5
f 270/2/5 268/2/5 269/2/5
f 272/3/5 271/3/5 270/3/5
f 273/3/5 271/3/5 272/3/5
f 276/3/5 274/3/5 273/3/5
f 277/3/5 274/3/5 276/3/5
f 279/3/5 276/3/5 275/3/5
f 280/3/5 276/3/5 279/3/5
f 281/2/5 279/2/5 278/2/5
f 282/2/5 279/2/5 281/2/5
f 285/3/5 284/3/5 283/3/5
f 286/3/5 284/3/5 285/3/5
f 289/2/5 288/2/5 287/2/5
f 290/2/5 288/2/5 289/2/5
f 293/2/5 292/2/5 291/2/5
f 294/2/5 292/2/5 293/2/5
f 297/2/5 296/2/5 295/2/5
f 298/2/5 296/2/5 297/2/5
f 301/2/5 300/2/5 299/2/5
f 302/2/5 300/2/5 301/2/5
f 305/3/5 304/3/5 303/3/5
f 306/3/5 304/3/5 305/3/5
f 309/3/5 308/3/5 307/3/5
f 310/3/5 308/3/5 309/3/5
f 311/3/6 312/3/6 313/3/6
f 313/3/6 312/3/6 314/3/6
f 315/3/6 316/3/6 317/3/6
f 317/3/6 316/3/6 318/3/6
f 319/2/6 320/2/6 321/2/6
f 321/2/6 320/2/6 322/2/6
f 323/2/6 324/2/6 325/2/6
f 325/2/6 324/2/6 326/2/6
f 327/2/6 328/2/6 329/2/6
f 329/2/6 328/2/6 330/2/6
f 331/2/6 332/2/6 333/2/6
f 333/2/6 332/2/6 334/2/6
f 335/3/6 336/3/6 337/3/6
f 337/3/6 336/3/6 338/3/6
f 339/2/6 340/2/6 341/2/6
f 341/2/6 340/2/6 342/2/6
f 342/3/6 343/3/6 344/3/6
f 344/3/6 343/3/6 345/3/6
f 345/3/6 346/3/6 348/3/6
f 348/3/6 346/3/6 349/3/6
f 347/3/6 348/3/6 351/3/6
f 351/3/6 348/3/6 352/3/6
f 350/2/6 351/2/6 353/2/6
f 353/2/6 351/2/6 354/2/6
f 355/3/6 356/3/6 357/3/6
f 357/3/6 356/3/6 358/3/6
f 358/3/6 359/3/6 361/3/6
f 361/3/6 359/3/6 362/3/6
f 360/3/6 361/3/6 363/3/6
f 363/3/6 361/3/6 364/3/6
f 365/3/6 366/3/6 367/3/6
f 367/3/6 366/3/6 368/3/6
f 369/3/6 370/3/6 371/3/6
f 371/3/6 370/3/6 372/3/6
