# MagicaVoxel @ Ephtracy

# group
o 

# material
mtllib 2_4 grav.mtl
usemtl palette

# normals
vn -1 0 0
vn 1 0 0
vn 0 0 1
vn 0 0 -1
vn 0 -1 0
vn 0 1 0

# texcoords
vt 0.966797 0.5
vt 0.982422 0.5
vt 0.986328 0.5
vt 0.990234 0.5
vt 0.994141 0.5

# verts
v -0.8 2.1 0.4
v -0.8 2.1 0.2
v -0.8 2.3 0.4
v -0.8 2.3 0.2
v -0.8 2.5 0.1
v -0.8 2.5 -0.1
v -0.8 2.7 0.1
v -0.8 2.7 -0.1
v -0.6 1.7 0.2
v -0.6 1.7 -5.96046e-08
v -0.6 1.9 0.4
v -0.6 1.9 0.2
v -0.6 1.9 -5.96046e-08
v -0.6 1.9 -0.2
v -0.6 2.1 0.4
v -0.6 2.1 0.2
v -0.6 2.1 -5.96046e-08
v -0.6 2.1 -0.2
v -0.6 2.3 0.4
v -0.6 2.3 0.2
v -0.6 2.5 0.4
v -0.6 2.5 0.2
v -0.6 2.5 0.1
v -0.6 2.5 -0.1
v -0.6 2.5 -0.2
v -0.6 2.7 0.4
v -0.6 2.7 0.1
v -0.6 2.7 -0.1
v -0.6 2.7 -0.2
v -0.6 2.9 0.4
v -0.6 2.9 -0.2
v -0.4 1.7 0.4
v -0.4 1.7 0.2
v -0.4 1.7 -5.96046e-08
v -0.4 1.7 -0.2
v -0.4 1.9 0.6
v -0.4 1.9 0.4
v -0.4 1.9 0.2
v -0.4 1.9 -5.96046e-08
v -0.4 1.9 -0.2
v -0.4 1.9 -0.4
v -0.4 2.1 0.6
v -0.4 2.1 0.4
v -0.4 2.1 -0.2
v -0.4 2.3 0.4
v -0.4 2.5 0.6
v -0.4 2.5 0.4
v -0.4 2.5 -0.2
v -0.4 2.5 -0.4
v -0.4 2.7 0.6
v -0.4 2.7 0.4
v -0.4 2.7 -0.2
v -0.4 2.7 -0.4
v -0.4 2.9 0.6
v -0.4 2.9 0.4
v -0.4 2.9 -5.96046e-08
v -0.4 2.9 -0.2
v -0.4 2.9 -0.4
v -0.4 3.1 0.6
v -0.4 3.1 0.4
v -0.4 3.1 -5.96046e-08
v -0.4 3.1 -0.2
v -0.4 3.3 0.4
v -0.4 3.3 -0.2
v -0.2 2.3 -0.4
v -0.2 2.3 -0.6
v -0.2 2.5 -0.4
v -0.2 2.5 -0.6
v -0.2 2.9 -0.2
v -0.2 2.9 -0.4
v -0.2 3.1 -0.2
v -0.2 3.1 -0.4
v -0.2 3.3 0.2
v -0.2 3.3 -5.96046e-08
v -0.2 3.5 0.2
v -0.2 3.5 -5.96046e-08
v 5.96046e-08 1.7 0.6
v 5.96046e-08 1.7 0.4
v 5.96046e-08 1.9 0.6
v 5.96046e-08 1.9 0.4
v 5.96046e-08 2.5 0.8
v 5.96046e-08 2.5 0.6
v 5.96046e-08 2.7 0.8
v 5.96046e-08 2.7 0.6
v -0.2 2.9 0.6
v -0.2 2.9 0.4
v -0.2 3.1 0.6
v -0.2 3.1 0.4
v 5.96046e-08 2.3 -0.4
v 5.96046e-08 2.3 -0.6
v 5.96046e-08 2.5 -0.4
v 5.96046e-08 2.5 -0.6
v 5.96046e-08 2.9 -0.2
v 5.96046e-08 2.9 -0.4
v 5.96046e-08 3.1 -0.2
v 5.96046e-08 3.1 -0.4
v 5.96046e-08 3.3 0.2
v 5.96046e-08 3.3 -5.96046e-08
v 5.96046e-08 3.5 0.2
v 5.96046e-08 3.5 -5.96046e-08
v 0.2 1.7 0.6
v 0.2 1.7 0.4
v 0.2 1.7 0.2
v 0.2 1.7 -5.96046e-08
v 0.2 1.7 -0.2
v 0.2 1.9 0.6
v 0.2 1.9 0.4
v 0.2 1.9 0.2
v 0.2 1.9 -5.96046e-08
v 0.2 1.9 -0.2
v 0.2 1.9 -0.4
v 0.2 2.1 0.6
v 0.2 2.1 0.4
v 0.2 2.1 -0.2
v 0.2 2.3 0.6
v 0.2 2.3 0.4
v 0.2 2.3 -0.2
v 0.2 2.3 -0.4
v 0.2 2.5 0.8
v 0.2 2.5 0.6
v 0.2 2.5 0.4
v 0.2 2.5 -0.2
v 0.2 2.5 -0.4
v 0.2 2.7 0.8
v 0.2 2.7 0.6
v 0.2 2.7 0.4
v 0.2 2.7 -0.2
v 0.2 2.7 -0.4
v 0.2 2.9 0.6
v 0.2 2.9 0.4
v 0.2 2.9 -0.2
v 0.2 2.9 -0.4
v 0.2 3.3 0.4
v 0.2 3.3 -0.2
v 0.4 1.9 0.4
v 0.4 1.9 0.2
v 0.4 1.9 -5.96046e-08
v 0.4 1.9 -0.2
v 0.4 2.1 0.2
v 0.4 2.1 -5.96046e-08
v 0.4 2.1 -0.2
v 0.4 2.3 -5.96046e-08
v 0.4 2.3 -0.2
v 0.4 2.5 0.4
v 0.4 2.5 0.2
v 0.4 2.5 -0.2
v 0.4 2.7 0.4
v 0.4 2.7 0.2
v 0.4 2.7 -0.2
v 0.4 2.9 0.4
v 0.4 2.9 -0.2
v 0.6 1.9 0.2
v 0.6 1.9 -5.96046e-08
v 0.6 2.1 0.2
v 0.6 2.1 -5.96046e-08
v 0.6 2.5 0.4
v 0.6 2.5 0.2
v 0.6 2.7 0.4
v 0.6 2.7 0.2
v 5.96046e-08 2.5 0.8
v 5.96046e-08 2.7 0.8
v 0.2 2.5 0.8
v 0.2 2.7 0.8
v -0.4 1.9 0.6
v -0.4 2.1 0.6
v -0.4 2.5 0.6
v -0.4 2.7 0.6
v -0.4 2.9 0.6
v -0.4 3.1 0.6
v -0.2 1.9 0.6
v -0.2 2.1 0.6
v -0.2 2.7 0.6
v -0.2 2.9 0.6
v -0.2 3.1 0.6
v 5.96046e-08 1.7 0.6
v 5.96046e-08 1.9 0.6
v 5.96046e-08 2.1 0.6
v 5.96046e-08 2.3 0.6
v 5.96046e-08 2.5 0.6
v 5.96046e-08 2.7 0.6
v 0.2 1.7 0.6
v 0.2 1.9 0.6
v 0.2 2.1 0.6
v 0.2 2.3 0.6
v 0.2 2.5 0.6
v 0.2 2.7 0.6
v 0.2 2.9 0.6
v -0.8 2.1 0.4
v -0.8 2.3 0.4
v -0.6 1.9 0.4
v -0.6 2.1 0.4
v -0.6 2.3 0.4
v -0.6 2.5 0.4
v -0.6 2.7 0.4
v -0.6 2.9 0.4
v -0.4 1.7 0.4
v -0.4 1.9 0.4
v -0.4 2.1 0.4
v -0.4 2.3 0.4
v -0.4 2.5 0.4
v -0.4 2.7 0.4
v -0.4 2.9 0.4
v -0.4 3.1 0.4
v -0.4 3.3 0.4
v -0.2 1.9 0.4
v -0.2 2.9 0.4
v -0.2 3.1 0.4
v 5.96046e-08 1.7 0.4
v 5.96046e-08 1.9 0.4
v 0.2 1.9 0.4
v 0.2 2.1 0.4
v 0.2 2.3 0.4
v 0.2 2.5 0.4
v 0.2 2.7 0.4
v 0.2 2.9 0.4
v 0.2 3.3 0.4
v 0.4 1.9 0.4
v 0.4 2.5 0.4
v 0.4 2.7 0.4
v 0.4 2.9 0.4
v 0.6 2.5 0.4
v 0.6 2.7 0.4
v -0.6 1.7 0.2
v -0.6 1.9 0.2
v -0.4 1.7 0.2
v -0.4 1.9 0.2
v -0.2 3.3 0.2
v -0.2 3.5 0.2
v 5.96046e-08 3.3 0.2
v 5.96046e-08 3.5 0.2
v 0.4 1.9 0.2
v 0.4 2.1 0.2
v 0.6 1.9 0.2
v 0.6 2.1 0.2
v -0.8 2.5 0.1
v -0.8 2.7 0.1
v -0.6 2.5 0.1
v -0.6 2.7 0.1
v -0.8 2.1 0.2
v -0.8 2.3 0.2
v -0.6 2.1 0.2
v -0.6 2.3 0.2
v 0.4 2.5 0.2
v 0.4 2.7 0.2
v 0.6 2.5 0.2
v 0.6 2.7 0.2
v -0.6 1.7 -5.96046e-08
v -0.6 1.9 -5.96046e-08
v -0.4 1.7 -5.96046e-08
v -0.4 1.9 -5.96046e-08
v -0.2 3.3 -5.96046e-08
v -0.2 3.5 -5.96046e-08
v 5.96046e-08 3.3 -5.96046e-08
v 5.96046e-08 3.5 -5.96046e-08
v 0.4 1.9 -5.96046e-08
v 0.4 2.1 -5.96046e-08
v 0.6 1.9 -5.96046e-08
v 0.6 2.1 -5.96046e-08
v -0.8 2.5 -0.1
v -0.8 2.7 -0.1
v -0.6 2.5 -0.1
v -0.6 2.7 -0.1
v -0.6 1.9 -0.2
v -0.6 2.1 -0.2
v -0.6 2.5 -0.2
v -0.6 2.7 -0.2
v -0.6 2.9 -0.2
v -0.4 1.7 -0.2
v -0.4 1.9 -0.2
v -0.4 2.1 -0.2
v -0.4 2.5 -0.2
v -0.4 2.7 -0.2
v -0.4 2.9 -0.2
v -0.4 3.1 -0.2
v -0.4 3.3 -0.2
v -0.2 1.9 -0.2
v -0.2 2.9 -0.2
v -0.2 3.1 -0.2
v 5.96046e-08 1.9 -0.2
v 5.96046e-08 2.9 -0.2
v 5.96046e-08 3.1 -0.2
v 0.2 1.7 -0.2
v 0.2 1.9 -0.2
v 0.2 2.1 -0.2
v 0.2 2.3 -0.2
v 0.2 2.5 -0.2
v 0.2 2.7 -0.2
v 0.2 2.9 -0.2
v 0.2 3.3 -0.2
v 0.4 1.9 -0.2
v 0.4 2.1 -0.2
v 0.4 2.3 -0.2
v 0.4 2.5 -0.2
v 0.4 2.7 -0.2
v 0.4 2.9 -0.2
v -0.4 1.9 -0.4
v -0.4 2.5 -0.4
v -0.4 2.7 -0.4
v -0.4 2.9 -0.4
v -0.2 1.9 -0.4
v -0.2 2.1 -0.4
v -0.2 2.3 -0.4
v -0.2 2.5 -0.4
v -0.2 2.7 -0.4
v -0.2 2.9 -0.4
v -0.2 3.1 -0.4
v 5.96046e-08 1.9 -0.4
v 5.96046e-08 2.1 -0.4
v 5.96046e-08 2.3 -0.4
v 5.96046e-08 2.5 -0.4
v 5.96046e-08 2.7 -0.4
v 5.96046e-08 2.9 -0.4
v 5.96046e-08 3.1 -0.4
v 0.2 1.9 -0.4
v 0.2 2.3 -0.4
v 0.2 2.5 -0.4
v 0.2 2.7 -0.4
v 0.2 2.9 -0.4
v -0.2 2.3 -0.6
v -0.2 2.5 -0.6
v 5.96046e-08 2.3 -0.6
v 5.96046e-08 2.5 -0.6
v 5.96046e-08 1.7 0.6
v 0.2 1.7 0.6
v -0.4 1.7 0.4
v 5.96046e-08 1.7 0.4
v 0.2 1.7 0.4
v -0.6 1.7 0.2
v -0.4 1.7 0.2
v 5.96046e-08 1.7 0.2
v 0.2 1.7 0.2
v -0.6 1.7 -5.96046e-08
v -0.4 1.7 -5.96046e-08
v 5.96046e-08 1.7 -5.96046e-08
v 0.2 1.7 -5.96046e-08
v -0.4 1.7 -0.2
v 0.2 1.7 -0.2
v -0.4 1.9 0.6
v -0.2 1.9 0.6
v 5.96046e-08 1.9 0.6
v -0.6 1.9 0.4
v -0.4 1.9 0.4
v -0.2 1.9 0.4
v 5.96046e-08 1.9 0.4
v 0.2 1.9 0.4
v 0.4 1.9 0.4
v -0.6 1.9 0.2
v -0.4 1.9 0.2
v 0.2 1.9 0.2
v 0.4 1.9 0.2
v 0.6 1.9 0.2
v -0.6 1.9 -5.96046e-08
v -0.4 1.9 -5.96046e-08
v 0.2 1.9 -5.96046e-08
v 0.4 1.9 -5.96046e-08
v 0.6 1.9 -5.96046e-08
v -0.6 1.9 -0.2
v -0.4 1.9 -0.2
v -0.2 1.9 -0.2
v 5.96046e-08 1.9 -0.2
v 0.2 1.9 -0.2
v 0.4 1.9 -0.2
v -0.4 1.9 -0.4
v -0.2 1.9 -0.4
v 5.96046e-08 1.9 -0.4
v 0.2 1.9 -0.4
v -0.8 2.1 0.4
v -0.6 2.1 0.4
v -0.8 2.1 0.2
v -0.6 2.1 0.2
v -0.2 2.3 -0.4
v 5.96046e-08 2.3 -0.4
v -0.2 2.3 -0.6
v 5.96046e-08 2.3 -0.6
v 5.96046e-08 2.5 0.8
v 0.2 2.5 0.8
v 5.96046e-08 2.5 0.6
v 0.2 2.5 0.6
v 0.4 2.5 0.4
v 0.6 2.5 0.4
v 0.4 2.5 0.2
v 0.6 2.5 0.2
v -0.8 2.5 0.1
v -0.6 2.5 0.1
v -0.8 2.5 -0.1
v -0.6 2.5 -0.1
v 0.4 2.1 0.2
v 0.6 2.1 0.2
v 0.4 2.1 -5.96046e-08
v 0.6 2.1 -5.96046e-08
v -0.8 2.3 0.4
v -0.6 2.3 0.4
v -0.8 2.3 0.2
v -0.6 2.3 0.2
v -0.2 2.5 -0.4
v 5.96046e-08 2.5 -0.4
v -0.2 2.5 -0.6
v 5.96046e-08 2.5 -0.6
v 5.96046e-08 2.7 0.8
v 0.2 2.7 0.8
v 5.96046e-08 2.7 0.6
v 0.2 2.7 0.6
v 0.4 2.7 0.4
v 0.6 2.7 0.4
v 0.4 2.7 0.2
v 0.6 2.7 0.2
v -0.8 2.7 0.1
v -0.6 2.7 0.1
v -0.8 2.7 -0.1
v -0.6 2.7 -0.1
v -0.2 2.9 0.6
v 0.2 2.9 0.6
v -0.6 2.9 0.4
v -0.4 2.9 0.4
v -0.2 2.9 0.4
v 0.2 2.9 0.4
v 0.4 2.9 0.4
v -0.4 2.9 -5.96046e-08
v -0.6 2.9 -0.2
v -0.4 2.9 -0.2
v -0.2 2.9 -0.2
v 5.96046e-08 2.9 -0.2
v 0.2 2.9 -0.2
v 0.4 2.9 -0.2
v -0.4 2.9 -0.4
v -0.2 2.9 -0.4
v 5.96046e-08 2.9 -0.4
v 0.2 2.9 -0.4
v -0.4 3.1 0.6
v -0.2 3.1 0.6
v -0.4 3.1 0.4
v -0.2 3.1 0.4
v -0.2 3.1 -0.2
v 5.96046e-08 3.1 -0.2
v -0.2 3.1 -0.4
v 5.96046e-08 3.1 -0.4
v -0.4 3.3 0.4
v 0.2 3.3 0.4
v -0.2 3.3 0.2
v 5.96046e-08 3.3 0.2
v -0.2 3.3 -5.96046e-08
v 5.96046e-08 3.3 -5.96046e-08
v -0.4 3.3 -0.2
v 0.2 3.3 -0.2
v -0.2 3.5 0.2
v 5.96046e-08 3.5 0.2
v -0.2 3.5 -5.96046e-08
v 5.96046e-08 3.5 -5.96046e-08

# faces
f 3/1/1 2/1/1 1/1/1
f 4/1/1 2/1/1 3/1/1
f 7/1/1 6/1/1 5/1/1
f 8/1/1 6/1/1 7/1/1
f 12/1/1 10/1/1 9/1/1
f 13/1/1 10/1/1 12/1/1
f 15/2/1 12/2/1 11/2/1
f 15/2/1 13/2/1 12/2/1
f 16/2/1 13/2/1 15/2/1
f 17/5/1 14/5/1 13/5/1
f 17/2/1 13/2/1 16/2/1
f 18/5/1 14/5/1 17/5/1
f 20/2/1 17/2/1 16/2/1
f 20/2/1 18/2/1 17/2/1
f 21/5/1 20/5/1 19/5/1
f 22/2/1 18/2/1 20/2/1
f 22/5/1 20/5/1 21/5/1
f 23/2/1 18/2/1 22/2/1
f 24/2/1 18/2/1 23/2/1
f 25/2/1 18/2/1 24/2/1
f 26/3/1 22/3/1 21/3/1
f 26/3/1 23/3/1 22/3/1
f 27/3/1 23/3/1 26/3/1
f 28/3/1 25/3/1 24/3/1
f 29/3/1 25/3/1 28/3/1
f 30/4/1 27/4/1 26/4/1
f 30/4/1 28/4/1 27/4/1
f 30/4/1 29/4/1 28/4/1
f 31/4/1 29/4/1 30/4/1
f 37/2/1 33/2/1 32/2/1
f 38/2/1 33/2/1 37/2/1
f 39/2/1 35/2/1 34/2/1
f 40/2/1 35/2/1 39/2/1
f 42/5/1 37/5/1 36/5/1
f 43/5/1 37/5/1 42/5/1
f 44/2/1 41/2/1 40/2/1
f 45/2/1 43/2/1 42/2/1
f 46/2/1 45/2/1 42/2/1
f 47/2/1 45/2/1 46/2/1
f 48/2/1 41/2/1 44/2/1
f 49/2/1 41/2/1 48/2/1
f 50/3/1 47/3/1 46/3/1
f 51/3/1 47/3/1 50/3/1
f 52/3/1 49/3/1 48/3/1
f 53/3/1 49/3/1 52/3/1
f 54/5/1 51/5/1 50/5/1
f 55/5/1 51/5/1 54/5/1
f 57/4/1 53/4/1 52/4/1
f 58/4/1 53/4/1 57/4/1
f 59/1/1 55/1/1 54/1/1
f 60/4/1 56/4/1 55/4/1
f 60/1/1 55/1/1 59/1/1
f 61/5/1 57/5/1 56/5/1
f 61/4/1 56/4/1 60/4/1
f 62/5/1 57/5/1 61/5/1
f 63/4/1 61/4/1 60/4/1
f 63/4/1 62/4/1 61/4/1
f 64/4/1 62/4/1 63/4/1
f 67/1/1 66/1/1 65/1/1
f 68/1/1 66/1/1 67/1/1
f 71/1/1 70/1/1 69/1/1
f 72/1/1 70/1/1 71/1/1
f 75/4/1 74/4/1 73/4/1
f 76/4/1 74/4/1 75/4/1
f 79/1/1 78/1/1 77/1/1
f 80/1/1 78/1/1 79/1/1
f 83/1/1 82/1/1 81/1/1
f 84/1/1 82/1/1 83/1/1
f 85/1/2 86/1/2 87/1/2
f 87/1/2 86/1/2 88/1/2
f 89/1/2 90/1/2 91/1/2
f 91/1/2 90/1/2 92/1/2
f 93/1/2 94/1/2 95/1/2
f 95/1/2 94/1/2 96/1/2
f 97/4/2 98/4/2 99/4/2
f 99/4/2 98/4/2 100/4/2
f 101/1/2 102/1/2 106/1/2
f 102/2/2 103/2/2 107/2/2
f 106/1/2 102/1/2 107/1/2
f 103/5/2 104/5/2 108/5/2
f 107/2/2 103/2/2 108/2/2
f 104/2/2 105/2/2 109/2/2
f 108/5/2 104/5/2 109/5/2
f 109/2/2 105/2/2 110/2/2
f 106/2/2 107/2/2 112/2/2
f 112/2/2 107/2/2 113/2/2
f 110/2/2 111/2/2 114/2/2
f 112/5/2 113/5/2 115/5/2
f 115/5/2 113/5/2 116/5/2
f 114/2/2 111/2/2 117/2/2
f 117/2/2 111/2/2 118/2/2
f 115/2/2 116/2/2 120/2/2
f 120/2/2 116/2/2 121/2/2
f 117/5/2 118/5/2 122/5/2
f 122/5/2 118/5/2 123/5/2
f 119/1/2 120/1/2 124/1/2
f 120/3/2 121/3/2 125/3/2
f 124/1/2 120/1/2 125/1/2
f 125/3/2 121/3/2 126/3/2
f 122/3/2 123/3/2 127/3/2
f 127/3/2 123/3/2 128/3/2
f 125/4/2 126/4/2 129/4/2
f 129/4/2 126/4/2 130/4/2
f 127/4/2 128/4/2 131/4/2
f 131/4/2 128/4/2 132/4/2
f 130/4/2 131/4/2 133/4/2
f 133/4/2 131/4/2 134/4/2
f 135/2/2 136/2/2 139/2/2
f 137/2/2 138/2/2 140/2/2
f 140/2/2 138/2/2 141/2/2
f 139/2/2 140/2/2 142/2/2
f 140/5/2 141/5/2 142/5/2
f 142/5/2 141/5/2 143/5/2
f 135/2/2 139/2/2 144/2/2
f 139/2/2 142/2/2 144/2/2
f 142/2/2 143/2/2 144/2/2
f 144/2/2 143/2/2 145/2/2
f 145/2/2 143/2/2 146/2/2
f 145/3/2 146/3/2 148/3/2
f 148/3/2 146/3/2 149/3/2
f 147/4/2 148/4/2 150/4/2
f 148/4/2 149/4/2 150/4/2
f 150/4/2 149/4/2 151/4/2
f 152/1/2 153/1/2 154/1/2
f 154/1/2 153/1/2 155/1/2
f 156/1/2 157/1/2 158/1/2
f 158/1/2 157/1/2 159/1/2
f 162/1/3 161/1/3 160/1/3
f 163/1/3 161/1/3 162/1/3
f 170/5/3 165/5/3 164/5/3
f 171/2/3 166/2/3 165/2/3
f 171/5/3 165/5/3 170/5/3
f 172/3/3 167/3/3 166/3/3
f 172/5/3 168/5/3 167/5/3
f 173/1/3 169/1/3 168/1/3
f 173/5/3 168/5/3 172/5/3
f 174/1/3 169/1/3 173/1/3
f 176/2/3 171/2/3 170/2/3
f 177/2/3 166/2/3 171/2/3
f 177/2/3 171/2/3 176/2/3
f 178/2/3 166/2/3 177/2/3
f 179/3/3 172/3/3 166/3/3
f 179/2/3 166/2/3 178/2/3
f 180/4/3 173/4/3 172/4/3
f 180/3/3 172/3/3 179/3/3
f 181/1/3 176/1/3 175/1/3
f 182/2/3 177/2/3 176/2/3
f 182/1/3 176/1/3 181/1/3
f 183/5/3 178/5/3 177/5/3
f 183/2/3 177/2/3 182/2/3
f 184/2/3 179/2/3 178/2/3
f 184/5/3 178/5/3 183/5/3
f 185/2/3 179/2/3 184/2/3
f 186/4/3 173/4/3 180/4/3
f 187/4/3 173/4/3 186/4/3
f 191/1/3 189/1/3 188/1/3
f 192/1/3 189/1/3 191/1/3
f 197/2/3 191/2/3 190/2/3
f 197/2/3 192/2/3 191/2/3
f 198/2/3 192/2/3 197/2/3
f 199/5/3 193/5/3 192/5/3
f 199/2/3 192/2/3 198/2/3
f 200/3/3 194/3/3 193/3/3
f 200/5/3 193/5/3 199/5/3
f 201/4/3 195/4/3 194/4/3
f 201/3/3 194/3/3 200/3/3
f 202/4/3 195/4/3 201/4/3
f 205/2/3 197/2/3 196/2/3
f 207/4/3 204/4/3 203/4/3
f 208/2/3 205/2/3 196/2/3
f 209/2/3 205/2/3 208/2/3
f 215/4/3 207/4/3 206/4/3
f 216/4/3 204/4/3 207/4/3
f 216/4/3 207/4/3 215/4/3
f 217/2/3 211/2/3 210/2/3
f 217/2/3 212/2/3 211/2/3
f 217/2/3 213/2/3 212/2/3
f 218/5/3 214/5/3 213/5/3
f 218/2/3 213/2/3 217/2/3
f 219/4/3 215/4/3 214/4/3
f 219/5/3 214/5/3 218/5/3
f 220/4/3 215/4/3 219/4/3
f 221/1/3 219/1/3 218/1/3
f 222/1/3 219/1/3 221/1/3
f 225/1/3 224/1/3 223/1/3
f 226/1/3 224/1/3 225/1/3
f 229/4/3 228/4/3 227/4/3
f 230/4/3 228/4/3 229/4/3
f 233/1/3 232/1/3 231/1/3
f 234/1/3 232/1/3 233/1/3
f 237/1/3 236/1/3 235/1/3
f 238/1/3 236/1/3 237/1/3
f 239/1/4 240/1/4 241/1/4
f 241/1/4 240/1/4 242/1/4
f 243/1/4 244/1/4 245/1/4
f 245/1/4 244/1/4 246/1/4
f 247/1/4 248/1/4 249/1/4
f 249/1/4 248/1/4 250/1/4
f 251/4/4 252/4/4 253/4/4
f 253/4/4 252/4/4 254/4/4
f 255/1/4 256/1/4 257/1/4
f 257/1/4 256/1/4 258/1/4
f 259/1/4 260/1/4 261/1/4
f 261/1/4 260/1/4 262/1/4
f 263/5/4 264/5/4 269/5/4
f 264/2/4 265/2/4 270/2/4
f 269/5/4 264/5/4 270/5/4
f 265/3/4 266/3/4 271/3/4
f 270/2/4 265/2/4 271/2/4
f 266/4/4 267/4/4 272/4/4
f 271/3/4 266/3/4 272/3/4
f 272/4/4 267/4/4 273/4/4
f 268/2/4 269/2/4 276/2/4
f 273/5/4 274/5/4 277/5/4
f 274/4/4 275/4/4 278/4/4
f 277/5/4 274/5/4 278/5/4
f 268/2/4 276/2/4 279/2/4
f 278/4/4 275/4/4 281/4/4
f 268/2/4 279/2/4 282/2/4
f 282/2/4 279/2/4 283/2/4
f 280/4/4 281/4/4 288/4/4
f 281/4/4 275/4/4 289/4/4
f 288/4/4 281/4/4 289/4/4
f 283/2/4 284/2/4 290/2/4
f 284/5/4 285/5/4 291/5/4
f 290/2/4 284/2/4 291/2/4
f 285/2/4 286/2/4 292/2/4
f 291/5/4 285/5/4 292/5/4
f 286/3/4 287/3/4 293/3/4
f 292/2/4 286/2/4 293/2/4
f 287/4/4 288/4/4 294/4/4
f 293/3/4 287/3/4 294/3/4
f 294/4/4 288/4/4 295/4/4
f 296/2/4 297/2/4 300/2/4
f 300/2/4 297/2/4 301/2/4
f 301/2/4 297/2/4 302/2/4
f 297/3/4 298/3/4 303/3/4
f 302/2/4 297/2/4 303/2/4
f 298/4/4 299/4/4 304/4/4
f 303/3/4 298/3/4 304/3/4
f 304/4/4 299/4/4 305/4/4
f 300/5/4 301/5/4 307/5/4
f 301/2/4 302/2/4 308/2/4
f 307/5/4 301/5/4 308/5/4
f 308/2/4 302/2/4 309/2/4
f 303/5/4 304/5/4 310/5/4
f 304/4/4 305/4/4 311/4/4
f 310/5/4 304/5/4 311/5/4
f 305/1/4 306/1/4 312/1/4
f 311/4/4 305/4/4 312/4/4
f 312/1/4 306/1/4 313/1/4
f 308/2/4 309/2/4 314/2/4
f 307/2/4 308/2/4 314/2/4
f 309/5/4 310/5/4 315/5/4
f 314/2/4 309/2/4 315/2/4
f 310/3/4 311/3/4 316/3/4
f 315/5/4 310/5/4 316/5/4
f 311/4/4 312/4/4 317/4/4
f 316/3/4 311/3/4 317/3/4
f 317/4/4 312/4/4 318/4/4
f 319/1/4 320/1/4 321/1/4
f 321/1/4 320/1/4 322/1/4
f 326/1/5 324/1/5 323/1/5
f 327/1/5 324/1/5 326/1/5
f 329/2/5 326/2/5 325/2/5
f 329/2/5 327/2/5 326/2/5
f 330/2/5 327/2/5 329/2/5
f 331/2/5 327/2/5 330/2/5
f 332/1/5 329/1/5 328/1/5
f 333/2/5 330/2/5 329/2/5
f 333/1/5 329/1/5 332/1/5
f 334/5/5 331/5/5 330/5/5
f 334/2/5 330/2/5 333/2/5
f 335/5/5 331/5/5 334/5/5
f 336/2/5 334/2/5 333/2/5
f 336/2/5 335/2/5 334/2/5
f 337/2/5 335/2/5 336/2/5
f 342/5/5 339/5/5 338/5/5
f 343/2/5 340/2/5 339/2/5
f 343/5/5 339/5/5 342/5/5
f 344/2/5 340/2/5 343/2/5
f 347/2/5 342/2/5 341/2/5
f 348/2/5 342/2/5 347/2/5
f 349/2/5 346/2/5 345/2/5
f 350/2/5 346/2/5 349/2/5
f 354/2/5 350/2/5 349/2/5
f 355/1/5 351/1/5 350/1/5
f 355/2/5 350/2/5 354/2/5
f 356/1/5 351/1/5 355/1/5
f 357/5/5 353/5/5 352/5/5
f 358/5/5 353/5/5 357/5/5
f 361/2/5 355/2/5 354/2/5
f 362/2/5 355/2/5 361/2/5
f 363/2/5 359/2/5 358/2/5
f 364/5/5 360/5/5 359/5/5
f 364/2/5 359/2/5 363/2/5
f 365/2/5 361/2/5 360/2/5
f 365/5/5 360/5/5 364/5/5
f 366/2/5 361/2/5 365/2/5
f 369/1/5 368/1/5 367/1/5
f 370/1/5 368/1/5 369/1/5
f 373/1/5 372/1/5 371/1/5
f 374/1/5 372/1/5 373/1/5
f 377/1/5 376/1/5 375/1/5
f 378/1/5 376/1/5 377/1/5
f 381/1/5 380/1/5 379/1/5
f 382/1/5 380/1/5 381/1/5
f 385/1/5 384/1/5 383/1/5
f 386/1/5 384/1/5 385/1/5
f 387/1/6 388/1/6 389/1/6
f 389/1/6 388/1/6 390/1/6
f 391/1/6 392/1/6 393/1/6
f 393/1/6 392/1/6 394/1/6
f 395/1/6 396/1/6 397/1/6
f 397/1/6 396/1/6 398/1/6
f 399/1/6 400/1/6 401/1/6
f 401/1/6 400/1/6 402/1/6
f 403/1/6 404/1/6 405/1/6
f 405/1/6 404/1/6 406/1/6
f 407/1/6 408/1/6 409/1/6
f 409/1/6 408/1/6 410/1/6
f 411/4/6 412/4/6 415/4/6
f 415/4/6 412/4/6 416/4/6
f 413/4/6 414/4/6 418/4/6
f 413/4/6 418/4/6 419/4/6
f 419/4/6 418/4/6 420/4/6
f 416/4/6 417/4/6 423/4/6
f 423/4/6 417/4/6 424/4/6
f 420/4/6 421/4/6 425/4/6
f 425/4/6 421/4/6 426/4/6
f 422/4/6 423/4/6 427/4/6
f 427/4/6 423/4/6 428/4/6
f 429/1/6 430/1/6 431/1/6
f 431/1/6 430/1/6 432/1/6
f 433/1/6 434/1/6 435/1/6
f 435/1/6 434/1/6 436/1/6
f 437/4/6 438/4/6 439/4/6
f 439/4/6 438/4/6 440/4/6
f 437/4/6 439/4/6 441/4/6
f 440/4/6 438/4/6 442/4/6
f 437/4/6 441/4/6 443/4/6
f 441/4/6 442/4/6 443/4/6
f 442/4/6 438/4/6 444/4/6
f 443/4/6 442/4/6 444/4/6
f 445/4/6 446/4/6 447/4/6
f 447/4/6 446/4/6 448/4/6
