# MagicaVoxel @ Ephtracy

# group
o 

# material
mtllib 4 enxd.mtl
usemtl palette

# normals
vn -1 0 0
vn 1 0 0
vn 0 0 1
vn 0 0 -1
vn 0 -1 0
vn 0 1 0

# texcoords
vt 0.201172 0.5
vt 0.947266 0.5
vt 0.951172 0.5
vt 0.958984 0.5
vt 0.966797 0.5
vt 0.974609 0.5
vt 0.978516 0.5

# verts
v -0.4 1 0.2
v -0.4 1 -0.2
v -0.4 1.1 0.2
v -0.4 1.1 -0.2
v -0.2 0.1 -0.2
v -0.2 0.1 -0.3
v -0.2 0.9 0
v -0.2 0.9 -0.1
v -0.2 0.9 -0.2
v -0.2 0.9 -0.3
v -0.2 1 0
v -0.2 1 -0.1
v -0.2 1 -0.2
v -0.2 1 -0.3
v -0.2 1.1 -0.2
v -0.2 1.2 -0.2
v -0.2 1.2 -0.3
v 0.3 0.9 0.1
v 0.3 0.9 -0.2
v 0.3 1 0.1
v 0.3 1 -0.2
v 0.4 0.4 -0.2
v 0.4 0.4 -0.3
v 0.4 0.8 -0.1
v 0.4 0.8 -0.2
v 0.4 0.8 -0.3
v 0.4 0.9 0.2
v 0.4 0.9 0.1
v 0.4 0.9 -0.1
v 0.4 0.9 -0.2
v 0.4 0.9 -0.3
v 0.4 1 0.2
v 0.4 1 0.1
v 0.4 1 -0.2
v 0.4 1.1 -0.2
v 0.4 1.1 -0.3
v -0.1 0.1 -0.2
v -0.1 0.1 -0.3
v -0.1 0.9 0
v -0.1 0.9 -0.1
v -0.1 0.9 -0.2
v -0.1 0.9 -0.3
v -0.1 1 0
v -0.1 1 -0.1
v -0.1 1 -0.2
v -0.1 1 -0.3
v -0.1 1.1 -0.2
v -0.1 1.2 -0.2
v -0.1 1.2 -0.3
v 0.1 1 0.2
v 0.1 1 -0.2
v 0.1 1.1 0.2
v 0.1 1.1 -0.2
v 0.5 0.4 -0.2
v 0.5 0.4 -0.3
v 0.5 0.8 -0.1
v 0.5 0.8 -0.2
v 0.5 0.8 -0.3
v 0.5 0.9 0.2
v 0.5 0.9 0.1
v 0.5 0.9 -0.1
v 0.5 0.9 -0.2
v 0.5 0.9 -0.3
v 0.5 1 0.2
v 0.5 1 0.1
v 0.5 1 -0.2
v 0.5 1.1 -0.2
v 0.5 1.1 -0.3
v 0.6 0.9 0.1
v 0.6 0.9 -0.2
v 0.6 1 0.1
v 0.6 1 -0.2
v -0.4 1 0.2
v -0.4 1.1 0.2
v 0.1 1 0.2
v 0.1 1.1 0.2
v 0.4 0.9 0.2
v 0.4 1 0.2
v 0.5 0.9 0.2
v 0.5 1 0.2
v 0.3 0.9 0.1
v 0.3 1 0.1
v 0.4 0.9 0.1
v 0.4 1 0.1
v 0.5 0.9 0.1
v 0.5 1 0.1
v 0.6 0.9 0.1
v 0.6 1 0.1
v -0.2 0.9 0
v -0.2 1 0
v -0.1 0.9 0
v -0.1 1 0
v 0.4 0.8 -0.1
v 0.4 0.9 -0.1
v 0.5 0.8 -0.1
v 0.5 0.9 -0.1
v -0.2 0.1 -0.2
v -0.2 0.9 -0.2
v -0.2 1.1 -0.2
v -0.2 1.2 -0.2
v -0.1 0.1 -0.2
v -0.1 0.9 -0.2
v -0.1 1.1 -0.2
v -0.1 1.2 -0.2
v 0.4 0.4 -0.2
v 0.4 0.8 -0.2
v 0.4 1 -0.2
v 0.4 1.1 -0.2
v 0.5 0.4 -0.2
v 0.5 0.8 -0.2
v 0.5 1 -0.2
v 0.5 1.1 -0.2
v -0.4 1 -0.2
v -0.4 1.1 -0.2
v -0.2 1 -0.2
v -0.2 1.1 -0.2
v -0.1 1 -0.2
v -0.1 1.1 -0.2
v 0.1 1 -0.2
v 0.1 1.1 -0.2
v 0.3 0.9 -0.2
v 0.3 1 -0.2
v 0.4 0.9 -0.2
v 0.4 1 -0.2
v 0.5 0.9 -0.2
v 0.5 1 -0.2
v 0.6 0.9 -0.2
v 0.6 1 -0.2
v -0.2 0.1 -0.3
v -0.2 0.9 -0.3
v -0.2 1 -0.3
v -0.2 1.2 -0.3
v -0.1 0.1 -0.3
v -0.1 0.9 -0.3
v -0.1 1 -0.3
v -0.1 1.2 -0.3
v 0.4 0.4 -0.3
v 0.4 0.8 -0.3
v 0.4 0.9 -0.3
v 0.4 1.1 -0.3
v 0.5 0.4 -0.3
v 0.5 0.8 -0.3
v 0.5 0.9 -0.3
v 0.5 1.1 -0.3
v -0.2 0.1 -0.2
v -0.1 0.1 -0.2
v -0.2 0.1 -0.3
v -0.1 0.1 -0.3
v 0.4 0.4 -0.2
v 0.5 0.4 -0.2
v 0.4 0.4 -0.3
v 0.5 0.4 -0.3
v 0.4 0.8 -0.1
v 0.5 0.8 -0.1
v 0.4 0.8 -0.2
v 0.5 0.8 -0.2
v 0.4 0.9 0.2
v 0.5 0.9 0.2
v 0.3 0.9 0.1
v 0.4 0.9 0.1
v 0.5 0.9 0.1
v 0.6 0.9 0.1
v -0.2 0.9 0
v -0.1 0.9 0
v -0.2 0.9 -0.1
v -0.1 0.9 -0.1
v 0.4 0.9 -0.1
v 0.5 0.9 -0.1
v -0.2 0.9 -0.2
v -0.1 0.9 -0.2
v 0.3 0.9 -0.2
v 0.4 0.9 -0.2
v 0.5 0.9 -0.2
v 0.6 0.9 -0.2
v -0.4 1 0.2
v 0.1 1 0.2
v -0.2 1 0
v -0.1 1 0
v -0.2 1 -0.1
v -0.1 1 -0.1
v -0.4 1 -0.2
v -0.2 1 -0.2
v -0.1 1 -0.2
v 0.1 1 -0.2
v 0.4 1 0.2
v 0.5 1 0.2
v 0.3 1 0.1
v 0.4 1 0.1
v 0.5 1 0.1
v 0.6 1 0.1
v 0.4 1 -0.1
v 0.5 1 -0.1
v 0.3 1 -0.2
v 0.4 1 -0.2
v 0.5 1 -0.2
v 0.6 1 -0.2
v -0.4 1.1 0.2
v 0.1 1.1 0.2
v -0.2 1.1 -0.1
v -0.1 1.1 -0.1
v -0.4 1.1 -0.2
v -0.2 1.1 -0.2
v -0.1 1.1 -0.2
v 0.1 1.1 -0.2
v 0.4 1.1 -0.2
v 0.5 1.1 -0.2
v 0.4 1.1 -0.3
v 0.5 1.1 -0.3
v -0.2 1.2 -0.2
v -0.1 1.2 -0.2
v -0.2 1.2 -0.3
v -0.1 1.2 -0.3

# faces
f 3/4/1 2/4/1 1/4/1
f 4/4/1 2/4/1 3/4/1
f 9/7/1 6/7/1 5/7/1
f 10/7/1 6/7/1 9/7/1
f 11/3/1 8/3/1 7/3/1
f 12/2/1 9/2/1 8/2/1
f 12/3/1 8/3/1 11/3/1
f 13/1/1 10/1/1 9/1/1
f 13/2/1 9/2/1 12/2/1
f 14/1/1 10/1/1 13/1/1
f 15/6/1 14/6/1 13/6/1
f 16/6/1 14/6/1 15/6/1
f 17/6/1 14/6/1 16/6/1
f 20/5/1 19/5/1 18/5/1
f 21/5/1 19/5/1 20/5/1
f 25/7/1 23/7/1 22/7/1
f 26/7/1 23/7/1 25/7/1
f 29/2/1 25/2/1 24/2/1
f 29/2/1 26/2/1 25/2/1
f 30/2/1 26/2/1 29/2/1
f 31/2/1 26/2/1 30/2/1
f 32/5/1 28/5/1 27/5/1
f 33/5/1 28/5/1 32/5/1
f 34/6/1 31/6/1 30/6/1
f 35/6/1 31/6/1 34/6/1
f 36/6/1 31/6/1 35/6/1
f 37/7/2 38/7/2 41/7/2
f 41/7/2 38/7/2 42/7/2
f 39/3/2 40/3/2 43/3/2
f 40/2/2 41/2/2 44/2/2
f 43/3/2 40/3/2 44/3/2
f 41/1/2 42/1/2 45/1/2
f 44/2/2 41/2/2 45/2/2
f 45/1/2 42/1/2 46/1/2
f 45/6/2 46/6/2 47/6/2
f 47/6/2 46/6/2 48/6/2
f 48/6/2 46/6/2 49/6/2
f 50/4/2 51/4/2 52/4/2
f 52/4/2 51/4/2 53/4/2
f 54/7/2 55/7/2 57/7/2
f 57/7/2 55/7/2 58/7/2
f 56/2/2 57/2/2 61/2/2
f 57/2/2 58/2/2 61/2/2
f 61/2/2 58/2/2 62/2/2
f 62/2/2 58/2/2 63/2/2
f 59/5/2 60/5/2 64/5/2
f 64/5/2 60/5/2 65/5/2
f 62/6/2 63/6/2 66/6/2
f 66/6/2 63/6/2 67/6/2
f 67/6/2 63/6/2 68/6/2
f 69/5/2 70/5/2 71/5/2
f 71/5/2 70/5/2 72/5/2
f 75/4/3 74/4/3 73/4/3
f 76/4/3 74/4/3 75/4/3
f 79/5/3 78/5/3 77/5/3
f 80/5/3 78/5/3 79/5/3
f 83/5/3 82/5/3 81/5/3
f 84/5/3 82/5/3 83/5/3
f 87/5/3 86/5/3 85/5/3
f 88/5/3 86/5/3 87/5/3
f 91/3/3 90/3/3 89/3/3
f 92/3/3 90/3/3 91/3/3
f 95/2/3 94/2/3 93/2/3
f 96/2/3 94/2/3 95/2/3
f 101/7/3 98/7/3 97/7/3
f 102/7/3 98/7/3 101/7/3
f 103/6/3 100/6/3 99/6/3
f 104/6/3 100/6/3 103/6/3
f 109/7/3 106/7/3 105/7/3
f 110/7/3 106/7/3 109/7/3
f 111/6/3 108/6/3 107/6/3
f 112/6/3 108/6/3 111/6/3
f 113/4/4 114/4/4 115/4/4
f 115/4/4 114/4/4 116/4/4
f 117/4/4 118/4/4 119/4/4
f 119/4/4 118/4/4 120/4/4
f 121/5/4 122/5/4 123/5/4
f 123/5/4 122/5/4 124/5/4
f 125/5/4 126/5/4 127/5/4
f 127/5/4 126/5/4 128/5/4
f 129/7/4 130/7/4 133/7/4
f 130/1/4 131/1/4 134/1/4
f 133/7/4 130/7/4 134/7/4
f 131/6/4 132/6/4 135/6/4
f 134/1/4 131/1/4 135/1/4
f 135/6/4 132/6/4 136/6/4
f 137/7/4 138/7/4 141/7/4
f 138/2/4 139/2/4 142/2/4
f 141/7/4 138/7/4 142/7/4
f 139/6/4 140/6/4 143/6/4
f 142/2/4 139/2/4 143/2/4
f 143/6/4 140/6/4 144/6/4
f 147/7/5 146/7/5 145/7/5
f 148/7/5 146/7/5 147/7/5
f 151/7/5 150/7/5 149/7/5
f 152/7/5 150/7/5 151/7/5
f 155/2/5 154/2/5 153/2/5
f 156/2/5 154/2/5 155/2/5
f 160/5/5 158/5/5 157/5/5
f 161/5/5 158/5/5 160/5/5
f 165/3/5 164/3/5 163/3/5
f 166/3/5 164/3/5 165/3/5
f 167/5/5 160/5/5 159/5/5
f 167/5/5 161/5/5 160/5/5
f 167/5/5 162/5/5 161/5/5
f 168/5/5 162/5/5 167/5/5
f 169/2/5 166/2/5 165/2/5
f 170/2/5 166/2/5 169/2/5
f 171/5/5 167/5/5 159/5/5
f 172/5/5 167/5/5 171/5/5
f 173/5/5 162/5/5 168/5/5
f 174/5/5 162/5/5 173/5/5
f 177/4/5 176/4/5 175/4/5
f 178/4/5 176/4/5 177/4/5
f 179/4/5 177/4/5 175/4/5
f 180/4/5 176/4/5 178/4/5
f 181/4/5 179/4/5 175/4/5
f 182/4/5 179/4/5 181/4/5
f 183/4/5 176/4/5 180/4/5
f 184/4/5 176/4/5 183/4/5
f 185/5/6 186/5/6 188/5/6
f 188/5/6 186/5/6 189/5/6
f 187/5/6 188/5/6 191/5/6
f 189/5/6 190/5/6 191/5/6
f 188/5/6 189/5/6 191/5/6
f 191/5/6 190/5/6 192/5/6
f 187/5/6 191/5/6 193/5/6
f 191/3/6 192/3/6 194/3/6
f 193/5/6 191/5/6 194/5/6
f 192/5/6 190/5/6 195/5/6
f 194/3/6 192/3/6 195/3/6
f 195/5/6 190/5/6 196/5/6
f 197/4/6 198/4/6 199/4/6
f 199/4/6 198/4/6 200/4/6
f 197/4/6 199/4/6 201/4/6
f 199/3/6 200/3/6 202/3/6
f 201/4/6 199/4/6 202/4/6
f 200/4/6 198/4/6 203/4/6
f 202/3/6 200/3/6 203/3/6
f 203/4/6 198/4/6 204/4/6
f 205/6/6 206/6/6 207/6/6
f 207/6/6 206/6/6 208/6/6
f 209/6/6 210/6/6 211/6/6
f 211/6/6 210/6/6 212/6/6
