# MagicaVoxel @ Ephtracy

# group
o 

# material
mtllib 4 macha.mtl
usemtl palette

# normals
vn -1 0 0
vn 1 0 0
vn 0 0 1
vn 0 0 -1
vn 0 -1 0
vn 0 1 0

# texcoords
vt 0.0683594 0.5
vt 0.0722656 0.5
vt 0.0800781 0.5

# verts
v -0.2 1.5 0.0999999
v -0.2 1.5 -5.96046e-08
v -0.2 1.7 0.0999999
v -0.2 1.7 -5.96046e-08
v -0.0999999 1.4 0.0999999
v -0.0999999 1.4 -5.96046e-08
v -0.0999999 1.5 0.2
v -0.0999999 1.5 0.0999999
v -0.0999999 1.5 -5.96046e-08
v -0.0999999 1.5 -0.1
v -0.0999999 1.6 0.2
v -0.0999999 1.6 0.0999999
v -0.0999999 1.6 -5.96046e-08
v -0.0999999 1.6 -0.1
v 5.96046e-08 1.3 0.0999999
v 5.96046e-08 1.3 -5.96046e-08
v 5.96046e-08 1.4 0.2
v 5.96046e-08 1.4 0.0999999
v 5.96046e-08 1.4 -5.96046e-08
v 5.96046e-08 1.4 -0.1
v 5.96046e-08 1.5 0.2
v 5.96046e-08 1.5 0.0999999
v 5.96046e-08 1.5 -5.96046e-08
v 5.96046e-08 1.5 -0.1
v 0.1 1.2 0.0999999
v 0.1 1.2 -5.96046e-08
v 0.1 1.3 0.2
v 0.1 1.3 0.0999999
v 0.1 1.3 -5.96046e-08
v 0.1 1.3 -0.1
v 0.1 1.4 0.2
v 0.1 1.4 0.0999999
v 0.1 1.4 -5.96046e-08
v 0.1 1.4 -0.1
v 0.1 1.7 0.0999999
v 0.1 1.7 -5.96046e-08
v 0.1 1.9 0.0999999
v 0.1 1.9 -5.96046e-08
v 0.2 1.6 0.2
v 0.2 1.6 0.0999999
v 0.2 1.6 -5.96046e-08
v 0.2 1.6 -0.1
v 0.2 1.7 0.2
v 0.2 1.7 0.0999999
v 0.2 1.7 -5.96046e-08
v 0.2 1.7 -0.1
v 0.3 1.7 0.2
v 0.3 1.7 0.0999999
v 0.3 1.7 -5.96046e-08
v 0.3 1.7 -0.1
v 0.3 1.8 0.2
v 0.3 1.8 0.0999999
v 0.3 1.8 -5.96046e-08
v 0.3 1.8 -0.1
v 0.4 1.4 0.0999999
v 0.4 1.4 -5.96046e-08
v 0.4 1.5 0.2
v 0.4 1.5 0.0999999
v 0.4 1.5 -5.96046e-08
v 0.4 1.5 -0.1
v 0.4 1.6 0.2
v 0.4 1.6 0.0999999
v 0.4 1.6 -5.96046e-08
v 0.4 1.6 -0.1
v 0.5 1.3 0.0999999
v 0.5 1.3 -5.96046e-08
v 0.5 1.4 0.2
v 0.5 1.4 0.0999999
v 0.5 1.4 -5.96046e-08
v 0.5 1.4 -0.1
v 0.5 1.5 0.2
v 0.5 1.5 0.0999999
v 0.5 1.5 -5.96046e-08
v 0.5 1.5 -0.1
v 0.6 1.2 0.0999999
v 0.6 1.2 -5.96046e-08
v 0.6 1.3 0.2
v 0.6 1.3 0.0999999
v 0.6 1.3 -5.96046e-08
v 0.6 1.3 -0.1
v 0.6 1.4 0.2
v 0.6 1.4 0.0999999
v 0.6 1.4 -5.96046e-08
v 0.6 1.4 -0.1
v 0.7 1.1 0.0999999
v 0.7 1.1 -5.96046e-08
v 0.7 1.2 0.2
v 0.7 1.2 0.0999999
v 0.7 1.2 -5.96046e-08
v 0.7 1.2 -0.1
v 0.7 1.3 0.2
v 0.7 1.3 0.0999999
v 0.7 1.3 -5.96046e-08
v 0.7 1.3 -0.1
v 0.8 1 0.0999999
v 0.8 1 -5.96046e-08
v 0.8 1.1 0.2
v 0.8 1.1 0.0999999
v 0.8 1.1 -5.96046e-08
v 0.8 1.1 -0.1
v 0.8 1.2 0.2
v 0.8 1.2 0.0999999
v 0.8 1.2 -5.96046e-08
v 0.8 1.2 -0.1
v 0.2 1.3 0.2
v 0.2 1.3 0.0999999
v 0.2 1.3 -5.96046e-08
v 0.2 1.3 -0.1
v 0.2 1.6 0.2
v 0.2 1.6 0.0999999
v 0.2 1.6 -5.96046e-08
v 0.2 1.6 -0.1
v 0.3 1.2 0.0999999
v 0.3 1.2 -5.96046e-08
v 0.3 1.5 0.0999999
v 0.3 1.5 -5.96046e-08
v 0.3 1.6 0.2
v 0.3 1.6 0.0999999
v 0.3 1.6 -5.96046e-08
v 0.3 1.6 -0.1
v 0.3 1.7 0.2
v 0.3 1.7 0.0999999
v 0.3 1.7 -5.96046e-08
v 0.3 1.7 -0.1
v 0.4 1.7 0.2
v 0.4 1.7 0.0999999
v 0.4 1.7 -5.96046e-08
v 0.4 1.7 -0.1
v 0.4 1.8 0.2
v 0.4 1.8 0.0999999
v 0.4 1.8 -5.96046e-08
v 0.4 1.8 -0.1
v 0.5 1.5 0.2
v 0.5 1.5 0.0999999
v 0.5 1.5 -5.96046e-08
v 0.5 1.5 -0.1
v 0.5 1.6 0.2
v 0.5 1.6 0.0999999
v 0.5 1.6 -5.96046e-08
v 0.5 1.6 -0.1
v 0.5 1.7 0.0999999
v 0.5 1.7 -5.96046e-08
v 0.5 1.9 0.0999999
v 0.5 1.9 -5.96046e-08
v 0.6 1.4 0.2
v 0.6 1.4 0.0999999
v 0.6 1.4 -5.96046e-08
v 0.6 1.4 -0.1
v 0.6 1.5 0.2
v 0.6 1.5 0.0999999
v 0.6 1.5 -5.96046e-08
v 0.6 1.5 -0.1
v 0.6 1.6 0.0999999
v 0.6 1.6 -5.96046e-08
v 0.7 1.3 0.2
v 0.7 1.3 0.0999999
v 0.7 1.3 -5.96046e-08
v 0.7 1.3 -0.1
v 0.7 1.4 0.2
v 0.7 1.4 0.0999999
v 0.7 1.4 -5.96046e-08
v 0.7 1.4 -0.1
v 0.7 1.5 0.0999999
v 0.7 1.5 -5.96046e-08
v 0.8 1.2 0.2
v 0.8 1.2 0.0999999
v 0.8 1.2 -5.96046e-08
v 0.8 1.2 -0.1
v 0.8 1.3 0.2
v 0.8 1.3 0.0999999
v 0.8 1.3 -5.96046e-08
v 0.8 1.3 -0.1
v 0.8 1.4 0.0999999
v 0.8 1.4 -5.96046e-08
v 0.9 1.1 0.2
v 0.9 1.1 0.0999999
v 0.9 1.1 -5.96046e-08
v 0.9 1.1 -0.1
v 0.9 1.2 0.2
v 0.9 1.2 0.0999999
v 0.9 1.2 -5.96046e-08
v 0.9 1.2 -0.1
v 0.9 1.3 0.0999999
v 0.9 1.3 -5.96046e-08
v 1 1 0.0999999
v 1 1 -5.96046e-08
v 1 1.2 0.0999999
v 1 1.2 -5.96046e-08
v -0.0999999 1.5 0.2
v -0.0999999 1.6 0.2
v 5.96046e-08 1.4 0.2
v 5.96046e-08 1.5 0.2
v 0.1 1.3 0.2
v 0.1 1.4 0.2
v 0.2 1.3 0.2
v 0.2 1.6 0.2
v 0.2 1.7 0.2
v 0.3 1.6 0.2
v 0.3 1.7 0.2
v 0.3 1.8 0.2
v 0.4 1.5 0.2
v 0.4 1.6 0.2
v 0.4 1.7 0.2
v 0.4 1.8 0.2
v 0.5 1.4 0.2
v 0.5 1.5 0.2
v 0.5 1.6 0.2
v 0.6 1.3 0.2
v 0.6 1.4 0.2
v 0.6 1.5 0.2
v 0.7 1.2 0.2
v 0.7 1.3 0.2
v 0.7 1.4 0.2
v 0.8 1.1 0.2
v 0.8 1.2 0.2
v 0.8 1.3 0.2
v 0.9 1.1 0.2
v 0.9 1.2 0.2
v -0.2 1.5 0.0999999
v -0.2 1.7 0.0999999
v -0.0999999 1.4 0.0999999
v -0.0999999 1.5 0.0999999
v -0.0999999 1.6 0.0999999
v 5.96046e-08 1.3 0.0999999
v 5.96046e-08 1.4 0.0999999
v 5.96046e-08 1.5 0.0999999
v 0.1 1.2 0.0999999
v 0.1 1.3 0.0999999
v 0.1 1.4 0.0999999
v 0.1 1.7 0.0999999
v 0.1 1.9 0.0999999
v 0.2 1.3 0.0999999
v 0.2 1.6 0.0999999
v 0.2 1.7 0.0999999
v 0.2 1.8 0.0999999
v 0.3 1.2 0.0999999
v 0.3 1.5 0.0999999
v 0.3 1.6 0.0999999
v 0.3 1.7 0.0999999
v 0.3 1.8 0.0999999
v 0.3 1.9 0.0999999
v 0.4 1.4 0.0999999
v 0.4 1.5 0.0999999
v 0.4 1.6 0.0999999
v 0.4 1.7 0.0999999
v 0.4 1.8 0.0999999
v 0.5 1.3 0.0999999
v 0.5 1.4 0.0999999
v 0.5 1.5 0.0999999
v 0.5 1.6 0.0999999
v 0.5 1.7 0.0999999
v 0.5 1.9 0.0999999
v 0.6 1.2 0.0999999
v 0.6 1.3 0.0999999
v 0.6 1.4 0.0999999
v 0.6 1.5 0.0999999
v 0.6 1.6 0.0999999
v 0.7 1.1 0.0999999
v 0.7 1.2 0.0999999
v 0.7 1.3 0.0999999
v 0.7 1.4 0.0999999
v 0.7 1.5 0.0999999
v 0.8 1 0.0999999
v 0.8 1.1 0.0999999
v 0.8 1.2 0.0999999
v 0.8 1.3 0.0999999
v 0.8 1.4 0.0999999
v 0.9 1.1 0.0999999
v 0.9 1.2 0.0999999
v 0.9 1.3 0.0999999
v 1 1 0.0999999
v 1 1.2 0.0999999
v -0.2 1.5 -5.96046e-08
v -0.2 1.7 -5.96046e-08
v -0.0999999 1.4 -5.96046e-08
v -0.0999999 1.5 -5.96046e-08
v -0.0999999 1.6 -5.96046e-08
v 5.96046e-08 1.3 -5.96046e-08
v 5.96046e-08 1.4 -5.96046e-08
v 5.96046e-08 1.5 -5.96046e-08
v 0.1 1.2 -5.96046e-08
v 0.1 1.3 -5.96046e-08
v 0.1 1.4 -5.96046e-08
v 0.1 1.7 -5.96046e-08
v 0.1 1.9 -5.96046e-08
v 0.2 1.3 -5.96046e-08
v 0.2 1.6 -5.96046e-08
v 0.2 1.7 -5.96046e-08
v 0.2 1.8 -5.96046e-08
v 0.3 1.2 -5.96046e-08
v 0.3 1.5 -5.96046e-08
v 0.3 1.6 -5.96046e-08
v 0.3 1.7 -5.96046e-08
v 0.3 1.8 -5.96046e-08
v 0.3 1.9 -5.96046e-08
v 0.4 1.4 -5.96046e-08
v 0.4 1.5 -5.96046e-08
v 0.4 1.6 -5.96046e-08
v 0.4 1.7 -5.96046e-08
v 0.4 1.8 -5.96046e-08
v 0.5 1.3 -5.96046e-08
v 0.5 1.4 -5.96046e-08
v 0.5 1.5 -5.96046e-08
v 0.5 1.6 -5.96046e-08
v 0.5 1.7 -5.96046e-08
v 0.5 1.9 -5.96046e-08
v 0.6 1.2 -5.96046e-08
v 0.6 1.3 -5.96046e-08
v 0.6 1.4 -5.96046e-08
v 0.6 1.5 -5.96046e-08
v 0.6 1.6 -5.96046e-08
v 0.7 1.1 -5.96046e-08
v 0.7 1.2 -5.96046e-08
v 0.7 1.3 -5.96046e-08
v 0.7 1.4 -5.96046e-08
v 0.7 1.5 -5.96046e-08
v 0.8 1 -5.96046e-08
v 0.8 1.1 -5.96046e-08
v 0.8 1.2 -5.96046e-08
v 0.8 1.3 -5.96046e-08
v 0.8 1.4 -5.96046e-08
v 0.9 1.1 -5.96046e-08
v 0.9 1.2 -5.96046e-08
v 0.9 1.3 -5.96046e-08
v 1 1 -5.96046e-08
v 1 1.2 -5.96046e-08
v -0.0999999 1.5 -0.1
v -0.0999999 1.6 -0.1
v 5.96046e-08 1.4 -0.1
v 5.96046e-08 1.5 -0.1
v 0.1 1.3 -0.1
v 0.1 1.4 -0.1
v 0.2 1.3 -0.1
v 0.2 1.6 -0.1
v 0.2 1.7 -0.1
v 0.3 1.6 -0.1
v 0.3 1.7 -0.1
v 0.3 1.8 -0.1
v 0.4 1.5 -0.1
v 0.4 1.6 -0.1
v 0.4 1.7 -0.1
v 0.4 1.8 -0.1
v 0.5 1.4 -0.1
v 0.5 1.5 -0.1
v 0.5 1.6 -0.1
v 0.6 1.3 -0.1
v 0.6 1.4 -0.1
v 0.6 1.5 -0.1
v 0.7 1.2 -0.1
v 0.7 1.3 -0.1
v 0.7 1.4 -0.1
v 0.8 1.1 -0.1
v 0.8 1.2 -0.1
v 0.8 1.3 -0.1
v 0.9 1.1 -0.1
v 0.9 1.2 -0.1
v 0.8 1 0.0999999
v 1 1 0.0999999
v 0.8 1 -5.96046e-08
v 1 1 -5.96046e-08
v 0.8 1.1 0.2
v 0.9 1.1 0.2
v 0.7 1.1 0.0999999
v 0.8 1.1 0.0999999
v 0.9 1.1 0.0999999
v 0.7 1.1 -5.96046e-08
v 0.8 1.1 -5.96046e-08
v 0.9 1.1 -5.96046e-08
v 0.8 1.1 -0.1
v 0.9 1.1 -0.1
v 0.7 1.2 0.2
v 0.8 1.2 0.2
v 0.1 1.2 0.0999999
v 0.3 1.2 0.0999999
v 0.6 1.2 0.0999999
v 0.7 1.2 0.0999999
v 0.8 1.2 0.0999999
v 0.1 1.2 -5.96046e-08
v 0.3 1.2 -5.96046e-08
v 0.6 1.2 -5.96046e-08
v 0.7 1.2 -5.96046e-08
v 0.8 1.2 -5.96046e-08
v 0.7 1.2 -0.1
v 0.8 1.2 -0.1
v 0.1 1.3 0.2
v 0.2 1.3 0.2
v 0.6 1.3 0.2
v 0.7 1.3 0.2
v 5.96046e-08 1.3 0.0999999
v 0.1 1.3 0.0999999
v 0.2 1.3 0.0999999
v 0.5 1.3 0.0999999
v 0.6 1.3 0.0999999
v 0.7 1.3 0.0999999
v 5.96046e-08 1.3 -5.96046e-08
v 0.1 1.3 -5.96046e-08
v 0.2 1.3 -5.96046e-08
v 0.5 1.3 -5.96046e-08
v 0.6 1.3 -5.96046e-08
v 0.7 1.3 -5.96046e-08
v 0.1 1.3 -0.1
v 0.2 1.3 -0.1
v 0.6 1.3 -0.1
v 0.7 1.3 -0.1
v 5.96046e-08 1.4 0.2
v 0.1 1.4 0.2
v 0.5 1.4 0.2
v 0.6 1.4 0.2
v -0.0999999 1.4 0.0999999
v 5.96046e-08 1.4 0.0999999
v 0.1 1.4 0.0999999
v 0.4 1.4 0.0999999
v 0.5 1.4 0.0999999
v 0.6 1.4 0.0999999
v -0.0999999 1.4 -5.96046e-08
v 5.96046e-08 1.4 -5.96046e-08
v 0.1 1.4 -5.96046e-08
v 0.4 1.4 -5.96046e-08
v 0.5 1.4 -5.96046e-08
v 0.6 1.4 -5.96046e-08
v 5.96046e-08 1.4 -0.1
v 0.1 1.4 -0.1
v 0.5 1.4 -0.1
v 0.6 1.4 -0.1
v -0.0999999 1.5 0.2
v 5.96046e-08 1.5 0.2
v 0.4 1.5 0.2
v 0.5 1.5 0.2
v -0.2 1.5 0.0999999
v -0.0999999 1.5 0.0999999
v 5.96046e-08 1.5 0.0999999
v 0.3 1.5 0.0999999
v 0.4 1.5 0.0999999
v 0.5 1.5 0.0999999
v -0.2 1.5 -5.96046e-08
v -0.0999999 1.5 -5.96046e-08
v 5.96046e-08 1.5 -5.96046e-08
v 0.3 1.5 -5.96046e-08
v 0.4 1.5 -5.96046e-08
v 0.5 1.5 -5.96046e-08
v -0.0999999 1.5 -0.1
v 5.96046e-08 1.5 -0.1
v 0.4 1.5 -0.1
v 0.5 1.5 -0.1
v 0.2 1.6 0.2
v 0.3 1.6 0.2
v 0.2 1.6 0.0999999
v 0.3 1.6 0.0999999
v 0.2 1.6 -5.96046e-08
v 0.3 1.6 -5.96046e-08
v 0.2 1.6 -0.1
v 0.3 1.6 -0.1
v 0.3 1.7 0.2
v 0.4 1.7 0.2
v 0.3 1.7 0.0999999
v 0.4 1.7 0.0999999
v 0.3 1.7 -5.96046e-08
v 0.4 1.7 -5.96046e-08
v 0.3 1.7 -0.1
v 0.4 1.7 -0.1
v 0.8 1.2 0.2
v 0.9 1.2 0.2
v 0.8 1.2 0.0999999
v 0.9 1.2 0.0999999
v 1 1.2 0.0999999
v 0.8 1.2 -5.96046e-08
v 0.9 1.2 -5.96046e-08
v 1 1.2 -5.96046e-08
v 0.8 1.2 -0.1
v 0.9 1.2 -0.1
v 0.7 1.3 0.2
v 0.8 1.3 0.2
v 0.7 1.3 0.0999999
v 0.8 1.3 0.0999999
v 0.9 1.3 0.0999999
v 0.7 1.3 -5.96046e-08
v 0.8 1.3 -5.96046e-08
v 0.9 1.3 -5.96046e-08
v 0.7 1.3 -0.1
v 0.8 1.3 -0.1
v 0.6 1.4 0.2
v 0.7 1.4 0.2
v 0.6 1.4 0.0999999
v 0.7 1.4 0.0999999
v 0.8 1.4 0.0999999
v 0.6 1.4 -5.96046e-08
v 0.7 1.4 -5.96046e-08
v 0.8 1.4 -5.96046e-08
v 0.6 1.4 -0.1
v 0.7 1.4 -0.1
v 0.5 1.5 0.2
v 0.6 1.5 0.2
v 0.5 1.5 0.0999999
v 0.6 1.5 0.0999999
v 0.7 1.5 0.0999999
v 0.5 1.5 -5.96046e-08
v 0.6 1.5 -5.96046e-08
v 0.7 1.5 -5.96046e-08
v 0.5 1.5 -0.1
v 0.6 1.5 -0.1
v -0.0999999 1.6 0.2
v 0.2 1.6 0.2
v 0.4 1.6 0.2
v 0.5 1.6 0.2
v -0.0999999 1.6 0.0999999
v 0.2 1.6 0.0999999
v 0.4 1.6 0.0999999
v 0.5 1.6 0.0999999
v 0.6 1.6 0.0999999
v -0.0999999 1.6 -5.96046e-08
v 0.2 1.6 -5.96046e-08
v 0.4 1.6 -5.96046e-08
v 0.5 1.6 -5.96046e-08
v 0.6 1.6 -5.96046e-08
v -0.0999999 1.6 -0.1
v 0.2 1.6 -0.1
v 0.4 1.6 -0.1
v 0.5 1.6 -0.1
v 0.2 1.7 0.2
v 0.3 1.7 0.2
v -0.2 1.7 0.0999999
v 0.1 1.7 0.0999999
v 0.2 1.7 0.0999999
v 0.3 1.7 0.0999999
v -0.2 1.7 -5.96046e-08
v 0.1 1.7 -5.96046e-08
v 0.2 1.7 -5.96046e-08
v 0.3 1.7 -5.96046e-08
v 0.2 1.7 -0.1
v 0.3 1.7 -0.1
v 0.3 1.8 0.2
v 0.4 1.8 0.2
v 0.3 1.8 0.0999999
v 0.4 1.8 0.0999999
v 0.3 1.8 -5.96046e-08
v 0.4 1.8 -5.96046e-08
v 0.3 1.8 -0.1
v 0.4 1.8 -0.1
v 0.1 1.9 0.0999999
v 0.3 1.9 0.0999999
v 0.5 1.9 0.0999999
v 0.1 1.9 -5.96046e-08
v 0.3 1.9 -5.96046e-08
v 0.5 1.9 -5.96046e-08

# faces
f 3/2/1 2/2/1 1/2/1
f 4/2/1 2/2/1 3/2/1
f 8/2/1 6/2/1 5/2/1
f 9/2/1 6/2/1 8/2/1
f 11/2/1 8/2/1 7/2/1
f 12/2/1 8/2/1 11/2/1
f 13/2/1 10/2/1 9/2/1
f 14/2/1 10/2/1 13/2/1
f 18/2/1 16/2/1 15/2/1
f 19/2/1 16/2/1 18/2/1
f 21/2/1 18/2/1 17/2/1
f 22/2/1 18/2/1 21/2/1
f 23/2/1 20/2/1 19/2/1
f 24/2/1 20/2/1 23/2/1
f 28/2/1 26/2/1 25/2/1
f 29/2/1 26/2/1 28/2/1
f 31/2/1 28/2/1 27/2/1
f 32/2/1 28/2/1 31/2/1
f 33/2/1 30/2/1 29/2/1
f 34/2/1 30/2/1 33/2/1
f 37/3/1 36/3/1 35/3/1
f 38/3/1 36/3/1 37/3/1
f 43/1/1 40/1/1 39/1/1
f 44/1/1 40/1/1 43/1/1
f 45/1/1 42/1/1 41/1/1
f 46/1/1 42/1/1 45/1/1
f 51/1/1 48/1/1 47/1/1
f 52/1/1 48/1/1 51/1/1
f 53/1/1 50/1/1 49/1/1
f 54/1/1 50/1/1 53/1/1
f 58/3/1 56/3/1 55/3/1
f 59/3/1 56/3/1 58/3/1
f 61/3/1 58/3/1 57/3/1
f 62/3/1 58/3/1 61/3/1
f 63/3/1 60/3/1 59/3/1
f 64/3/1 60/3/1 63/3/1
f 68/3/1 66/3/1 65/3/1
f 69/3/1 66/3/1 68/3/1
f 71/3/1 68/3/1 67/3/1
f 72/3/1 68/3/1 71/3/1
f 73/3/1 70/3/1 69/3/1
f 74/3/1 70/3/1 73/3/1
f 78/3/1 76/3/1 75/3/1
f 79/3/1 76/3/1 78/3/1
f 81/3/1 78/3/1 77/3/1
f 82/3/1 78/3/1 81/3/1
f 83/3/1 80/3/1 79/3/1
f 84/3/1 80/3/1 83/3/1
f 88/3/1 86/3/1 85/3/1
f 89/3/1 86/3/1 88/3/1
f 91/3/1 88/3/1 87/3/1
f 92/3/1 88/3/1 91/3/1
f 93/3/1 90/3/1 89/3/1
f 94/3/1 90/3/1 93/3/1
f 98/3/1 96/3/1 95/3/1
f 99/3/1 96/3/1 98/3/1
f 101/3/1 98/3/1 97/3/1
f 102/3/1 98/3/1 101/3/1
f 103/3/1 100/3/1 99/3/1
f 104/3/1 100/3/1 103/3/1
f 105/2/2 106/2/2 109/2/2
f 109/2/2 106/2/2 110/2/2
f 107/2/2 108/2/2 111/2/2
f 111/2/2 108/2/2 112/2/2
f 113/2/2 114/2/2 115/2/2
f 115/2/2 114/2/2 116/2/2
f 117/1/2 118/1/2 121/1/2
f 121/1/2 118/1/2 122/1/2
f 119/1/2 120/1/2 123/1/2
f 123/1/2 120/1/2 124/1/2
f 125/1/2 126/1/2 129/1/2
f 129/1/2 126/1/2 130/1/2
f 127/1/2 128/1/2 131/1/2
f 131/1/2 128/1/2 132/1/2
f 133/3/2 134/3/2 137/3/2
f 137/3/2 134/3/2 138/3/2
f 135/3/2 136/3/2 139/3/2
f 139/3/2 136/3/2 140/3/2
f 138/3/2 139/3/2 141/3/2
f 141/3/2 139/3/2 142/3/2
f 141/2/2 142/2/2 143/2/2
f 143/2/2 142/2/2 144/2/2
f 145/3/2 146/3/2 149/3/2
f 149/3/2 146/3/2 150/3/2
f 147/3/2 148/3/2 151/3/2
f 151/3/2 148/3/2 152/3/2
f 150/3/2 151/3/2 153/3/2
f 153/3/2 151/3/2 154/3/2
f 155/3/2 156/3/2 159/3/2
f 159/3/2 156/3/2 160/3/2
f 157/3/2 158/3/2 161/3/2
f 161/3/2 158/3/2 162/3/2
f 160/3/2 161/3/2 163/3/2
f 163/3/2 161/3/2 164/3/2
f 165/3/2 166/3/2 169/3/2
f 169/3/2 166/3/2 170/3/2
f 167/3/2 168/3/2 171/3/2
f 171/3/2 168/3/2 172/3/2
f 170/3/2 171/3/2 173/3/2
f 173/3/2 171/3/2 174/3/2
f 175/3/2 176/3/2 179/3/2
f 179/3/2 176/3/2 180/3/2
f 177/3/2 178/3/2 181/3/2
f 181/3/2 178/3/2 182/3/2
f 180/3/2 181/3/2 183/3/2
f 183/3/2 181/3/2 184/3/2
f 185/3/2 186/3/2 187/3/2
f 187/3/2 186/3/2 188/3/2
f 192/2/3 190/2/3 189/2/3
f 194/2/3 192/2/3 191/2/3
f 195/2/3 194/2/3 193/2/3
f 196/2/3 190/2/3 192/2/3
f 196/2/3 194/2/3 195/2/3
f 196/2/3 192/2/3 194/2/3
f 198/1/3 197/1/3 196/1/3
f 199/1/3 197/1/3 198/1/3
f 203/1/3 200/1/3 199/1/3
f 204/1/3 200/1/3 203/1/3
f 206/3/3 202/3/3 201/3/3
f 207/3/3 202/3/3 206/3/3
f 209/3/3 206/3/3 205/3/3
f 210/3/3 206/3/3 209/3/3
f 212/3/3 209/3/3 208/3/3
f 213/3/3 209/3/3 212/3/3
f 215/3/3 212/3/3 211/3/3
f 216/3/3 212/3/3 215/3/3
f 217/3/3 215/3/3 214/3/3
f 218/3/3 215/3/3 217/3/3
f 222/2/3 220/2/3 219/2/3
f 223/2/3 220/2/3 222/2/3
f 225/2/3 222/2/3 221/2/3
f 226/2/3 222/2/3 225/2/3
f 228/2/3 225/2/3 224/2/3
f 229/2/3 225/2/3 228/2/3
f 230/2/3 220/2/3 223/2/3
f 232/2/3 228/2/3 227/2/3
f 233/2/3 230/2/3 223/2/3
f 234/3/3 231/3/3 230/3/3
f 234/2/3 230/2/3 233/2/3
f 235/3/3 231/3/3 234/3/3
f 236/2/3 233/2/3 232/2/3
f 236/2/3 232/2/3 227/2/3
f 237/2/3 233/2/3 236/2/3
f 238/2/3 233/2/3 237/2/3
f 239/1/3 235/1/3 234/1/3
f 240/3/3 231/3/3 235/3/3
f 240/1/3 235/1/3 239/1/3
f 241/3/3 231/3/3 240/3/3
f 243/3/3 238/3/3 237/3/3
f 244/1/3 239/1/3 238/1/3
f 244/3/3 238/3/3 243/3/3
f 245/1/3 239/1/3 244/1/3
f 246/2/3 241/2/3 240/2/3
f 248/3/3 243/3/3 242/3/3
f 249/3/3 243/3/3 248/3/3
f 250/3/3 245/3/3 244/3/3
f 251/2/3 246/2/3 245/2/3
f 251/3/3 245/3/3 250/3/3
f 252/2/3 241/2/3 246/2/3
f 252/2/3 246/2/3 251/2/3
f 254/3/3 248/3/3 247/3/3
f 255/3/3 248/3/3 254/3/3
f 256/3/3 250/3/3 249/3/3
f 257/3/3 250/3/3 256/3/3
f 259/3/3 254/3/3 253/3/3
f 260/3/3 254/3/3 259/3/3
f 261/3/3 256/3/3 255/3/3
f 262/3/3 256/3/3 261/3/3
f 264/3/3 259/3/3 258/3/3
f 265/3/3 259/3/3 264/3/3
f 266/3/3 261/3/3 260/3/3
f 267/3/3 261/3/3 266/3/3
f 268/3/3 264/3/3 263/3/3
f 269/3/3 266/3/3 265/3/3
f 270/3/3 266/3/3 269/3/3
f 271/3/3 268/3/3 263/3/3
f 271/3/3 269/3/3 268/3/3
f 272/3/3 269/3/3 271/3/3
f 273/2/4 274/2/4 276/2/4
f 276/2/4 274/2/4 277/2/4
f 275/2/4 276/2/4 279/2/4
f 279/2/4 276/2/4 280/2/4
f 278/2/4 279/2/4 282/2/4
f 282/2/4 279/2/4 283/2/4
f 277/2/4 274/2/4 284/2/4
f 281/2/4 282/2/4 286/2/4
f 277/2/4 284/2/4 287/2/4
f 284/3/4 285/3/4 288/3/4
f 287/2/4 284/2/4 288/2/4
f 288/3/4 285/3/4 289/3/4
f 286/2/4 287/2/4 290/2/4
f 281/2/4 286/2/4 290/2/4
f 290/2/4 287/2/4 291/2/4
f 291/2/4 287/2/4 292/2/4
f 288/1/4 289/1/4 293/1/4
f 289/3/4 285/3/4 294/3/4
f 293/1/4 289/1/4 294/1/4
f 294/3/4 285/3/4 295/3/4
f 291/3/4 292/3/4 297/3/4
f 292/1/4 293/1/4 298/1/4
f 297/3/4 292/3/4 298/3/4
f 298/1/4 293/1/4 299/1/4
f 294/2/4 295/2/4 300/2/4
f 296/3/4 297/3/4 302/3/4
f 302/3/4 297/3/4 303/3/4
f 298/3/4 299/3/4 304/3/4
f 299/2/4 300/2/4 305/2/4
f 304/3/4 299/3/4 305/3/4
f 300/2/4 295/2/4 306/2/4
f 305/2/4 300/2/4 306/2/4
f 301/3/4 302/3/4 308/3/4
f 308/3/4 302/3/4 309/3/4
f 303/3/4 304/3/4 310/3/4
f 310/3/4 304/3/4 311/3/4
f 307/3/4 308/3/4 313/3/4
f 313/3/4 308/3/4 314/3/4
f 309/3/4 310/3/4 315/3/4
f 315/3/4 310/3/4 316/3/4
f 312/3/4 313/3/4 318/3/4
f 318/3/4 313/3/4 319/3/4
f 314/3/4 315/3/4 320/3/4
f 320/3/4 315/3/4 321/3/4
f 317/3/4 318/3/4 322/3/4
f 319/3/4 320/3/4 323/3/4
f 323/3/4 320/3/4 324/3/4
f 317/3/4 322/3/4 325/3/4
f 322/3/4 323/3/4 325/3/4
f 325/3/4 323/3/4 326/3/4
f 327/2/4 328/2/4 330/2/4
f 329/2/4 330/2/4 332/2/4
f 331/2/4 332/2/4 333/2/4
f 330/2/4 328/2/4 334/2/4
f 333/2/4 332/2/4 334/2/4
f 332/2/4 330/2/4 334/2/4
f 334/1/4 335/1/4 336/1/4
f 336/1/4 335/1/4 337/1/4
f 337/1/4 338/1/4 341/1/4
f 341/1/4 338/1/4 342/1/4
f 339/3/4 340/3/4 344/3/4
f 344/3/4 340/3/4 345/3/4
f 343/3/4 344/3/4 347/3/4
f 347/3/4 344/3/4 348/3/4
f 346/3/4 347/3/4 350/3/4
f 350/3/4 347/3/4 351/3/4
f 349/3/4 350/3/4 353/3/4
f 353/3/4 350/3/4 354/3/4
f 352/3/4 353/3/4 355/3/4
f 355/3/4 353/3/4 356/3/4
f 359/3/5 358/3/5 357/3/5
f 360/3/5 358/3/5 359/3/5
f 364/3/5 362/3/5 361/3/5
f 365/3/5 362/3/5 364/3/5
f 366/3/5 364/3/5 363/3/5
f 367/3/5 364/3/5 366/3/5
f 369/3/5 368/3/5 367/3/5
f 370/3/5 368/3/5 369/3/5
f 376/3/5 372/3/5 371/3/5
f 377/3/5 372/3/5 376/3/5
f 378/2/5 374/2/5 373/2/5
f 379/2/5 374/2/5 378/2/5
f 380/3/5 376/3/5 375/3/5
f 381/3/5 376/3/5 380/3/5
f 383/3/5 382/3/5 381/3/5
f 384/3/5 382/3/5 383/3/5
f 390/2/5 386/2/5 385/2/5
f 391/2/5 386/2/5 390/2/5
f 393/3/5 388/3/5 387/3/5
f 394/3/5 388/3/5 393/3/5
f 395/2/5 390/2/5 389/2/5
f 396/2/5 390/2/5 395/2/5
f 398/3/5 393/3/5 392/3/5
f 399/3/5 393/3/5 398/3/5
f 401/2/5 397/2/5 396/2/5
f 402/2/5 397/2/5 401/2/5
f 403/3/5 400/3/5 399/3/5
f 404/3/5 400/3/5 403/3/5
f 410/2/5 406/2/5 405/2/5
f 411/2/5 406/2/5 410/2/5
f 413/3/5 408/3/5 407/3/5
f 414/3/5 408/3/5 413/3/5
f 415/2/5 410/2/5 409/2/5
f 416/2/5 410/2/5 415/2/5
f 418/3/5 413/3/5 412/3/5
f 419/3/5 413/3/5 418/3/5
f 421/2/5 417/2/5 416/2/5
f 422/2/5 417/2/5 421/2/5
f 423/3/5 420/3/5 419/3/5
f 424/3/5 420/3/5 423/3/5
f 430/2/5 426/2/5 425/2/5
f 431/2/5 426/2/5 430/2/5
f 433/3/5 428/3/5 427/3/5
f 434/3/5 428/3/5 433/3/5
f 435/2/5 430/2/5 429/2/5
f 436/2/5 430/2/5 435/2/5
f 438/3/5 433/3/5 432/3/5
f 439/3/5 433/3/5 438/3/5
f 441/2/5 437/2/5 436/2/5
f 442/2/5 437/2/5 441/2/5
f 443/3/5 440/3/5 439/3/5
f 444/3/5 440/3/5 443/3/5
f 447/1/5 446/1/5 445/1/5
f 448/1/5 446/1/5 447/1/5
f 451/1/5 450/1/5 449/1/5
f 452/1/5 450/1/5 451/1/5
f 455/1/5 454/1/5 453/1/5
f 456/1/5 454/1/5 455/1/5
f 459/1/5 458/1/5 457/1/5
f 460/1/5 458/1/5 459/1/5
f 461/3/6 462/3/6 463/3/6
f 463/3/6 462/3/6 464/3/6
f 464/3/6 465/3/6 467/3/6
f 467/3/6 465/3/6 468/3/6
f 466/3/6 467/3/6 469/3/6
f 469/3/6 467/3/6 470/3/6
f 471/3/6 472/3/6 473/3/6
f 473/3/6 472/3/6 474/3/6
f 474/3/6 475/3/6 477/3/6
f 477/3/6 475/3/6 478/3/6
f 476/3/6 477/3/6 479/3/6
f 479/3/6 477/3/6 480/3/6
f 481/3/6 482/3/6 483/3/6
f 483/3/6 482/3/6 484/3/6
f 484/3/6 485/3/6 487/3/6
f 487/3/6 485/3/6 488/3/6
f 486/3/6 487/3/6 489/3/6
f 489/3/6 487/3/6 490/3/6
f 491/3/6 492/3/6 493/3/6
f 493/3/6 492/3/6 494/3/6
f 494/3/6 495/3/6 497/3/6
f 497/3/6 495/3/6 498/3/6
f 496/3/6 497/3/6 499/3/6
f 499/3/6 497/3/6 500/3/6
f 501/2/6 502/2/6 505/2/6
f 505/2/6 502/2/6 506/2/6
f 503/3/6 504/3/6 507/3/6
f 507/3/6 504/3/6 508/3/6
f 508/3/6 509/3/6 513/3/6
f 513/3/6 509/3/6 514/3/6
f 510/2/6 511/2/6 515/2/6
f 515/2/6 511/2/6 516/2/6
f 512/3/6 513/3/6 517/3/6
f 517/3/6 513/3/6 518/3/6
f 519/1/6 520/1/6 523/1/6
f 523/1/6 520/1/6 524/1/6
f 521/2/6 522/2/6 525/2/6
f 525/2/6 522/2/6 526/2/6
f 527/1/6 528/1/6 529/1/6
f 529/1/6 528/1/6 530/1/6
f 531/1/6 532/1/6 533/1/6
f 533/1/6 532/1/6 534/1/6
f 535/1/6 536/1/6 537/1/6
f 537/1/6 536/1/6 538/1/6
f 539/3/6 540/3/6 542/3/6
f 540/2/6 541/2/6 543/2/6
f 542/3/6 540/3/6 543/3/6
f 543/2/6 541/2/6 544/2/6
