# MagicaVoxel @ Ephtracy

# group
o 

# material
mtllib 4 reg.mtl
usemtl palette

# normals
vn -1 0 0
vn 1 0 0
vn 0 0 1
vn 0 0 -1
vn 0 -1 0
vn 0 1 0

# texcoords
vt 0.966797 0.5
vt 0.990234 0.5

# verts
v -0.3 1.6 0.1
v -0.3 1.6 -0.3
v -0.3 2.1 0.1
v -0.3 2.1 -0.3
v -0.2 1.6 0.2
v -0.2 1.6 0.1
v -0.2 1.6 -0.3
v -0.2 1.6 -0.4
v -0.2 2.1 0.2
v -0.2 2.1 0.1
v -0.2 2.1 -0.3
v -0.2 2.1 -0.4
v -0.1 1.7 0.3
v -0.1 1.7 0.2
v -0.1 2.1 0.3
v -0.1 2.1 0.2
v -0.1 2.4 0.7
v -0.1 2.4 0.5
v -0.1 2.5 0.7
v -0.1 2.5 0.5
v -2.98023e-08 1.7 -0.4
v -2.98023e-08 1.7 -0.7
v -2.98023e-08 1.8 -0.5
v -2.98023e-08 1.8 -0.7
v -2.98023e-08 1.8 -0.8
v -2.98023e-08 1.9 0.2
v -2.98023e-08 1.9 0.1
v -2.98023e-08 2 0.4
v -2.98023e-08 2 0.3
v -2.98023e-08 2 0.2
v -2.98023e-08 2 0.1
v -2.98023e-08 2.1 0.5
v -2.98023e-08 2.1 0.4
v -2.98023e-08 2.1 0.3
v -2.98023e-08 2.1 0.1
v -2.98023e-08 2.1 -0.3
v -2.98023e-08 2.1 -0.4
v -2.98023e-08 2.2 0.6
v -2.98023e-08 2.2 0.5
v -2.98023e-08 2.2 0.4
v -2.98023e-08 2.2 0.2
v -2.98023e-08 2.2 -0.4
v -2.98023e-08 2.2 -0.5
v -2.98023e-08 2.2 -0.7
v -2.98023e-08 2.2 -0.8
v -2.98023e-08 2.3 0.7
v -2.98023e-08 2.3 0.6
v -2.98023e-08 2.3 0.5
v -2.98023e-08 2.3 0.4
v -2.98023e-08 2.3 0.2
v -2.98023e-08 2.3 0.1
v -2.98023e-08 2.3 -0.3
v -2.98023e-08 2.3 -0.4
v -2.98023e-08 2.3 -0.5
v -2.98023e-08 2.3 -0.7
v -2.98023e-08 2.4 0.8
v -2.98023e-08 2.4 0.7
v -2.98023e-08 2.4 0.5
v -2.98023e-08 2.4 0.4
v -2.98023e-08 2.4 0.1
v -2.98023e-08 2.4 -0.3
v -2.98023e-08 2.5 0.8
v -2.98023e-08 2.5 0.7
v -2.98023e-08 2.5 0.5
v -2.98023e-08 2.5 0.4
v 0.1 2 0.1
v 0.1 2 0
v 0.1 2 -0.2
v 0.1 2 -0.3
v 0.1 2.1 0.1
v 0.1 2.1 0
v 0.1 2.1 -0.2
v 0.1 2.1 -0.3
v 0.2 1.9 0.2
v 0.2 1.9 0.1
v 0.2 2 0.2
v 0.2 2 0.1
v 0.2 2 0
v 0.2 2 -0.2
v 0.2 2.1 0
v 0.2 2.1 -0.2
v -0.1 1.9 0.2
v -0.1 1.9 0.1
v -0.1 2 0.2
v -0.1 2 0.1
v -0.1 2 0
v -0.1 2 -0.2
v -0.1 2.1 0
v -0.1 2.1 -0.2
v -2.98023e-08 2 0.1
v -2.98023e-08 2 0
v -2.98023e-08 2 -0.2
v -2.98023e-08 2 -0.3
v -2.98023e-08 2.1 0.1
v -2.98023e-08 2.1 0
v -2.98023e-08 2.1 -0.2
v -2.98023e-08 2.1 -0.3
v 0.1 1.7 -0.4
v 0.1 1.7 -0.7
v 0.1 1.8 -0.5
v 0.1 1.8 -0.7
v 0.1 1.8 -0.8
v 0.1 1.9 0.2
v 0.1 1.9 0.1
v 0.1 2 0.4
v 0.1 2 0.3
v 0.1 2 0.2
v 0.1 2 0.1
v 0.1 2.1 0.5
v 0.1 2.1 0.4
v 0.1 2.1 0.3
v 0.1 2.1 0.1
v 0.1 2.1 -0.3
v 0.1 2.1 -0.4
v 0.1 2.2 0.6
v 0.1 2.2 0.5
v 0.1 2.2 0.4
v 0.1 2.2 0.2
v 0.1 2.2 -0.4
v 0.1 2.2 -0.5
v 0.1 2.2 -0.7
v 0.1 2.2 -0.8
v 0.1 2.3 0.7
v 0.1 2.3 0.6
v 0.1 2.3 0.5
v 0.1 2.3 0.4
v 0.1 2.3 0.2
v 0.1 2.3 0.1
v 0.1 2.3 -0.3
v 0.1 2.3 -0.4
v 0.1 2.3 -0.5
v 0.1 2.3 -0.7
v 0.1 2.4 0.8
v 0.1 2.4 0.7
v 0.1 2.4 0.5
v 0.1 2.4 0.4
v 0.1 2.4 0.1
v 0.1 2.4 -0.3
v 0.1 2.5 0.8
v 0.1 2.5 0.7
v 0.1 2.5 0.5
v 0.1 2.5 0.4
v 0.2 1.7 0.3
v 0.2 1.7 0.2
v 0.2 2.1 0.3
v 0.2 2.1 0.2
v 0.2 2.4 0.7
v 0.2 2.4 0.5
v 0.2 2.5 0.7
v 0.2 2.5 0.5
v 0.3 1.6 0.2
v 0.3 1.6 0.1
v 0.3 1.6 -0.3
v 0.3 1.6 -0.4
v 0.3 2.1 0.2
v 0.3 2.1 0.1
v 0.3 2.1 -0.3
v 0.3 2.1 -0.4
v 0.4 1.6 0.1
v 0.4 1.6 -0.3
v 0.4 2.1 0.1
v 0.4 2.1 -0.3
v -2.98023e-08 2.4 0.8
v -2.98023e-08 2.5 0.8
v 0.1 2.4 0.8
v 0.1 2.5 0.8
v -0.1 2.4 0.7
v -0.1 2.5 0.7
v -2.98023e-08 2.3 0.7
v -2.98023e-08 2.4 0.7
v -2.98023e-08 2.5 0.7
v 0.1 2.3 0.7
v 0.1 2.4 0.7
v 0.1 2.5 0.7
v 0.2 2.4 0.7
v 0.2 2.5 0.7
v -2.98023e-08 2.2 0.6
v -2.98023e-08 2.3 0.6
v 0.1 2.2 0.6
v 0.1 2.3 0.6
v -2.98023e-08 2.1 0.5
v -2.98023e-08 2.2 0.5
v 0.1 2.1 0.5
v 0.1 2.2 0.5
v -2.98023e-08 2 0.4
v -2.98023e-08 2.1 0.4
v 0.1 2 0.4
v 0.1 2.1 0.4
v -0.1 1.7 0.3
v -0.1 2.1 0.3
v -2.98023e-08 2 0.3
v -2.98023e-08 2.1 0.3
v 0.1 2 0.3
v 0.1 2.1 0.3
v 0.2 1.7 0.3
v 0.2 2.1 0.3
v -0.2 1.6 0.2
v -0.2 2.1 0.2
v -0.1 1.7 0.2
v -0.1 2.1 0.2
v -2.98023e-08 2.2 0.2
v -2.98023e-08 2.3 0.2
v 0.1 2.2 0.2
v 0.1 2.3 0.2
v 0.2 1.7 0.2
v 0.2 2.1 0.2
v 0.3 1.6 0.2
v 0.3 2.1 0.2
v -0.3 1.6 0.1
v -0.3 2.1 0.1
v -0.2 1.6 0.1
v -0.2 2.1 0.1
v -0.1 1.9 0.1
v -0.1 2 0.1
v -2.98023e-08 1.9 0.1
v -2.98023e-08 2 0.1
v -2.98023e-08 2.3 0.1
v -2.98023e-08 2.4 0.1
v 0.1 1.9 0.1
v 0.1 2 0.1
v 0.1 2.3 0.1
v 0.1 2.4 0.1
v 0.2 1.9 0.1
v 0.2 2 0.1
v 0.3 1.6 0.1
v 0.3 2.1 0.1
v 0.4 1.6 0.1
v 0.4 2.1 0.1
v -0.1 2 -0.2
v -0.1 2.1 -0.2
v -2.98023e-08 2 -0.2
v -2.98023e-08 2.1 -0.2
v 0.1 2 -0.2
v 0.1 2.1 -0.2
v 0.2 2 -0.2
v 0.2 2.1 -0.2
v -2.98023e-08 2 -0.3
v -2.98023e-08 2.1 -0.3
v -2.98023e-08 2.3 -0.3
v 0.1 2 -0.3
v 0.1 2.1 -0.3
v 0.1 2.3 -0.3
v -2.98023e-08 2.2 -0.5
v -2.98023e-08 2.3 -0.5
v 0.1 2.2 -0.5
v 0.1 2.3 -0.5
v -2.98023e-08 1.8 -0.7
v -2.98023e-08 2.2 -0.7
v 0.1 1.8 -0.7
v 0.1 2.2 -0.7
v -0.1 2.4 0.5
v -0.1 2.5 0.5
v -2.98023e-08 2.3 0.5
v -2.98023e-08 2.4 0.5
v -2.98023e-08 2.5 0.5
v 0.1 2.3 0.5
v 0.1 2.4 0.5
v 0.1 2.5 0.5
v 0.2 2.4 0.5
v 0.2 2.5 0.5
v -2.98023e-08 2.2 0.4
v -2.98023e-08 2.3 0.4
v -2.98023e-08 2.4 0.4
v -2.98023e-08 2.5 0.4
v 0.1 2.2 0.4
v 0.1 2.3 0.4
v 0.1 2.4 0.4
v 0.1 2.5 0.4
v -0.1 1.9 0.2
v -0.1 2 0.2
v -2.98023e-08 1.9 0.2
v -2.98023e-08 2 0.2
v 0.1 1.9 0.2
v 0.1 2 0.2
v 0.2 1.9 0.2
v 0.2 2 0.2
v -2.98023e-08 2 0.1
v -2.98023e-08 2.1 0.1
v -2.98023e-08 2.3 0.1
v 0.1 2 0.1
v 0.1 2.1 0.1
v 0.1 2.3 0.1
v -0.1 2 0
v -0.1 2.1 0
v -2.98023e-08 2 0
v -2.98023e-08 2.1 0
v 0.1 2 0
v 0.1 2.1 0
v 0.2 2 0
v 0.2 2.1 0
v -0.3 1.6 -0.3
v -0.3 2.1 -0.3
v -0.2 1.6 -0.3
v -0.2 2.1 -0.3
v -2.98023e-08 2.3 -0.3
v -2.98023e-08 2.4 -0.3
v 0.1 2.3 -0.3
v 0.1 2.4 -0.3
v 0.3 1.6 -0.3
v 0.3 2.1 -0.3
v 0.4 1.6 -0.3
v 0.4 2.1 -0.3
v -0.2 1.6 -0.4
v -0.2 2.1 -0.4
v -2.98023e-08 1.7 -0.4
v -2.98023e-08 2.1 -0.4
v -2.98023e-08 2.2 -0.4
v -2.98023e-08 2.3 -0.4
v 0.1 1.7 -0.4
v 0.1 2.1 -0.4
v 0.1 2.2 -0.4
v 0.1 2.3 -0.4
v 0.3 1.6 -0.4
v 0.3 2.1 -0.4
v -2.98023e-08 1.8 -0.5
v -2.98023e-08 2.2 -0.5
v 0.1 1.8 -0.5
v 0.1 2.2 -0.5
v -2.98023e-08 1.7 -0.7
v -2.98023e-08 1.8 -0.7
v -2.98023e-08 2.2 -0.7
v -2.98023e-08 2.3 -0.7
v 0.1 1.7 -0.7
v 0.1 1.8 -0.7
v 0.1 2.2 -0.7
v 0.1 2.3 -0.7
v -2.98023e-08 1.8 -0.8
v -2.98023e-08 2.2 -0.8
v 0.1 1.8 -0.8
v 0.1 2.2 -0.8
v -0.2 1.6 0.2
v 0.3 1.6 0.2
v -0.3 1.6 0.1
v -0.2 1.6 0.1
v 0.3 1.6 0.1
v 0.4 1.6 0.1
v -0.3 1.6 -0.3
v -0.2 1.6 -0.3
v 0.3 1.6 -0.3
v 0.4 1.6 -0.3
v -0.2 1.6 -0.4
v 0.3 1.6 -0.4
v -0.1 1.7 0.3
v 0.2 1.7 0.3
v -0.1 1.7 0.2
v 0.2 1.7 0.2
v -2.98023e-08 1.7 -0.4
v 0.1 1.7 -0.4
v -2.98023e-08 1.7 -0.7
v 0.1 1.7 -0.7
v -2.98023e-08 1.8 -0.7
v 0.1 1.8 -0.7
v -2.98023e-08 1.8 -0.8
v 0.1 1.8 -0.8
v -2.98023e-08 2 0.4
v 0.1 2 0.4
v -2.98023e-08 2 0.3
v 0.1 2 0.3
v -0.1 2 0.2
v -2.98023e-08 2 0.2
v 0.1 2 0.2
v 0.2 2 0.2
v -0.1 2 0.1
v -2.98023e-08 2 0.1
v 0.1 2 0.1
v 0.2 2 0.1
v -2.98023e-08 2.1 0.5
v 0.1 2.1 0.5
v -2.98023e-08 2.1 0.4
v 0.1 2.1 0.4
v -2.98023e-08 2.2 0.6
v 0.1 2.2 0.6
v -2.98023e-08 2.2 0.5
v 0.1 2.2 0.5
v -2.98023e-08 2.2 -0.5
v 0.1 2.2 -0.5
v -2.98023e-08 2.2 -0.7
v 0.1 2.2 -0.7
v -2.98023e-08 2.3 0.7
v 0.1 2.3 0.7
v -2.98023e-08 2.3 0.6
v 0.1 2.3 0.6
v -2.98023e-08 2.3 0.1
v 0.1 2.3 0.1
v -2.98023e-08 2.3 -0.3
v 0.1 2.3 -0.3
v -2.98023e-08 2.4 0.8
v 0.1 2.4 0.8
v -0.1 2.4 0.7
v -2.98023e-08 2.4 0.7
v 0.1 2.4 0.7
v 0.2 2.4 0.7
v -0.1 2.4 0.5
v -2.98023e-08 2.4 0.5
v 0.1 2.4 0.5
v 0.2 2.4 0.5
v -2.98023e-08 2.4 0.4
v 0.1 2.4 0.4
v -2.98023e-08 1.8 -0.5
v 0.1 1.8 -0.5
v -2.98023e-08 1.8 -0.7
v 0.1 1.8 -0.7
v -0.1 1.9 0.2
v -2.98023e-08 1.9 0.2
v 0.1 1.9 0.2
v 0.2 1.9 0.2
v -0.1 1.9 0.1
v -2.98023e-08 1.9 0.1
v 0.1 1.9 0.1
v 0.2 1.9 0.1
v -2.98023e-08 2 0.1
v 0.1 2 0.1
v -0.1 2 0
v -2.98023e-08 2 0
v 0.1 2 0
v 0.2 2 0
v -0.1 2 -0.2
v -2.98023e-08 2 -0.2
v 0.1 2 -0.2
v 0.2 2 -0.2
v -2.98023e-08 2 -0.3
v 0.1 2 -0.3
v -0.1 2.1 0.3
v -2.98023e-08 2.1 0.3
v 0.1 2.1 0.3
v 0.2 2.1 0.3
v -0.2 2.1 0.2
v -0.1 2.1 0.2
v 0.2 2.1 0.2
v 0.3 2.1 0.2
v -0.3 2.1 0.1
v -0.2 2.1 0.1
v -2.98023e-08 2.1 0.1
v 0.1 2.1 0.1
v 0.3 2.1 0.1
v 0.4 2.1 0.1
v -0.1 2.1 0
v -2.98023e-08 2.1 0
v 0.1 2.1 0
v 0.2 2.1 0
v -0.1 2.1 -0.2
v -2.98023e-08 2.1 -0.2
v 0.1 2.1 -0.2
v 0.2 2.1 -0.2
v -0.3 2.1 -0.3
v -0.2 2.1 -0.3
v -2.98023e-08 2.1 -0.3
v 0.1 2.1 -0.3
v 0.3 2.1 -0.3
v 0.4 2.1 -0.3
v -0.2 2.1 -0.4
v -2.98023e-08 2.1 -0.4
v 0.1 2.1 -0.4
v 0.3 2.1 -0.4
v -2.98023e-08 2.2 0.4
v 0.1 2.2 0.4
v -2.98023e-08 2.2 0.2
v 0.1 2.2 0.2
v -2.98023e-08 2.2 -0.4
v 0.1 2.2 -0.4
v -2.98023e-08 2.2 -0.5
v 0.1 2.2 -0.5
v -2.98023e-08 2.2 -0.7
v 0.1 2.2 -0.7
v -2.98023e-08 2.2 -0.8
v 0.1 2.2 -0.8
v -2.98023e-08 2.3 0.5
v 0.1 2.3 0.5
v -2.98023e-08 2.3 0.4
v 0.1 2.3 0.4
v -2.98023e-08 2.3 0.2
v 0.1 2.3 0.2
v -2.98023e-08 2.3 0.1
v 0.1 2.3 0.1
v -2.98023e-08 2.3 -0.3
v 0.1 2.3 -0.3
v -2.98023e-08 2.3 -0.4
v 0.1 2.3 -0.4
v -2.98023e-08 2.3 -0.5
v 0.1 2.3 -0.5
v -2.98023e-08 2.3 -0.7
v 0.1 2.3 -0.7
v -2.98023e-08 2.4 0.1
v 0.1 2.4 0.1
v -2.98023e-08 2.4 -0.3
v 0.1 2.4 -0.3
v -2.98023e-08 2.5 0.8
v 0.1 2.5 0.8
v -0.1 2.5 0.7
v -2.98023e-08 2.5 0.7
v 0.1 2.5 0.7
v 0.2 2.5 0.7
v -0.1 2.5 0.5
v -2.98023e-08 2.5 0.5
v 0.1 2.5 0.5
v 0.2 2.5 0.5
v -2.98023e-08 2.5 0.4
v 0.1 2.5 0.4

# faces
f 3/1/1 2/1/1 1/1/1
f 4/1/1 2/1/1 3/1/1
f 9/1/1 6/1/1 5/1/1
f 10/1/1 6/1/1 9/1/1
f 11/1/1 8/1/1 7/1/1
f 12/1/1 8/1/1 11/1/1
f 15/1/1 14/1/1 13/1/1
f 16/1/1 14/1/1 15/1/1
f 19/1/1 18/1/1 17/1/1
f 20/1/1 18/1/1 19/1/1
f 23/1/1 22/1/1 21/1/1
f 24/1/1 22/1/1 23/1/1
f 30/1/1 27/1/1 26/1/1
f 31/1/1 27/1/1 30/1/1
f 33/1/1 29/1/1 28/1/1
f 34/1/1 29/1/1 33/1/1
f 37/1/1 23/1/1 21/1/1
f 39/1/1 34/1/1 33/1/1
f 39/1/1 35/1/1 34/1/1
f 39/1/1 33/1/1 32/1/1
f 40/1/1 35/1/1 39/1/1
f 41/1/1 35/1/1 40/1/1
f 42/1/1 37/1/1 36/1/1
f 42/1/1 23/1/1 37/1/1
f 43/1/1 23/1/1 42/1/1
f 44/1/1 25/1/1 24/1/1
f 45/1/1 25/1/1 44/1/1
f 47/1/1 39/1/1 38/1/1
f 47/1/1 40/1/1 39/1/1
f 48/1/1 40/1/1 47/1/1
f 49/1/1 40/1/1 48/1/1
f 50/1/1 35/1/1 41/1/1
f 51/1/1 35/1/1 50/1/1
f 52/1/1 42/1/1 36/1/1
f 53/1/1 42/1/1 52/1/1
f 54/1/1 44/1/1 43/1/1
f 55/1/1 44/1/1 54/1/1
f 57/1/1 47/1/1 46/1/1
f 57/1/1 48/1/1 47/1/1
f 58/1/1 48/1/1 57/1/1
f 60/1/1 52/1/1 51/1/1
f 61/1/1 52/1/1 60/1/1
f 62/1/1 57/1/1 56/1/1
f 63/1/1 57/1/1 62/1/1
f 64/1/1 59/1/1 58/1/1
f 65/1/1 59/1/1 64/1/1
f 70/1/1 67/1/1 66/1/1
f 71/1/1 67/1/1 70/1/1
f 72/1/1 69/1/1 68/1/1
f 73/1/1 69/1/1 72/1/1
f 76/1/1 75/1/1 74/1/1
f 77/1/1 75/1/1 76/1/1
f 80/1/1 79/1/1 78/1/1
f 81/1/1 79/1/1 80/1/1
f 82/1/2 83/1/2 84/1/2
f 84/1/2 83/1/2 85/1/2
f 86/1/2 87/1/2 88/1/2
f 88/1/2 87/1/2 89/1/2
f 90/1/2 91/1/2 94/1/2
f 94/1/2 91/1/2 95/1/2
f 92/1/2 93/1/2 96/1/2
f 96/1/2 93/1/2 97/1/2
f 98/1/2 99/1/2 100/1/2
f 100/1/2 99/1/2 101/1/2
f 103/1/2 104/1/2 107/1/2
f 107/1/2 104/1/2 108/1/2
f 105/1/2 106/1/2 110/1/2
f 110/1/2 106/1/2 111/1/2
f 98/1/2 100/1/2 114/1/2
f 110/1/2 111/1/2 116/1/2
f 111/1/2 112/1/2 116/1/2
f 109/1/2 110/1/2 116/1/2
f 116/1/2 112/1/2 117/1/2
f 117/1/2 112/1/2 118/1/2
f 113/1/2 114/1/2 119/1/2
f 114/1/2 100/1/2 119/1/2
f 119/1/2 100/1/2 120/1/2
f 101/1/2 102/1/2 121/1/2
f 121/1/2 102/1/2 122/1/2
f 115/1/2 116/1/2 124/1/2
f 116/1/2 117/1/2 124/1/2
f 124/1/2 117/1/2 125/1/2
f 125/1/2 117/1/2 126/1/2
f 118/1/2 112/1/2 127/1/2
f 127/1/2 112/1/2 128/1/2
f 113/1/2 119/1/2 129/1/2
f 129/1/2 119/1/2 130/1/2
f 120/1/2 121/1/2 131/1/2
f 131/1/2 121/1/2 132/1/2
f 123/1/2 124/1/2 134/1/2
f 124/1/2 125/1/2 134/1/2
f 134/1/2 125/1/2 135/1/2
f 128/1/2 129/1/2 137/1/2
f 137/1/2 129/1/2 138/1/2
f 133/1/2 134/1/2 139/1/2
f 139/1/2 134/1/2 140/1/2
f 135/1/2 136/1/2 141/1/2
f 141/1/2 136/1/2 142/1/2
f 143/1/2 144/1/2 145/1/2
f 145/1/2 144/1/2 146/1/2
f 147/1/2 148/1/2 149/1/2
f 149/1/2 148/1/2 150/1/2
f 151/1/2 152/1/2 155/1/2
f 155/1/2 152/1/2 156/1/2
f 153/1/2 154/1/2 157/1/2
f 157/1/2 154/1/2 158/1/2
f 159/1/2 160/1/2 161/1/2
f 161/1/2 160/1/2 162/1/2
f 165/1/3 164/1/3 163/1/3
f 166/1/3 164/1/3 165/1/3
f 170/1/3 168/1/3 167/1/3
f 171/1/3 168/1/3 170/1/3
f 172/1/3 170/1/3 169/1/3
f 173/1/3 170/1/3 172/1/3
f 175/1/3 174/1/3 173/1/3
f 176/1/3 174/1/3 175/1/3
f 179/1/3 178/1/3 177/1/3
f 180/1/3 178/1/3 179/1/3
f 183/1/3 182/1/3 181/1/3
f 184/1/3 182/1/3 183/1/3
f 187/1/3 186/1/3 185/1/3
f 188/1/3 186/1/3 187/1/3
f 191/1/3 190/1/3 189/1/3
f 192/1/3 190/1/3 191/1/3
f 193/1/3 191/1/3 189/1/3
f 195/1/3 193/1/3 189/1/3
f 195/1/3 194/1/3 193/1/3
f 196/1/3 194/1/3 195/1/3
f 199/1/3 198/1/3 197/1/3
f 200/1/3 198/1/3 199/1/3
f 203/1/3 202/1/3 201/1/3
f 204/1/3 202/1/3 203/1/3
f 205/1/3 199/1/3 197/1/3
f 207/1/3 205/1/3 197/1/3
f 207/1/3 206/1/3 205/1/3
f 208/1/3 206/1/3 207/1/3
f 211/1/3 210/1/3 209/1/3
f 212/1/3 210/1/3 211/1/3
f 215/2/3 214/2/3 213/2/3
f 216/2/3 214/2/3 215/2/3
f 221/1/3 218/1/3 217/1/3
f 222/1/3 218/1/3 221/1/3
f 223/2/3 220/2/3 219/2/3
f 224/2/3 220/2/3 223/2/3
f 227/1/3 226/1/3 225/1/3
f 228/1/3 226/1/3 227/1/3
f 231/1/3 230/1/3 229/1/3
f 232/1/3 230/1/3 231/1/3
f 235/1/3 234/1/3 233/1/3
f 236/1/3 234/1/3 235/1/3
f 240/1/3 238/1/3 237/1/3
f 240/1/3 239/1/3 238/1/3
f 241/1/3 239/1/3 240/1/3
f 242/1/3 239/1/3 241/1/3
f 245/1/3 244/1/3 243/1/3
f 246/1/3 244/1/3 245/1/3
f 249/1/3 248/1/3 247/1/3
f 250/1/3 248/1/3 249/1/3
f 251/1/4 252/1/4 254/1/4
f 254/1/4 252/1/4 255/1/4
f 253/1/4 254/1/4 256/1/4
f 256/1/4 254/1/4 257/1/4
f 257/1/4 258/1/4 259/1/4
f 259/1/4 258/1/4 260/1/4
f 261/1/4 262/1/4 265/1/4
f 265/1/4 262/1/4 266/1/4
f 263/1/4 264/1/4 267/1/4
f 267/1/4 264/1/4 268/1/4
f 269/1/4 270/1/4 271/1/4
f 271/1/4 270/1/4 272/1/4
f 273/1/4 274/1/4 275/1/4
f 275/1/4 274/1/4 276/1/4
f 277/1/4 278/1/4 280/1/4
f 278/1/4 279/1/4 280/1/4
f 280/1/4 279/1/4 281/1/4
f 281/1/4 279/1/4 282/1/4
f 283/1/4 284/1/4 285/1/4
f 285/1/4 284/1/4 286/1/4
f 287/1/4 288/1/4 289/1/4
f 289/1/4 288/1/4 290/1/4
f 291/1/4 292/1/4 293/1/4
f 293/1/4 292/1/4 294/1/4
f 295/1/4 296/1/4 297/1/4
f 297/1/4 296/1/4 298/1/4
f 299/1/4 300/1/4 301/1/4
f 301/1/4 300/1/4 302/1/4
f 303/1/4 304/1/4 305/1/4
f 305/1/4 304/1/4 306/1/4
f 303/1/4 305/1/4 309/1/4
f 307/1/4 308/1/4 311/1/4
f 311/1/4 308/1/4 312/1/4
f 309/1/4 310/1/4 313/1/4
f 303/1/4 309/1/4 313/1/4
f 313/1/4 310/1/4 314/1/4
f 315/1/4 316/1/4 317/1/4
f 317/1/4 316/1/4 318/1/4
f 319/1/4 320/1/4 323/1/4
f 323/1/4 320/1/4 324/1/4
f 321/1/4 322/1/4 325/1/4
f 325/1/4 322/1/4 326/1/4
f 327/1/4 328/1/4 329/1/4
f 329/1/4 328/1/4 330/1/4
f 334/1/5 332/1/5 331/1/5
f 335/1/5 332/1/5 334/1/5
f 337/1/5 334/1/5 333/1/5
f 337/1/5 336/1/5 335/1/5
f 337/1/5 335/1/5 334/1/5
f 338/1/5 336/1/5 337/1/5
f 339/1/5 336/1/5 338/1/5
f 340/1/5 336/1/5 339/1/5
f 341/1/5 339/1/5 338/1/5
f 342/1/5 339/1/5 341/1/5
f 345/1/5 344/1/5 343/1/5
f 346/1/5 344/1/5 345/1/5
f 349/1/5 348/1/5 347/1/5
f 350/1/5 348/1/5 349/1/5
f 353/1/5 352/1/5 351/1/5
f 354/1/5 352/1/5 353/1/5
f 357/1/5 356/1/5 355/1/5
f 358/1/5 356/1/5 357/1/5
f 363/1/5 360/1/5 359/1/5
f 364/1/5 360/1/5 363/1/5
f 365/1/5 362/1/5 361/1/5
f 366/1/5 362/1/5 365/1/5
f 369/1/5 368/1/5 367/1/5
f 370/1/5 368/1/5 369/1/5
f 373/1/5 372/1/5 371/1/5
f 374/1/5 372/1/5 373/1/5
f 377/1/5 376/1/5 375/1/5
f 378/1/5 376/1/5 377/1/5
f 381/1/5 380/1/5 379/1/5
f 382/1/5 380/1/5 381/1/5
f 385/1/5 384/1/5 383/1/5
f 386/1/5 384/1/5 385/1/5
f 390/1/5 388/1/5 387/1/5
f 391/1/5 388/1/5 390/1/5
f 393/1/5 390/1/5 389/1/5
f 394/1/5 390/1/5 393/1/5
f 395/1/5 392/1/5 391/1/5
f 396/1/5 392/1/5 395/1/5
f 397/1/5 395/1/5 394/1/5
f 398/1/5 395/1/5 397/1/5
f 399/1/6 400/1/6 401/1/6
f 401/1/6 400/1/6 402/1/6
f 403/1/6 404/1/6 407/1/6
f 407/1/6 404/1/6 408/1/6
f 405/1/6 406/1/6 409/1/6
f 409/1/6 406/1/6 410/1/6
f 411/2/6 412/2/6 414/2/6
f 414/2/6 412/2/6 415/2/6
f 413/2/6 414/2/6 417/2/6
f 415/2/6 416/2/6 417/2/6
f 414/2/6 415/2/6 417/2/6
f 417/2/6 416/2/6 418/2/6
f 418/2/6 416/2/6 419/2/6
f 419/2/6 416/2/6 420/2/6
f 418/2/6 419/2/6 421/2/6
f 421/2/6 419/2/6 422/2/6
f 423/1/6 424/1/6 428/1/6
f 425/1/6 426/1/6 429/1/6
f 427/1/6 428/1/6 432/1/6
f 428/1/6 424/1/6 433/1/6
f 432/1/6 428/1/6 433/1/6
f 429/1/6 430/1/6 434/1/6
f 425/1/6 429/1/6 434/1/6
f 434/1/6 430/1/6 435/1/6
f 432/1/6 433/1/6 437/1/6
f 431/1/6 432/1/6 437/1/6
f 437/1/6 433/1/6 438/1/6
f 435/1/6 436/1/6 439/1/6
f 434/1/6 435/1/6 439/1/6
f 439/1/6 436/1/6 440/1/6
f 431/1/6 437/1/6 441/1/6
f 440/1/6 436/1/6 444/1/6
f 441/1/6 442/1/6 445/1/6
f 431/1/6 441/1/6 445/1/6
f 445/1/6 442/1/6 446/1/6
f 446/1/6 442/1/6 447/1/6
f 443/1/6 444/1/6 448/1/6
f 444/1/6 436/1/6 449/1/6
f 448/1/6 444/1/6 449/1/6
f 449/1/6 436/1/6 450/1/6
f 446/1/6 447/1/6 451/1/6
f 451/1/6 447/1/6 452/1/6
f 448/1/6 449/1/6 453/1/6
f 453/1/6 449/1/6 454/1/6
f 455/1/6 456/1/6 457/1/6
f 457/1/6 456/1/6 458/1/6
f 459/1/6 460/1/6 461/1/6
f 461/1/6 460/1/6 462/1/6
f 463/1/6 464/1/6 465/1/6
f 465/1/6 464/1/6 466/1/6
f 467/1/6 468/1/6 469/1/6
f 469/1/6 468/1/6 470/1/6
f 471/1/6 472/1/6 473/1/6
f 473/1/6 472/1/6 474/1/6
f 475/1/6 476/1/6 477/1/6
f 477/1/6 476/1/6 478/1/6
f 479/1/6 480/1/6 481/1/6
f 481/1/6 480/1/6 482/1/6
f 483/1/6 484/1/6 485/1/6
f 485/1/6 484/1/6 486/1/6
f 487/1/6 488/1/6 490/1/6
f 490/1/6 488/1/6 491/1/6
f 489/1/6 490/1/6 493/1/6
f 490/2/6 491/2/6 494/2/6
f 493/1/6 490/1/6 494/1/6
f 491/1/6 492/1/6 495/1/6
f 494/2/6 491/2/6 495/2/6
f 495/1/6 492/1/6 496/1/6
f 494/1/6 495/1/6 497/1/6
f 497/1/6 495/1/6 498/1/6
