# MagicaVoxel @ Ephtracy

# group
o 

# material
mtllib Ferramenta - Enxadinha.mtl
usemtl palette

# normals
vn -1 0 0
vn 1 0 0
vn 0 0 1
vn 0 0 -1
vn 0 -1 0
vn 0 1 0

# texcoords
vt 0.201172 0.5
vt 0.369141 0.5
vt 0.853516 0.5
vt 0.982422 0.5

# verts
v -0.1 0.9 0.2
v -0.1 0.9 -0.1
v -0.1 1 0.2
v -0.1 1 -0.1
v 1.49012e-08 0.4 -0.1
v 1.49012e-08 0.4 -0.2
v 1.49012e-08 0.8 -0.1
v 1.49012e-08 0.8 -0.2
v 1.49012e-08 0.9 0.3
v 1.49012e-08 0.9 0.2
v 1.49012e-08 0.9 -0.1
v 1.49012e-08 0.9 -0.2
v 1.49012e-08 1 0.3
v 1.49012e-08 1 0.2
v 1.49012e-08 1 -0.1
v 1.49012e-08 1 -0.2
v 1.49012e-08 1.1 -0.1
v 1.49012e-08 1.1 -0.2
v 0.1 0.4 -0.1
v 0.1 0.4 -0.2
v 0.1 0.8 -0.1
v 0.1 0.8 -0.2
v 0.1 0.9 0.3
v 0.1 0.9 0.2
v 0.1 0.9 -0.1
v 0.1 0.9 -0.2
v 0.1 1 0.3
v 0.1 1 0.2
v 0.1 1 -0.1
v 0.1 1 -0.2
v 0.1 1.1 -0.1
v 0.1 1.1 -0.2
v 0.2 0.9 0.2
v 0.2 0.9 -0.1
v 0.2 1 0.2
v 0.2 1 -0.1
v 1.49012e-08 0.9 0.3
v 1.49012e-08 1 0.3
v 0.1 0.9 0.3
v 0.1 1 0.3
v -0.1 0.9 0.2
v -0.1 1 0.2
v 1.49012e-08 0.9 0.2
v 1.49012e-08 1 0.2
v 0.1 0.9 0.2
v 0.1 1 0.2
v 0.2 0.9 0.2
v 0.2 1 0.2
v 1.49012e-08 0.4 -0.1
v 1.49012e-08 0.8 -0.1
v 1.49012e-08 0.9 -0.1
v 1.49012e-08 1 -0.1
v 1.49012e-08 1.1 -0.1
v 0.1 0.4 -0.1
v 0.1 0.8 -0.1
v 0.1 0.9 -0.1
v 0.1 1 -0.1
v 0.1 1.1 -0.1
v -0.1 0.9 -0.1
v -0.1 1 -0.1
v 1.49012e-08 0.9 -0.1
v 1.49012e-08 1 -0.1
v 0.1 0.9 -0.1
v 0.1 1 -0.1
v 0.2 0.9 -0.1
v 0.2 1 -0.1
v 1.49012e-08 0.4 -0.2
v 1.49012e-08 0.8 -0.2
v 1.49012e-08 0.9 -0.2
v 1.49012e-08 1 -0.2
v 1.49012e-08 1.1 -0.2
v 0.1 0.4 -0.2
v 0.1 0.8 -0.2
v 0.1 0.9 -0.2
v 0.1 1 -0.2
v 0.1 1.1 -0.2
v 1.49012e-08 0.4 -0.1
v 0.1 0.4 -0.1
v 1.49012e-08 0.4 -0.2
v 0.1 0.4 -0.2
v 1.49012e-08 0.9 0.3
v 0.1 0.9 0.3
v -0.1 0.9 0.2
v 1.49012e-08 0.9 0.2
v 0.1 0.9 0.2
v 0.2 0.9 0.2
v 1.49012e-08 0.9 -2.98023e-08
v 0.1 0.9 -2.98023e-08
v -0.1 0.9 -0.1
v 1.49012e-08 0.9 -0.1
v 0.1 0.9 -0.1
v 0.2 0.9 -0.1
v 1.49012e-08 1 0.3
v 0.1 1 0.3
v -0.1 1 0.2
v 1.49012e-08 1 0.2
v 0.1 1 0.2
v 0.2 1 0.2
v 1.49012e-08 1 -2.98023e-08
v 0.1 1 -2.98023e-08
v -0.1 1 -0.1
v 1.49012e-08 1 -0.1
v 0.1 1 -0.1
v 0.2 1 -0.1
v 1.49012e-08 1.1 -0.1
v 0.1 1.1 -0.1
v 1.49012e-08 1.1 -0.2
v 0.1 1.1 -0.2

# faces
f 3/3/1 2/3/1 1/3/1
f 4/3/1 2/3/1 3/3/1
f 7/2/1 6/2/1 5/2/1
f 8/2/1 6/2/1 7/2/1
f 11/1/1 8/1/1 7/1/1
f 12/1/1 8/1/1 11/1/1
f 13/3/1 10/3/1 9/3/1
f 14/3/1 10/3/1 13/3/1
f 15/4/1 12/4/1 11/4/1
f 16/4/1 12/4/1 15/4/1
f 17/1/1 16/1/1 15/1/1
f 18/1/1 16/1/1 17/1/1
f 19/2/2 20/2/2 21/2/2
f 21/2/2 20/2/2 22/2/2
f 21/1/2 22/1/2 25/1/2
f 25/1/2 22/1/2 26/1/2
f 23/3/2 24/3/2 27/3/2
f 27/3/2 24/3/2 28/3/2
f 25/4/2 26/4/2 29/4/2
f 29/4/2 26/4/2 30/4/2
f 29/1/2 30/1/2 31/1/2
f 31/1/2 30/1/2 32/1/2
f 33/3/2 34/3/2 35/3/2
f 35/3/2 34/3/2 36/3/2
f 39/3/3 38/3/3 37/3/3
f 40/3/3 38/3/3 39/3/3
f 43/3/3 42/3/3 41/3/3
f 44/3/3 42/3/3 43/3/3
f 47/3/3 46/3/3 45/3/3
f 48/3/3 46/3/3 47/3/3
f 54/2/3 50/2/3 49/2/3
f 55/1/3 51/1/3 50/1/3
f 55/2/3 50/2/3 54/2/3
f 56/1/3 51/1/3 55/1/3
f 57/1/3 53/1/3 52/1/3
f 58/1/3 53/1/3 57/1/3
f 59/3/4 60/3/4 61/3/4
f 61/3/4 60/3/4 62/3/4
f 63/3/4 64/3/4 65/3/4
f 65/3/4 64/3/4 66/3/4
f 67/2/4 68/2/4 72/2/4
f 68/1/4 69/1/4 73/1/4
f 72/2/4 68/2/4 73/2/4
f 69/4/4 70/4/4 74/4/4
f 73/1/4 69/1/4 74/1/4
f 70/1/4 71/1/4 75/1/4
f 74/4/4 70/4/4 75/4/4
f 75/1/4 71/1/4 76/1/4
f 79/2/5 78/2/5 77/2/5
f 80/2/5 78/2/5 79/2/5
f 84/3/5 82/3/5 81/3/5
f 85/3/5 82/3/5 84/3/5
f 87/3/5 84/3/5 83/3/5
f 87/3/5 86/3/5 85/3/5
f 87/3/5 85/3/5 84/3/5
f 88/3/5 86/3/5 87/3/5
f 89/3/5 87/3/5 83/3/5
f 90/4/5 88/4/5 87/4/5
f 90/3/5 87/3/5 89/3/5
f 91/3/5 86/3/5 88/3/5
f 91/4/5 88/4/5 90/4/5
f 92/3/5 86/3/5 91/3/5
f 93/3/6 94/3/6 96/3/6
f 96/3/6 94/3/6 97/3/6
f 95/3/6 96/3/6 99/3/6
f 97/3/6 98/3/6 99/3/6
f 96/3/6 97/3/6 99/3/6
f 99/3/6 98/3/6 100/3/6
f 95/3/6 99/3/6 101/3/6
f 99/4/6 100/4/6 102/4/6
f 101/3/6 99/3/6 102/3/6
f 100/3/6 98/3/6 103/3/6
f 102/4/6 100/4/6 103/4/6
f 103/3/6 98/3/6 104/3/6
f 105/1/6 106/1/6 107/1/6
f 107/1/6 106/1/6 108/1/6
