# MagicaVoxel @ Ephtracy

# group
o 

# material
mtllib Graminhas ocasionais - 1.mtl
usemtl palette

# normals
vn -1 0 0
vn 1 0 0
vn 0 0 1
vn 0 0 -1
vn 0 -1 0
vn 0 1 0

# texcoords
vt 0.556641 0.5
vt 0.650391 0.5
vt 0.712891 0.5
vt 0.806641 0.5

# verts
v -1.9 0 0.6
v -1.9 0 0.5
v -1.9 0 -1.7
v -1.9 0 -1.8
v -1.9 0.1 -1.7
v -1.9 0.1 -1.8
v -1.9 0.4 0.6
v -1.9 0.4 0.5
v -1.8 0 1.8
v -1.8 0 1.4
v -1.8 0 -0.1
v -1.8 0 -0.2
v -1.8 0.1 1.8
v -1.8 0.1 1.7
v -1.8 0.2 1.7
v -1.8 0.2 1.6
v -1.8 0.2 -0.1
v -1.8 0.2 -0.2
v -1.8 0.3 1.5
v -1.8 0.3 1.4
v -1.8 0.4 1.6
v -1.8 0.4 1.5
v -1.7 0.1 -1.7
v -1.7 0.1 -1.8
v -1.7 0.2 -0.1
v -1.7 0.2 -0.2
v -1.7 0.3 -1.7
v -1.7 0.3 -1.8
v -1.7 0.5 -0.1
v -1.7 0.5 -0.2
v -1.2 0 -1.2
v -1.2 0 -1.3
v -1.2 0.4 -1.2
v -1.2 0.4 -1.3
v -1 0 -0.6
v -1 0 -0.7
v -1 0.1 -0.6
v -1 0.1 -0.7
v -0.9 0.1 -0.6
v -0.9 0.1 -0.7
v -0.9 0.2 -0.6
v -0.9 0.2 -0.7
v -0.8 0 1.3
v -0.8 0 1.2
v -0.8 0.5 1.3
v -0.8 0.5 1.2
v -0.5 0 0.9
v -0.5 0 0.8
v -0.5 0 -1.8
v -0.5 0 -1.9
v -0.5 0.1 -1.8
v -0.5 0.1 -1.9
v -0.5 0.6 0.9
v -0.5 0.6 0.8
v -0.4 0.1 -1.8
v -0.4 0.1 -1.9
v -0.4 0.4 -1.8
v -0.4 0.4 -1.9
v -0.1 0 1.7
v -0.1 0 1.5
v -0.1 0.1 1.6
v -0.1 0.1 1.5
v -0.1 0.2 1.7
v -0.1 0.2 1.6
v 0 0 0.1
v 0 0 -0.1
v 0 0.1 0.1
v 0 0.1 0
v 0 0.3 0
v 0 0.3 -0.1
v 0.1 0 -1.2
v 0.1 0 -1.3
v 0.1 0.6 -1.2
v 0.1 0.6 -1.3
v 0.7 0 -0.6
v 0.7 0 -0.7
v 0.7 0.3 -0.6
v 0.7 0.3 -0.7
v 0.8 0 1
v 0.8 0 0.9
v 0.8 0.3 -0.6
v 0.8 0.3 -0.7
v 0.8 0.5 1
v 0.8 0.5 0.9
v 0.8 0.5 -0.6
v 0.8 0.5 -0.7
v 1.2 0 0
v 1.2 0 -0.2
v 1.2 0.2 0
v 1.2 0.2 -0.1
v 1.2 0.3 -0.1
v 1.2 0.3 -0.2
v 1.4 0 -0.9
v 1.4 0 -1
v 1.4 0.1 -0.9
v 1.4 0.1 -1
v 1.5 0.1 -0.9
v 1.5 0.1 -1
v 1.5 0.3 -0.9
v 1.5 0.3 -1
v 1.6 0 -1.7
v 1.6 0 -1.8
v 1.6 0.1 -1.6
v 1.6 0.1 -1.7
v 1.6 0.2 -1.7
v 1.6 0.2 -1.8
v 1.6 0.4 -1.6
v 1.6 0.4 -1.7
v 1.7 0 1.9
v 1.7 0 1.7
v 1.7 0 0.6
v 1.7 0 0.5
v 1.7 0.1 1.8
v 1.7 0.1 1.7
v 1.7 0.2 1.9
v 1.7 0.2 1.8
v 1.7 0.6 0.6
v 1.7 0.6 0.5
v -1.8 0 0.6
v -1.8 0 0.5
v -1.8 0.4 0.6
v -1.8 0.4 0.5
v -1.7 0 1.8
v -1.7 0 1.4
v -1.7 0.1 1.8
v -1.7 0.1 1.7
v -1.7 0.2 1.7
v -1.7 0.2 1.6
v -1.7 0.3 1.5
v -1.7 0.3 1.4
v -1.7 0.4 1.6
v -1.7 0.4 1.5
v -1.6 0 -1.7
v -1.6 0 -1.8
v -1.6 0.1 -0.1
v -1.6 0.1 -0.2
v -1.6 0.3 -1.7
v -1.6 0.3 -1.8
v -1.6 0.5 -0.1
v -1.6 0.5 -0.2
v -1.5 0 -0.1
v -1.5 0 -0.2
v -1.5 0.1 -0.1
v -1.5 0.1 -0.2
v -1.1 0 -1.2
v -1.1 0 -1.3
v -1.1 0.4 -1.2
v -1.1 0.4 -1.3
v -0.8 0 -0.6
v -0.8 0 -0.7
v -0.8 0.2 -0.6
v -0.8 0.2 -0.7
v -0.7 0 1.3
v -0.7 0 1.2
v -0.7 0.5 1.3
v -0.7 0.5 1.2
v -0.4 0.4 0.9
v -0.4 0.4 0.8
v -0.4 0.6 0.9
v -0.4 0.6 0.8
v -0.3 0 0.9
v -0.3 0 0.8
v -0.3 0 -1.8
v -0.3 0 -1.9
v -0.3 0.4 0.9
v -0.3 0.4 0.8
v -0.3 0.4 -1.8
v -0.3 0.4 -1.9
v 0 0 1.7
v 0 0 1.5
v 0 0.1 1.6
v 0 0.1 1.5
v 0 0.2 1.7
v 0 0.2 1.6
v 0.1 0 0.1
v 0.1 0 -0.1
v 0.1 0.1 0.1
v 0.1 0.1 0
v 0.1 0.3 0
v 0.1 0.3 -0.1
v 0.2 0 -1.2
v 0.2 0 -1.3
v 0.2 0.6 -1.2
v 0.2 0.6 -1.3
v 0.9 0 1
v 0.9 0 0.9
v 0.9 0 -0.6
v 0.9 0 -0.7
v 0.9 0.5 1
v 0.9 0.5 0.9
v 0.9 0.5 -0.6
v 0.9 0.5 -0.7
v 1.3 0 0
v 1.3 0 -0.2
v 1.3 0.2 0
v 1.3 0.2 -0.1
v 1.3 0.3 -0.1
v 1.3 0.3 -0.2
v 1.6 0.1 -0.9
v 1.6 0.1 -1
v 1.6 0.3 -0.9
v 1.6 0.3 -1
v 1.7 0 -1.7
v 1.7 0 -1.8
v 1.7 0.1 -1.6
v 1.7 0.1 -1.7
v 1.7 0.2 -1.7
v 1.7 0.2 -1.8
v 1.7 0.4 -1.6
v 1.7 0.4 -1.7
v 1.8 0 1.9
v 1.8 0 1.7
v 1.8 0 0.6
v 1.8 0 0.5
v 1.8 0 -0.9
v 1.8 0 -1
v 1.8 0.1 1.8
v 1.8 0.1 1.7
v 1.8 0.1 -0.9
v 1.8 0.1 -1
v 1.8 0.2 1.9
v 1.8 0.2 1.8
v 1.8 0.6 0.6
v 1.8 0.6 0.5
v 1.7 0 1.9
v 1.7 0.2 1.9
v 1.8 0 1.9
v 1.8 0.2 1.9
v -1.8 0 1.8
v -1.8 0.1 1.8
v -1.7 0 1.8
v -1.7 0.1 1.8
v -1.8 0.1 1.7
v -1.8 0.2 1.7
v -1.7 0.1 1.7
v -1.7 0.2 1.7
v -0.1 0 1.7
v -0.1 0.2 1.7
v 0 0 1.7
v 0 0.2 1.7
v -1.8 0.2 1.6
v -1.8 0.4 1.6
v -1.7 0.2 1.6
v -1.7 0.4 1.6
v -0.8 0 1.3
v -0.8 0.5 1.3
v -0.7 0 1.3
v -0.7 0.5 1.3
v 0.8 0 1
v 0.8 0.5 1
v 0.9 0 1
v 0.9 0.5 1
v -0.5 0 0.9
v -0.5 0.6 0.9
v -0.4 0.4 0.9
v -0.4 0.6 0.9
v -0.3 0 0.9
v -0.3 0.4 0.9
v -1.9 0 0.6
v -1.9 0.4 0.6
v -1.8 0 0.6
v -1.8 0.4 0.6
v 1.7 0 0.6
v 1.7 0.6 0.6
v 1.8 0 0.6
v 1.8 0.6 0.6
v 0 0 0.1
v 0 0.1 0.1
v 0.1 0 0.1
v 0.1 0.1 0.1
v 0 0.1 0
v 0 0.3 0
v 0.1 0.1 0
v 0.1 0.3 0
v 1.2 0 0
v 1.2 0.2 0
v 1.3 0 0
v 1.3 0.2 0
v -1.8 0 -0.1
v -1.8 0.2 -0.1
v -1.7 0.2 -0.1
v -1.7 0.5 -0.1
v -1.6 0.1 -0.1
v -1.6 0.5 -0.1
v -1.5 0 -0.1
v -1.5 0.1 -0.1
v 1.2 0.2 -0.1
v 1.2 0.3 -0.1
v 1.3 0.2 -0.1
v 1.3 0.3 -0.1
v -1 0 -0.6
v -1 0.1 -0.6
v -0.9 0.1 -0.6
v -0.9 0.2 -0.6
v -0.8 0 -0.6
v -0.8 0.2 -0.6
v 0.7 0 -0.6
v 0.7 0.3 -0.6
v 0.8 0.3 -0.6
v 0.8 0.5 -0.6
v 0.9 0 -0.6
v 0.9 0.5 -0.6
v 1.4 0 -0.9
v 1.4 0.1 -0.9
v 1.5 0.1 -0.9
v 1.5 0.3 -0.9
v 1.6 0.1 -0.9
v 1.6 0.3 -0.9
v 1.8 0 -0.9
v 1.8 0.1 -0.9
v -1.2 0 -1.2
v -1.2 0.4 -1.2
v -1.1 0 -1.2
v -1.1 0.4 -1.2
v 0.1 0 -1.2
v 0.1 0.6 -1.2
v 0.2 0 -1.2
v 0.2 0.6 -1.2
v 1.6 0.1 -1.6
v 1.6 0.4 -1.6
v 1.7 0.1 -1.6
v 1.7 0.4 -1.6
v -1.9 0 -1.7
v -1.9 0.1 -1.7
v -1.7 0.1 -1.7
v -1.7 0.3 -1.7
v -1.6 0 -1.7
v -1.6 0.3 -1.7
v 1.6 0 -1.7
v 1.6 0.1 -1.7
v 1.7 0 -1.7
v 1.7 0.1 -1.7
v -0.5 0 -1.8
v -0.5 0.1 -1.8
v -0.4 0.1 -1.8
v -0.4 0.4 -1.8
v -0.3 0 -1.8
v -0.3 0.4 -1.8
v 1.7 0.1 1.8
v 1.7 0.2 1.8
v 1.8 0.1 1.8
v 1.8 0.2 1.8
v 1.7 0 1.7
v 1.7 0.1 1.7
v 1.8 0 1.7
v 1.8 0.1 1.7
v -0.1 0.1 1.6
v -0.1 0.2 1.6
v 0 0.1 1.6
v 0 0.2 1.6
v -1.8 0.3 1.5
v -1.8 0.4 1.5
v -1.7 0.3 1.5
v -1.7 0.4 1.5
v -0.1 0 1.5
v -0.1 0.1 1.5
v 0 0 1.5
v 0 0.1 1.5
v -1.8 0 1.4
v -1.8 0.3 1.4
v -1.7 0 1.4
v -1.7 0.3 1.4
v -0.8 0 1.2
v -0.8 0.5 1.2
v -0.7 0 1.2
v -0.7 0.5 1.2
v 0.8 0 0.9
v 0.8 0.5 0.9
v 0.9 0 0.9
v 0.9 0.5 0.9
v -0.5 0 0.8
v -0.5 0.6 0.8
v -0.4 0.4 0.8
v -0.4 0.6 0.8
v -0.3 0 0.8
v -0.3 0.4 0.8
v -1.9 0 0.5
v -1.9 0.4 0.5
v -1.8 0 0.5
v -1.8 0.4 0.5
v 1.7 0 0.5
v 1.7 0.6 0.5
v 1.8 0 0.5
v 1.8 0.6 0.5
v 0 0 -0.1
v 0 0.3 -0.1
v 0.1 0 -0.1
v 0.1 0.3 -0.1
v -1.8 0 -0.2
v -1.8 0.2 -0.2
v -1.7 0.2 -0.2
v -1.7 0.5 -0.2
v -1.6 0.1 -0.2
v -1.6 0.5 -0.2
v -1.5 0 -0.2
v -1.5 0.1 -0.2
v 1.2 0 -0.2
v 1.2 0.3 -0.2
v 1.3 0 -0.2
v 1.3 0.3 -0.2
v -1 0 -0.7
v -1 0.1 -0.7
v -0.9 0.1 -0.7
v -0.9 0.2 -0.7
v -0.8 0 -0.7
v -0.8 0.2 -0.7
v 0.7 0 -0.7
v 0.7 0.3 -0.7
v 0.8 0.3 -0.7
v 0.8 0.5 -0.7
v 0.9 0 -0.7
v 0.9 0.5 -0.7
v 1.4 0 -1
v 1.4 0.1 -1
v 1.5 0.1 -1
v 1.5 0.3 -1
v 1.6 0.1 -1
v 1.6 0.3 -1
v 1.8 0 -1
v 1.8 0.1 -1
v -1.2 0 -1.3
v -1.2 0.4 -1.3
v -1.1 0 -1.3
v -1.1 0.4 -1.3
v 0.1 0 -1.3
v 0.1 0.6 -1.3
v 0.2 0 -1.3
v 0.2 0.6 -1.3
v 1.6 0.2 -1.7
v 1.6 0.4 -1.7
v 1.7 0.2 -1.7
v 1.7 0.4 -1.7
v -1.9 0 -1.8
v -1.9 0.1 -1.8
v -1.7 0.1 -1.8
v -1.7 0.3 -1.8
v -1.6 0 -1.8
v -1.6 0.3 -1.8
v 1.6 0 -1.8
v 1.6 0.2 -1.8
v 1.7 0 -1.8
v 1.7 0.2 -1.8
v -0.5 0 -1.9
v -0.5 0.1 -1.9
v -0.4 0.1 -1.9
v -0.4 0.4 -1.9
v -0.3 0 -1.9
v -0.3 0.4 -1.9
v 1.7 0 1.9
v 1.8 0 1.9
v -1.8 0 1.8
v -1.7 0 1.8
v -0.1 0 1.7
v 0 0 1.7
v 1.7 0 1.7
v 1.8 0 1.7
v -0.1 0 1.5
v 0 0 1.5
v -1.8 0 1.4
v -1.7 0 1.4
v -0.8 0 1.3
v -0.7 0 1.3
v -0.8 0 1.2
v -0.7 0 1.2
v 0.8 0 1
v 0.9 0 1
v -0.5 0 0.9
v -0.3 0 0.9
v 0.8 0 0.9
v 0.9 0 0.9
v -0.5 0 0.8
v -0.3 0 0.8
v -1.9 0 0.6
v -1.8 0 0.6
v 1.7 0 0.6
v 1.8 0 0.6
v -1.9 0 0.5
v -1.8 0 0.5
v 1.7 0 0.5
v 1.8 0 0.5
v 0 0 0.1
v 0.1 0 0.1
v 1.2 0 0
v 1.3 0 0
v -1.8 0 -0.1
v -1.5 0 -0.1
v 0 0 -0.1
v 0.1 0 -0.1
v -1.8 0 -0.2
v -1.5 0 -0.2
v 1.2 0 -0.2
v 1.3 0 -0.2
v -1 0 -0.6
v -0.8 0 -0.6
v 0.7 0 -0.6
v 0.9 0 -0.6
v -1 0 -0.7
v -0.8 0 -0.7
v 0.7 0 -0.7
v 0.9 0 -0.7
v 1.4 0 -0.9
v 1.8 0 -0.9
v 1.4 0 -1
v 1.8 0 -1
v -1.2 0 -1.2
v -1.1 0 -1.2
v 0.1 0 -1.2
v 0.2 0 -1.2
v -1.2 0 -1.3
v -1.1 0 -1.3
v 0.1 0 -1.3
v 0.2 0 -1.3
v -1.9 0 -1.7
v -1.6 0 -1.7
v 1.6 0 -1.7
v 1.7 0 -1.7
v -1.9 0 -1.8
v -1.6 0 -1.8
v -0.5 0 -1.8
v -0.3 0 -1.8
v 1.6 0 -1.8
v 1.7 0 -1.8
v -0.5 0 -1.9
v -0.3 0 -1.9
v 1.6 0.1 -1.6
v 1.7 0.1 -1.6
v 1.6 0.1 -1.7
v 1.7 0.1 -1.7
v -1.8 0.1 1.8
v -1.7 0.1 1.8
v 1.7 0.1 1.8
v 1.8 0.1 1.8
v -1.8 0.1 1.7
v -1.7 0.1 1.7
v 1.7 0.1 1.7
v 1.8 0.1 1.7
v -0.1 0.1 1.6
v 0 0.1 1.6
v -0.1 0.1 1.5
v 0 0.1 1.5
v 0 0.1 0.1
v 0.1 0.1 0.1
v 0 0.1 0
v 0.1 0.1 0
v -1.6 0.1 -0.1
v -1.5 0.1 -0.1
v -1.6 0.1 -0.2
v -1.5 0.1 -0.2
v -1 0.1 -0.6
v -0.9 0.1 -0.6
v -1 0.1 -0.7
v -0.9 0.1 -0.7
v 1.4 0.1 -0.9
v 1.5 0.1 -0.9
v 1.6 0.1 -0.9
v 1.8 0.1 -0.9
v 1.4 0.1 -1
v 1.5 0.1 -1
v 1.6 0.1 -1
v 1.8 0.1 -1
v -1.9 0.1 -1.7
v -1.7 0.1 -1.7
v -1.9 0.1 -1.8
v -1.7 0.1 -1.8
v -0.5 0.1 -1.8
v -0.4 0.1 -1.8
v -0.5 0.1 -1.9
v -0.4 0.1 -1.9
v 1.7 0.2 1.9
v 1.8 0.2 1.9
v 1.7 0.2 1.8
v 1.8 0.2 1.8
v -1.8 0.2 1.7
v -1.7 0.2 1.7
v -0.1 0.2 1.7
v 0 0.2 1.7
v -1.8 0.2 1.6
v -1.7 0.2 1.6
v -0.1 0.2 1.6
v 0 0.2 1.6
v 1.2 0.2 0
v 1.3 0.2 0
v -1.8 0.2 -0.1
v -1.7 0.2 -0.1
v 1.2 0.2 -0.1
v 1.3 0.2 -0.1
v -1.8 0.2 -0.2
v -1.7 0.2 -0.2
v -0.9 0.2 -0.6
v -0.8 0.2 -0.6
v -0.9 0.2 -0.7
v -0.8 0.2 -0.7
v 1.6 0.2 -1.7
v 1.7 0.2 -1.7
v 1.6 0.2 -1.8
v 1.7 0.2 -1.8
v -1.8 0.3 1.5
v -1.7 0.3 1.5
v -1.8 0.3 1.4
v -1.7 0.3 1.4
v 0 0.3 0
v 0.1 0.3 0
v 0 0.3 -0.1
v 0.1 0.3 -0.1
v 1.2 0.3 -0.1
v 1.3 0.3 -0.1
v 1.2 0.3 -0.2
v 1.3 0.3 -0.2
v 0.7 0.3 -0.6
v 0.8 0.3 -0.6
v 0.7 0.3 -0.7
v 0.8 0.3 -0.7
v 1.5 0.3 -0.9
v 1.6 0.3 -0.9
v 1.5 0.3 -1
v 1.6 0.3 -1
v -1.7 0.3 -1.7
v -1.6 0.3 -1.7
v -1.7 0.3 -1.8
v -1.6 0.3 -1.8
v -1.8 0.4 1.6
v -1.7 0.4 1.6
v -1.8 0.4 1.5
v -1.7 0.4 1.5
v -0.4 0.4 0.9
v -0.3 0.4 0.9
v -0.4 0.4 0.8
v -0.3 0.4 0.8
v -1.9 0.4 0.6
v -1.8 0.4 0.6
v -1.9 0.4 0.5
v -1.8 0.4 0.5
v -1.2 0.4 -1.2
v -1.1 0.4 -1.2
v -1.2 0.4 -1.3
v -1.1 0.4 -1.3
v 1.6 0.4 -1.6
v 1.7 0.4 -1.6
v 1.6 0.4 -1.7
v 1.7 0.4 -1.7
v -0.4 0.4 -1.8
v -0.3 0.4 -1.8
v -0.4 0.4 -1.9
v -0.3 0.4 -1.9
v -0.8 0.5 1.3
v -0.7 0.5 1.3
v -0.8 0.5 1.2
v -0.7 0.5 1.2
v 0.8 0.5 1
v 0.9 0.5 1
v 0.8 0.5 0.9
v 0.9 0.5 0.9
v -1.7 0.5 -0.1
v -1.6 0.5 -0.1
v -1.7 0.5 -0.2
v -1.6 0.5 -0.2
v 0.8 0.5 -0.6
v 0.9 0.5 -0.6
v 0.8 0.5 -0.7
v 0.9 0.5 -0.7
v -0.5 0.6 0.9
v -0.4 0.6 0.9
v -0.5 0.6 0.8
v -0.4 0.6 0.8
v 1.7 0.6 0.6
v 1.8 0.6 0.6
v 1.7 0.6 0.5
v 1.8 0.6 0.5
v 0.1 0.6 -1.2
v 0.2 0.6 -1.2
v 0.1 0.6 -1.3
v 0.2 0.6 -1.3

# faces
f 5/3/1 4/3/1 3/3/1
f 6/3/1 4/3/1 5/3/1
f 7/3/1 2/3/1 1/3/1
f 8/3/1 2/3/1 7/3/1
f 13/3/1 10/3/1 9/3/1
f 14/3/1 10/3/1 13/3/1
f 15/3/1 10/3/1 14/3/1
f 16/3/1 10/3/1 15/3/1
f 17/1/1 12/1/1 11/1/1
f 18/1/1 12/1/1 17/1/1
f 19/3/1 10/3/1 16/3/1
f 20/3/1 10/3/1 19/3/1
f 21/3/1 19/3/1 16/3/1
f 22/3/1 19/3/1 21/3/1
f 27/3/1 24/3/1 23/3/1
f 28/3/1 24/3/1 27/3/1
f 29/1/1 26/1/1 25/1/1
f 30/1/1 26/1/1 29/1/1
f 33/2/1 32/2/1 31/2/1
f 34/2/1 32/2/1 33/2/1
f 37/3/1 36/3/1 35/3/1
f 38/3/1 36/3/1 37/3/1
f 41/3/1 40/3/1 39/3/1
f 42/3/1 40/3/1 41/3/1
f 45/3/1 44/3/1 43/3/1
f 46/3/1 44/3/1 45/3/1
f 51/3/1 50/3/1 49/3/1
f 52/3/1 50/3/1 51/3/1
f 53/2/1 48/2/1 47/2/1
f 54/2/1 48/2/1 53/2/1
f 57/3/1 56/3/1 55/3/1
f 58/3/1 56/3/1 57/3/1
f 61/2/1 60/2/1 59/2/1
f 62/2/1 60/2/1 61/2/1
f 63/2/1 61/2/1 59/2/1
f 64/2/1 61/2/1 63/2/1
f 67/1/1 66/1/1 65/1/1
f 68/1/1 66/1/1 67/1/1
f 69/1/1 66/1/1 68/1/1
f 70/1/1 66/1/1 69/1/1
f 73/3/1 72/3/1 71/3/1
f 74/3/1 72/3/1 73/3/1
f 77/2/1 76/2/1 75/2/1
f 78/2/1 76/2/1 77/2/1
f 83/1/1 80/1/1 79/1/1
f 84/1/1 80/1/1 83/1/1
f 85/2/1 82/2/1 81/2/1
f 86/2/1 82/2/1 85/2/1
f 89/4/1 88/4/1 87/4/1
f 90/4/1 88/4/1 89/4/1
f 91/4/1 88/4/1 90/4/1
f 92/4/1 88/4/1 91/4/1
f 95/3/1 94/3/1 93/3/1
f 96/3/1 94/3/1 95/3/1
f 99/3/1 98/3/1 97/3/1
f 100/3/1 98/3/1 99/3/1
f 104/3/1 102/3/1 101/3/1
f 105/3/1 102/3/1 104/3/1
f 105/3/1 104/3/1 103/3/1
f 106/3/1 102/3/1 105/3/1
f 107/3/1 105/3/1 103/3/1
f 108/3/1 105/3/1 107/3/1
f 113/3/1 110/3/1 109/3/1
f 114/3/1 110/3/1 113/3/1
f 115/3/1 113/3/1 109/3/1
f 116/3/1 113/3/1 115/3/1
f 117/2/1 112/2/1 111/2/1
f 118/2/1 112/2/1 117/2/1
f 119/3/2 120/3/2 121/3/2
f 121/3/2 120/3/2 122/3/2
f 123/3/2 124/3/2 125/3/2
f 125/3/2 124/3/2 126/3/2
f 126/3/2 124/3/2 127/3/2
f 127/3/2 124/3/2 128/3/2
f 128/3/2 124/3/2 129/3/2
f 129/3/2 124/3/2 130/3/2
f 128/3/2 129/3/2 131/3/2
f 131/3/2 129/3/2 132/3/2
f 133/3/2 134/3/2 137/3/2
f 137/3/2 134/3/2 138/3/2
f 135/1/2 136/1/2 139/1/2
f 139/1/2 136/1/2 140/1/2
f 141/1/2 142/1/2 143/1/2
f 143/1/2 142/1/2 144/1/2
f 145/2/2 146/2/2 147/2/2
f 147/2/2 146/2/2 148/2/2
f 149/3/2 150/3/2 151/3/2
f 151/3/2 150/3/2 152/3/2
f 153/3/2 154/3/2 155/3/2
f 155/3/2 154/3/2 156/3/2
f 157/2/2 158/2/2 159/2/2
f 159/2/2 158/2/2 160/2/2
f 161/2/2 162/2/2 165/2/2
f 165/2/2 162/2/2 166/2/2
f 163/3/2 164/3/2 167/3/2
f 167/3/2 164/3/2 168/3/2
f 169/2/2 170/2/2 171/2/2
f 171/2/2 170/2/2 172/2/2
f 169/2/2 171/2/2 173/2/2
f 173/2/2 171/2/2 174/2/2
f 175/1/2 176/1/2 177/1/2
f 177/1/2 176/1/2 178/1/2
f 178/1/2 176/1/2 179/1/2
f 179/1/2 176/1/2 180/1/2
f 181/3/2 182/3/2 183/3/2
f 183/3/2 182/3/2 184/3/2
f 185/1/2 186/1/2 189/1/2
f 189/1/2 186/1/2 190/1/2
f 187/2/2 188/2/2 191/2/2
f 191/2/2 188/2/2 192/2/2
f 193/4/2 194/4/2 195/4/2
f 195/4/2 194/4/2 196/4/2
f 196/4/2 194/4/2 197/4/2
f 197/4/2 194/4/2 198/4/2
f 199/3/2 200/3/2 201/3/2
f 201/3/2 200/3/2 202/3/2
f 203/3/2 204/3/2 206/3/2
f 206/3/2 204/3/2 207/3/2
f 205/3/2 206/3/2 207/3/2
f 207/3/2 204/3/2 208/3/2
f 205/3/2 207/3/2 209/3/2
f 209/3/2 207/3/2 210/3/2
f 211/3/2 212/3/2 217/3/2
f 217/3/2 212/3/2 218/3/2
f 215/3/2 216/3/2 219/3/2
f 219/3/2 216/3/2 220/3/2
f 211/3/2 217/3/2 221/3/2
f 221/3/2 217/3/2 222/3/2
f 213/2/2 214/2/2 223/2/2
f 223/2/2 214/2/2 224/2/2
f 227/3/3 226/3/3 225/3/3
f 228/3/3 226/3/3 227/3/3
f 231/3/3 230/3/3 229/3/3
f 232/3/3 230/3/3 231/3/3
f 235/3/3 234/3/3 233/3/3
f 236/3/3 234/3/3 235/3/3
f 239/2/3 238/2/3 237/2/3
f 240/2/3 238/2/3 239/2/3
f 243/3/3 242/3/3 241/3/3
f 244/3/3 242/3/3 243/3/3
f 247/3/3 246/3/3 245/3/3
f 248/3/3 246/3/3 247/3/3
f 251/1/3 250/1/3 249/1/3
f 252/1/3 250/1/3 251/1/3
f 255/2/3 254/2/3 253/2/3
f 256/2/3 254/2/3 255/2/3
f 257/2/3 255/2/3 253/2/3
f 258/2/3 255/2/3 257/2/3
f 261/3/3 260/3/3 259/3/3
f 262/3/3 260/3/3 261/3/3
f 265/2/3 264/2/3 263/2/3
f 266/2/3 264/2/3 265/2/3
f 269/1/3 268/1/3 267/1/3
f 270/1/3 268/1/3 269/1/3
f 273/1/3 272/1/3 271/1/3
f 274/1/3 272/1/3 273/1/3
f 277/4/3 276/4/3 275/4/3
f 278/4/3 276/4/3 277/4/3
f 281/1/3 280/1/3 279/1/3
f 283/1/3 281/1/3 279/1/3
f 283/1/3 282/1/3 281/1/3
f 284/1/3 282/1/3 283/1/3
f 285/1/3 283/1/3 279/1/3
f 286/1/3 283/1/3 285/1/3
f 289/4/3 288/4/3 287/4/3
f 290/4/3 288/4/3 289/4/3
f 293/3/3 292/3/3 291/3/3
f 295/3/3 293/3/3 291/3/3
f 295/3/3 294/3/3 293/3/3
f 296/3/3 294/3/3 295/3/3
f 299/2/3 298/2/3 297/2/3
f 301/2/3 299/2/3 297/2/3
f 301/2/3 300/2/3 299/2/3
f 302/2/3 300/2/3 301/2/3
f 305/3/3 304/3/3 303/3/3
f 307/3/3 305/3/3 303/3/3
f 307/3/3 306/3/3 305/3/3
f 308/3/3 306/3/3 307/3/3
f 309/3/3 307/3/3 303/3/3
f 310/3/3 307/3/3 309/3/3
f 313/2/3 312/2/3 311/2/3
f 314/2/3 312/2/3 313/2/3
f 317/3/3 316/3/3 315/3/3
f 318/3/3 316/3/3 317/3/3
f 321/3/3 320/3/3 319/3/3
f 322/3/3 320/3/3 321/3/3
f 325/3/3 324/3/3 323/3/3
f 327/3/3 325/3/3 323/3/3
f 327/3/3 326/3/3 325/3/3
f 328/3/3 326/3/3 327/3/3
f 331/3/3 330/3/3 329/3/3
f 332/3/3 330/3/3 331/3/3
f 335/3/3 334/3/3 333/3/3
f 337/3/3 335/3/3 333/3/3
f 337/3/3 336/3/3 335/3/3
f 338/3/3 336/3/3 337/3/3
f 339/3/4 340/3/4 341/3/4
f 341/3/4 340/3/4 342/3/4
f 343/3/4 344/3/4 345/3/4
f 345/3/4 344/3/4 346/3/4
f 347/2/4 348/2/4 349/2/4
f 349/2/4 348/2/4 350/2/4
f 351/3/4 352/3/4 353/3/4
f 353/3/4 352/3/4 354/3/4
f 355/2/4 356/2/4 357/2/4
f 357/2/4 356/2/4 358/2/4
f 359/3/4 360/3/4 361/3/4
f 361/3/4 360/3/4 362/3/4
f 363/3/4 364/3/4 365/3/4
f 365/3/4 364/3/4 366/3/4
f 367/1/4 368/1/4 369/1/4
f 369/1/4 368/1/4 370/1/4
f 371/2/4 372/2/4 373/2/4
f 373/2/4 372/2/4 374/2/4
f 371/2/4 373/2/4 375/2/4
f 375/2/4 373/2/4 376/2/4
f 377/3/4 378/3/4 379/3/4
f 379/3/4 378/3/4 380/3/4
f 381/2/4 382/2/4 383/2/4
f 383/2/4 382/2/4 384/2/4
f 385/1/4 386/1/4 387/1/4
f 387/1/4 386/1/4 388/1/4
f 389/1/4 390/1/4 391/1/4
f 389/1/4 391/1/4 393/1/4
f 391/1/4 392/1/4 393/1/4
f 393/1/4 392/1/4 394/1/4
f 389/1/4 393/1/4 395/1/4
f 395/1/4 393/1/4 396/1/4
f 397/4/4 398/4/4 399/4/4
f 399/4/4 398/4/4 400/4/4
f 401/3/4 402/3/4 403/3/4
f 401/3/4 403/3/4 405/3/4
f 403/3/4 404/3/4 405/3/4
f 405/3/4 404/3/4 406/3/4
f 407/2/4 408/2/4 409/2/4
f 407/2/4 409/2/4 411/2/4
f 409/2/4 410/2/4 411/2/4
f 411/2/4 410/2/4 412/2/4
f 413/3/4 414/3/4 415/3/4
f 413/3/4 415/3/4 417/3/4
f 415/3/4 416/3/4 417/3/4
f 417/3/4 416/3/4 418/3/4
f 413/3/4 417/3/4 419/3/4
f 419/3/4 417/3/4 420/3/4
f 421/2/4 422/2/4 423/2/4
f 423/2/4 422/2/4 424/2/4
f 425/3/4 426/3/4 427/3/4
f 427/3/4 426/3/4 428/3/4
f 429/3/4 430/3/4 431/3/4
f 431/3/4 430/3/4 432/3/4
f 433/3/4 434/3/4 435/3/4
f 433/3/4 435/3/4 437/3/4
f 435/3/4 436/3/4 437/3/4
f 437/3/4 436/3/4 438/3/4
f 439/3/4 440/3/4 441/3/4
f 441/3/4 440/3/4 442/3/4
f 443/3/4 444/3/4 445/3/4
f 443/3/4 445/3/4 447/3/4
f 445/3/4 446/3/4 447/3/4
f 447/3/4 446/3/4 448/3/4
f 455/3/5 450/3/5 449/3/5
f 456/3/5 450/3/5 455/3/5
f 457/2/5 454/2/5 453/2/5
f 458/2/5 454/2/5 457/2/5
f 459/3/5 452/3/5 451/3/5
f 460/3/5 452/3/5 459/3/5
f 463/3/5 462/3/5 461/3/5
f 464/3/5 462/3/5 463/3/5
f 469/1/5 466/1/5 465/1/5
f 470/1/5 466/1/5 469/1/5
f 471/2/5 468/2/5 467/2/5
f 472/2/5 468/2/5 471/2/5
f 477/3/5 474/3/5 473/3/5
f 478/3/5 474/3/5 477/3/5
f 479/2/5 476/2/5 475/2/5
f 480/2/5 476/2/5 479/2/5
f 487/1/5 482/1/5 481/1/5
f 488/1/5 482/1/5 487/1/5
f 489/1/5 486/1/5 485/1/5
f 490/1/5 486/1/5 489/1/5
f 491/4/5 484/4/5 483/4/5
f 492/4/5 484/4/5 491/4/5
f 497/3/5 494/3/5 493/3/5
f 498/3/5 494/3/5 497/3/5
f 499/2/5 496/2/5 495/2/5
f 500/2/5 496/2/5 499/2/5
f 503/3/5 502/3/5 501/3/5
f 504/3/5 502/3/5 503/3/5
f 509/2/5 506/2/5 505/2/5
f 510/2/5 506/2/5 509/2/5
f 511/3/5 508/3/5 507/3/5
f 512/3/5 508/3/5 511/3/5
f 517/3/5 514/3/5 513/3/5
f 518/3/5 514/3/5 517/3/5
f 521/3/5 516/3/5 515/3/5
f 522/3/5 516/3/5 521/3/5
f 523/3/5 520/3/5 519/3/5
f 524/3/5 520/3/5 523/3/5
f 527/3/5 526/3/5 525/3/5
f 528/3/5 526/3/5 527/3/5
f 529/3/6 530/3/6 533/3/6
f 533/3/6 530/3/6 534/3/6
f 531/3/6 532/3/6 535/3/6
f 535/3/6 532/3/6 536/3/6
f 537/2/6 538/2/6 539/2/6
f 539/2/6 538/2/6 540/2/6
f 541/1/6 542/1/6 543/1/6
f 543/1/6 542/1/6 544/1/6
f 545/1/6 546/1/6 547/1/6
f 547/1/6 546/1/6 548/1/6
f 549/3/6 550/3/6 551/3/6
f 551/3/6 550/3/6 552/3/6
f 553/3/6 554/3/6 557/3/6
f 557/3/6 554/3/6 558/3/6
f 555/3/6 556/3/6 559/3/6
f 559/3/6 556/3/6 560/3/6
f 561/3/6 562/3/6 563/3/6
f 563/3/6 562/3/6 564/3/6
f 565/3/6 566/3/6 567/3/6
f 567/3/6 566/3/6 568/3/6
f 569/3/6 570/3/6 571/3/6
f 571/3/6 570/3/6 572/3/6
f 573/3/6 574/3/6 577/3/6
f 577/3/6 574/3/6 578/3/6
f 575/2/6 576/2/6 579/2/6
f 579/2/6 576/2/6 580/2/6
f 581/4/6 582/4/6 585/4/6
f 585/4/6 582/4/6 586/4/6
f 583/1/6 584/1/6 587/1/6
f 587/1/6 584/1/6 588/1/6
f 589/3/6 590/3/6 591/3/6
f 591/3/6 590/3/6 592/3/6
f 593/3/6 594/3/6 595/3/6
f 595/3/6 594/3/6 596/3/6
f 597/3/6 598/3/6 599/3/6
f 599/3/6 598/3/6 600/3/6
f 601/1/6 602/1/6 603/1/6
f 603/1/6 602/1/6 604/1/6
f 605/4/6 606/4/6 607/4/6
f 607/4/6 606/4/6 608/4/6
f 609/2/6 610/2/6 611/2/6
f 611/2/6 610/2/6 612/2/6
f 613/3/6 614/3/6 615/3/6
f 615/3/6 614/3/6 616/3/6
f 617/3/6 618/3/6 619/3/6
f 619/3/6 618/3/6 620/3/6
f 621/3/6 622/3/6 623/3/6
f 623/3/6 622/3/6 624/3/6
f 625/2/6 626/2/6 627/2/6
f 627/2/6 626/2/6 628/2/6
f 629/3/6 630/3/6 631/3/6
f 631/3/6 630/3/6 632/3/6
f 633/2/6 634/2/6 635/2/6
f 635/2/6 634/2/6 636/2/6
f 637/3/6 638/3/6 639/3/6
f 639/3/6 638/3/6 640/3/6
f 641/3/6 642/3/6 643/3/6
f 643/3/6 642/3/6 644/3/6
f 645/3/6 646/3/6 647/3/6
f 647/3/6 646/3/6 648/3/6
f 649/1/6 650/1/6 651/1/6
f 651/1/6 650/1/6 652/1/6
f 653/1/6 654/1/6 655/1/6
f 655/1/6 654/1/6 656/1/6
f 657/2/6 658/2/6 659/2/6
f 659/2/6 658/2/6 660/2/6
f 661/2/6 662/2/6 663/2/6
f 663/2/6 662/2/6 664/2/6
f 665/2/6 666/2/6 667/2/6
f 667/2/6 666/2/6 668/2/6
f 669/3/6 670/3/6 671/3/6
f 671/3/6 670/3/6 672/3/6
