# MagicaVoxel @ Ephtracy

# group
o 

# material
mtllib 1_4 caja.mtl
usemtl palette

# normals
vn -1 0 0
vn 1 0 0
vn 0 0 1
vn 0 0 -1
vn 0 -1 0
vn 0 1 0

# texcoords
vt 0.958984 0.5
vt 0.970703 0.5
vt 0.978516 0.5

# verts
v -0.5 1.7 -0.3
v -0.5 1.7 -0.5
v -0.5 1.8 -0.1
v -0.5 1.8 -0.3
v -0.5 1.9 -0.3
v -0.5 1.9 -0.5
v -0.5 2 -0.1
v -0.5 2 -0.3
v -0.4 1.4 0.1
v -0.4 1.4 -0.1
v -0.4 1.6 0.1
v -0.4 1.6 -0.1
v -0.3 1.4 -0.5
v -0.3 1.4 -0.7
v -0.3 1.6 0.5
v -0.3 1.6 0.3
v -0.3 1.6 -0.3
v -0.3 1.6 -0.5
v -0.3 1.6 -0.7
v -0.3 1.7 -0.3
v -0.3 1.7 -0.5
v -0.3 1.8 0.5
v -0.3 1.8 0.3
v -0.3 2 0.3
v -0.3 2 0.1
v -0.3 2.2 0.3
v -0.3 2.2 0.1
v -0.2 1.3 0.1
v -0.2 1.3 0
v -0.2 1.4 0.1
v -0.2 1.4 0
v -0.2 1.5 0.3
v -0.2 1.5 0.1
v -0.2 1.5 -0.2
v -0.2 1.5 -0.5
v -0.2 1.6 0.3
v -0.2 1.6 0.2
v -0.2 1.6 0.1
v -0.2 1.6 -0.3
v -0.2 1.6 -0.5
v -0.2 1.7 -0.1
v -0.2 1.7 -0.2
v -0.2 1.8 0.3
v -0.2 1.8 0.2
v -0.2 1.8 0.1
v -0.2 1.8 -0.2
v -0.2 1.8 -0.3
v -0.2 1.9 0.3
v -0.2 1.9 0.2
v -0.2 1.9 0.1
v -0.2 1.9 -0.1
v -0.2 1.9 -0.2
v -0.2 2 0.2
v -0.2 2 0.1
v -0.2 2 0
v -0.2 2 -0.1
v -0.2 2 -0.2
v -0.2 2 -0.3
v -0.2 2.1 0.1
v -0.2 2.1 0
v -0.2 2.2 0.3
v -0.2 2.2 0.1
v -0.2 2.2 0
v -0.2 2.2 -0.1
v -0.2 2.2 -0.3
v -0.2 2.4 0.3
v -0.2 2.4 0.1
v -0.2 2.4 0
v -0.1 1.2 0.1
v -0.1 1.2 -0.1
v -0.1 1.3 0.1
v -0.1 1.3 0
v -0.1 1.4 0
v -0.1 1.4 -0.1
v -0.1 1.8 0.4
v -0.1 1.8 0.3
v -0.1 1.9 0.4
v -0.1 1.9 0.3
v 0 1.7 0
v 0 1.7 -0.2
v 0 1.8 0
v 0 1.8 -0.1
v 0 1.8 -0.2
v 0 2 0.3
v 0 2 0.1
v 0 2.2 0.3
v 0 2.2 0.1
v 0.1 1.6 -0.1
v 0.1 1.6 -0.3
v 0.1 1.7 0.1
v 0.1 1.7 0
v 0.1 1.7 -0.1
v 0.1 1.7 -0.2
v 0.1 1.8 0
v 0.1 1.8 -0.1
v 0.1 1.8 -0.2
v 0.1 1.8 -0.3
v 0.1 1.9 0.3
v 0.1 1.9 0.2
v 0.1 1.9 0.1
v 0.1 1.9 -0.1
v 0.1 2 0.3
v 0.1 2 0.2
v 0.3 1.4 -0.1
v 0.3 1.4 -0.3
v 0.3 1.6 -0.1
v 0.3 1.6 -0.3
v 0.3 1.8 0.3
v 0.3 1.8 0.1
v 0.3 1.9 0.3
v 0.3 1.9 0.2
v 0.3 1.9 0.1
v 0.3 2 0.2
v 0.3 2 0.1
v 0.4 1.4 0.2
v 0.4 1.4 0.1
v 0.4 1.6 0.4
v 0.4 1.6 0.2
v 0.4 1.7 0.4
v 0.4 1.7 0.3
v 0.4 1.7 0.2
v 0.4 1.7 0.1
v 0.4 1.8 0.3
v 0.4 1.8 0.2
v 0.5 1.3 0.3
v 0.5 1.3 0.1
v 0.5 1.4 0.2
v 0.5 1.4 0.1
v 0.5 1.5 0.3
v 0.5 1.5 0.2
v 0.5 1.6 0.5
v 0.5 1.6 0.4
v 0.5 1.7 0.4
v 0.5 1.7 0.3
v 0.5 1.8 0.5
v 0.5 1.8 0.3
v -0.3 1.8 -0.1
v -0.3 1.8 -0.3
v -0.3 1.8 -0.5
v -0.3 1.9 -0.1
v -0.3 1.9 -0.2
v -0.3 1.9 -0.3
v -0.3 1.9 -0.5
v -0.3 2 -0.2
v -0.3 2 -0.3
v -0.2 1.4 0
v -0.2 1.4 -0.1
v -0.2 1.6 0
v -0.2 1.6 -0.1
v -0.1 1.4 0.1
v -0.1 1.4 0
v -0.1 1.4 -0.5
v -0.1 1.4 -0.7
v -0.1 1.5 0.3
v -0.1 1.5 0.1
v -0.1 1.5 -0.2
v -0.1 1.5 -0.5
v -0.1 1.6 0.5
v -0.1 1.6 0.3
v -0.1 1.6 0.2
v -0.1 1.6 0
v -0.1 1.6 -0.3
v -0.1 1.6 -0.5
v -0.1 1.6 -0.7
v -0.1 1.7 0.4
v -0.1 1.7 0.3
v -0.1 1.7 0.2
v -0.1 1.7 -0.1
v -0.1 1.7 -0.2
v -0.1 1.8 0.5
v -0.1 1.8 0.4
v -0.1 1.8 0.2
v -0.1 1.8 0.1
v -0.1 1.8 -0.1
v -0.1 1.8 -0.2
v -0.1 1.8 -0.3
v -0.1 1.8 -0.5
v -0.1 1.9 0.2
v -0.1 1.9 0.1
v -0.1 1.9 -0.1
v -0.1 1.9 -0.2
v -0.1 2 0.3
v -0.1 2 0.2
v -0.1 2 0.1
v -0.1 2 0
v -0.1 2 -0.1
v -0.1 2 -0.2
v -0.1 2.1 0.1
v -0.1 2.1 0
v -0.1 2.2 0.3
v -0.1 2.2 0.1
v -0.1 2.2 0
v -0.1 2.2 -0.1
v -0.1 2.4 0.1
v -0.1 2.4 0
v 0 2 -0.1
v 0 2 -0.3
v 0 2.2 0.3
v 0 2.2 0.1
v 0 2.2 -0.1
v 0 2.2 -0.3
v 0 2.4 0.3
v 0 2.4 0.1
v 0.1 1.2 0.1
v 0.1 1.2 -0.1
v 0.1 1.4 0.1
v 0.1 1.4 -0.1
v 0.1 1.7 0.4
v 0.1 1.7 0.2
v 0.1 1.8 -0.1
v 0.1 1.8 -0.2
v 0.1 1.9 0.4
v 0.1 1.9 0.3
v 0.1 1.9 0.2
v 0.1 1.9 -0.1
v 0.1 1.9 -0.2
v 0.2 2 0.3
v 0.2 2 0.2
v 0.2 2 0.1
v 0.2 2.2 0.3
v 0.2 2.2 0.1
v 0.3 1.6 -0.1
v 0.3 1.6 -0.2
v 0.3 1.7 0.1
v 0.3 1.7 -0.1
v 0.3 1.7 -0.2
v 0.3 1.7 -0.3
v 0.3 1.8 0.1
v 0.3 1.8 -0.1
v 0.3 1.8 -0.3
v 0.3 1.9 0.1
v 0.3 1.9 -0.1
v 0.4 1.6 -0.2
v 0.4 1.6 -0.3
v 0.4 1.7 -0.2
v 0.4 1.7 -0.3
v 0.5 1.4 -0.1
v 0.5 1.4 -0.3
v 0.5 1.5 0.2
v 0.5 1.5 0.1
v 0.5 1.6 0.3
v 0.5 1.6 0.2
v 0.5 1.6 0.1
v 0.5 1.6 -0.1
v 0.5 1.6 -0.3
v 0.5 1.7 0.2
v 0.5 1.8 0.3
v 0.5 1.8 0.2
v 0.5 1.8 0.1
v 0.5 2 0.3
v 0.5 2 0.1
v 0.6 1.6 0.2
v 0.6 1.6 0.1
v 0.6 1.7 0.2
v 0.6 1.7 0.1
v 0.7 1.3 0.3
v 0.7 1.3 0.1
v 0.7 1.5 0.3
v 0.7 1.5 0.1
v 0.7 1.6 0.5
v 0.7 1.6 0.3
v 0.7 1.8 0.5
v 0.7 1.8 0.3
v -0.3 1.6 0.5
v -0.3 1.8 0.5
v -0.1 1.6 0.5
v -0.1 1.8 0.5
v 0.5 1.6 0.5
v 0.5 1.8 0.5
v 0.7 1.6 0.5
v 0.7 1.8 0.5
v -0.1 1.7 0.4
v -0.1 1.8 0.4
v -0.1 1.9 0.4
v 0.1 1.7 0.4
v 0.1 1.9 0.4
v 0.4 1.6 0.4
v 0.4 1.7 0.4
v 0.5 1.6 0.4
v 0.5 1.7 0.4
v -0.3 2 0.3
v -0.3 2.2 0.3
v -0.2 1.5 0.3
v -0.2 1.6 0.3
v -0.2 1.8 0.3
v -0.2 1.9 0.3
v -0.2 2.2 0.3
v -0.2 2.4 0.3
v -0.1 1.5 0.3
v -0.1 1.6 0.3
v -0.1 1.8 0.3
v -0.1 1.9 0.3
v -0.1 2 0.3
v -0.1 2.2 0.3
v 0 2 0.3
v 0 2.2 0.3
v 0 2.4 0.3
v 0.1 1.9 0.3
v 0.1 2 0.3
v 0.2 2 0.3
v 0.2 2.2 0.3
v 0.3 1.8 0.3
v 0.3 1.9 0.3
v 0.3 2 0.3
v 0.4 1.7 0.3
v 0.4 1.8 0.3
v 0.5 1.3 0.3
v 0.5 1.5 0.3
v 0.5 1.7 0.3
v 0.5 1.8 0.3
v 0.5 2 0.3
v 0.7 1.3 0.3
v 0.7 1.5 0.3
v -0.2 1.9 0.2
v -0.2 2 0.2
v -0.1 1.9 0.2
v -0.1 2 0.2
v 0.4 1.4 0.2
v 0.4 1.6 0.2
v 0.5 1.4 0.2
v 0.5 1.5 0.2
v 0.5 1.6 0.2
v 0.5 1.7 0.2
v 0.6 1.6 0.2
v 0.6 1.7 0.2
v -0.4 1.4 0.1
v -0.4 1.6 0.1
v -0.2 1.3 0.1
v -0.2 1.4 0.1
v -0.2 1.5 0.1
v -0.2 1.6 0.1
v -0.1 1.2 0.1
v -0.1 1.3 0.1
v -0.1 1.4 0.1
v -0.1 1.5 0.1
v 0.1 1.2 0.1
v 0.1 1.4 0.1
v 0.1 1.7 0.1
v 0.1 1.9 0.1
v 0.3 1.7 0.1
v 0.3 1.8 0.1
v 0.3 1.9 0.1
v -0.2 2 0
v -0.2 2.1 0
v -0.1 2 0
v -0.1 2.1 0
v 0 1.7 0
v 0 1.8 0
v 0.1 1.7 0
v 0.1 1.8 0
v -0.5 1.8 -0.1
v -0.5 2 -0.1
v -0.3 1.8 -0.1
v -0.3 1.9 -0.1
v -0.3 2 -0.1
v -0.2 1.7 -0.1
v -0.2 1.9 -0.1
v -0.2 2 -0.1
v -0.1 1.7 -0.1
v -0.1 1.8 -0.1
v -0.1 1.9 -0.1
v -0.1 2 -0.1
v -0.1 2.2 -0.1
v 0 1.8 -0.1
v 0 2 -0.1
v 0 2.2 -0.1
v 0.1 1.6 -0.1
v 0.1 1.7 -0.1
v 0.1 1.8 -0.1
v 0.1 1.9 -0.1
v 0.3 1.4 -0.1
v 0.3 1.6 -0.1
v 0.3 1.7 -0.1
v 0.5 1.4 -0.1
v 0.5 1.6 -0.1
v -0.2 1.5 -0.2
v -0.2 1.7 -0.2
v -0.1 1.5 -0.2
v -0.1 1.7 -0.2
v 0.3 1.6 -0.2
v 0.3 1.7 -0.2
v 0.4 1.6 -0.2
v 0.4 1.7 -0.2
v -0.5 1.7 -0.3
v -0.5 1.8 -0.3
v -0.3 1.6 -0.3
v -0.3 1.7 -0.3
v -0.3 1.8 -0.3
v -0.2 1.6 -0.3
v -0.2 1.8 -0.3
v -0.3 1.4 -0.5
v -0.3 1.6 -0.5
v -0.2 1.5 -0.5
v -0.2 1.6 -0.5
v -0.1 1.4 -0.5
v -0.1 1.5 -0.5
v -0.3 1.6 0.3
v -0.3 1.8 0.3
v -0.2 1.6 0.3
v -0.2 1.8 0.3
v 0.5 1.6 0.3
v 0.5 1.8 0.3
v 0.7 1.6 0.3
v 0.7 1.8 0.3
v -0.2 1.6 0.2
v -0.2 1.8 0.2
v -0.1 1.6 0.2
v -0.1 1.7 0.2
v -0.1 1.8 0.2
v -0.1 1.9 0.2
v 0.1 1.7 0.2
v 0.1 1.9 0.2
v 0.1 2 0.2
v 0.2 2 0.2
v 0.3 1.9 0.2
v 0.3 2 0.2
v 0.4 1.7 0.2
v 0.4 1.8 0.2
v 0.5 1.7 0.2
v 0.5 1.8 0.2
v -0.3 2 0.1
v -0.3 2.2 0.1
v -0.2 1.8 0.1
v -0.2 1.9 0.1
v -0.2 2 0.1
v -0.2 2.1 0.1
v -0.2 2.2 0.1
v -0.1 1.8 0.1
v -0.1 1.9 0.1
v -0.1 2 0.1
v -0.1 2.1 0.1
v -0.1 2.2 0.1
v -0.1 2.4 0.1
v 0 2 0.1
v 0 2.2 0.1
v 0 2.4 0.1
v 0.2 2 0.1
v 0.2 2.2 0.1
v 0.3 1.8 0.1
v 0.3 1.9 0.1
v 0.3 2 0.1
v 0.4 1.4 0.1
v 0.4 1.7 0.1
v 0.5 1.3 0.1
v 0.5 1.4 0.1
v 0.5 1.5 0.1
v 0.5 1.6 0.1
v 0.5 1.8 0.1
v 0.5 2 0.1
v 0.6 1.6 0.1
v 0.6 1.7 0.1
v 0.7 1.3 0.1
v 0.7 1.5 0.1
v -0.2 1.3 0
v -0.2 1.4 0
v -0.2 1.6 0
v -0.2 2.2 0
v -0.2 2.4 0
v -0.1 1.3 0
v -0.1 1.4 0
v -0.1 1.6 0
v -0.1 2.2 0
v -0.1 2.4 0
v -0.4 1.4 -0.1
v -0.4 1.6 -0.1
v -0.2 1.4 -0.1
v -0.2 1.6 -0.1
v -0.1 1.2 -0.1
v -0.1 1.4 -0.1
v 0.1 1.2 -0.1
v 0.1 1.4 -0.1
v 0.1 1.8 -0.1
v 0.1 1.9 -0.1
v 0.3 1.8 -0.1
v 0.3 1.9 -0.1
v -0.3 1.9 -0.2
v -0.3 2 -0.2
v -0.2 1.8 -0.2
v -0.2 1.9 -0.2
v -0.2 2 -0.2
v -0.1 1.8 -0.2
v -0.1 1.9 -0.2
v -0.1 2 -0.2
v 0 1.7 -0.2
v 0 1.8 -0.2
v 0.1 1.7 -0.2
v 0.1 1.8 -0.2
v 0.1 1.9 -0.2
v -0.5 1.9 -0.3
v -0.5 2 -0.3
v -0.3 1.9 -0.3
v -0.3 2 -0.3
v -0.2 2 -0.3
v -0.2 2.2 -0.3
v 0 2 -0.3
v 0 2.2 -0.3
v 0.1 1.6 -0.3
v 0.1 1.8 -0.3
v 0.3 1.4 -0.3
v 0.3 1.6 -0.3
v 0.3 1.7 -0.3
v 0.3 1.8 -0.3
v 0.4 1.6 -0.3
v 0.4 1.7 -0.3
v 0.5 1.4 -0.3
v 0.5 1.6 -0.3
v -0.5 1.7 -0.5
v -0.5 1.9 -0.5
v -0.3 1.6 -0.5
v -0.3 1.7 -0.5
v -0.3 1.8 -0.5
v -0.3 1.9 -0.5
v -0.1 1.6 -0.5
v -0.1 1.8 -0.5
v -0.3 1.4 -0.7
v -0.3 1.6 -0.7
v -0.1 1.4 -0.7
v -0.1 1.6 -0.7
v -0.1 1.2 0.1
v 0.1 1.2 0.1
v -0.1 1.2 -0.1
v 0.1 1.2 -0.1
v 0.5 1.3 0.3
v 0.7 1.3 0.3
v -0.2 1.3 0.1
v -0.1 1.3 0.1
v 0.5 1.3 0.1
v 0.7 1.3 0.1
v -0.2 1.3 0
v -0.1 1.3 0
v 0.4 1.4 0.2
v 0.5 1.4 0.2
v -0.4 1.4 0.1
v -0.2 1.4 0.1
v 0.4 1.4 0.1
v 0.5 1.4 0.1
v -0.2 1.4 0
v -0.4 1.4 -0.1
v -0.2 1.4 -0.1
v 0.3 1.4 -0.1
v 0.5 1.4 -0.1
v 0.3 1.4 -0.3
v 0.5 1.4 -0.3
v -0.3 1.4 -0.5
v -0.1 1.4 -0.5
v -0.3 1.4 -0.7
v -0.1 1.4 -0.7
v -0.2 1.5 0.3
v -0.1 1.5 0.3
v -0.2 1.5 0.1
v -0.1 1.5 0.1
v -0.2 1.5 -0.2
v -0.1 1.5 -0.2
v -0.2 1.5 -0.5
v -0.1 1.5 -0.5
v -0.3 1.6 0.5
v -0.1 1.6 0.5
v 0.5 1.6 0.5
v 0.7 1.6 0.5
v 0.4 1.6 0.4
v 0.5 1.6 0.4
v -0.3 1.6 0.3
v -0.2 1.6 0.3
v -0.1 1.6 0.3
v 0.5 1.6 0.3
v 0.7 1.6 0.3
v 0.4 1.6 0.2
v 0.5 1.6 0.2
v 0.6 1.6 0.2
v 0.5 1.6 0.1
v 0.6 1.6 0.1
v 0.1 1.6 -0.1
v 0.3 1.6 -0.1
v -0.3 1.6 -0.3
v -0.2 1.6 -0.3
v 0.1 1.6 -0.3
v 0.3 1.6 -0.3
v -0.3 1.6 -0.5
v -0.2 1.6 -0.5
v -0.1 1.7 0.4
v 0.1 1.7 0.4
v -0.1 1.7 0.3
v -0.1 1.7 0.2
v 0.1 1.7 0.2
v 0.1 1.7 0.1
v 0.3 1.7 0.1
v 0 1.7 0
v 0.1 1.7 0
v -0.2 1.7 -0.1
v -0.1 1.7 -0.1
v 0.1 1.7 -0.1
v 0.3 1.7 -0.1
v -0.2 1.7 -0.2
v -0.1 1.7 -0.2
v 0 1.7 -0.2
v 0.1 1.7 -0.2
v -0.5 1.7 -0.3
v -0.3 1.7 -0.3
v -0.5 1.7 -0.5
v -0.3 1.7 -0.5
v 0.3 1.8 0.3
v 0.4 1.8 0.3
v -0.2 1.8 0.2
v -0.1 1.8 0.2
v 0.4 1.8 0.2
v 0.5 1.8 0.2
v -0.2 1.8 0.1
v -0.1 1.8 0.1
v 0.3 1.8 0.1
v 0.5 1.8 0.1
v -0.5 1.8 -0.1
v -0.3 1.8 -0.1
v -0.1 1.8 -0.1
v 0 1.8 -0.1
v -0.1 1.8 -0.2
v 0 1.8 -0.2
v -0.5 1.8 -0.3
v -0.3 1.8 -0.3
v 0.1 1.9 0.3
v 0.3 1.9 0.3
v 0.1 1.9 0.2
v 0.3 1.9 0.2
v -0.2 1.9 0.1
v -0.1 1.9 0.1
v -0.3 1.9 -0.1
v -0.2 1.9 -0.1
v -0.1 1.9 -0.1
v -0.3 1.9 -0.2
v -0.2 1.9 -0.2
v -0.3 2 0.3
v -0.1 2 0.3
v 0 2 0.3
v 0.1 2 0.3
v -0.2 2 0.2
v -0.1 2 0.2
v 0.1 2 0.2
v 0.2 2 0.2
v -0.3 2 0.1
v -0.2 2 0.1
v 0 2 0.1
v 0.2 2 0.1
v -0.1 2 -0.1
v 0 2 -0.1
v -0.2 2 -0.2
v -0.1 2 -0.2
v -0.2 2 -0.3
v 0 2 -0.3
v -0.2 2.1 0.1
v -0.1 2.1 0.1
v -0.2 2.1 0
v -0.1 2.1 0
v -0.1 2.2 0.3
v 0 2.2 0.3
v -0.1 2.2 0.1
v 0 2.2 0.1
v -0.1 1.4 0.1
v 0.1 1.4 0.1
v -0.1 1.4 0
v -0.1 1.4 -0.1
v 0.1 1.4 -0.1
v 0.5 1.5 0.3
v 0.7 1.5 0.3
v 0.5 1.5 0.2
v 0.5 1.5 0.1
v 0.7 1.5 0.1
v -0.2 1.6 0.2
v -0.1 1.6 0.2
v -0.4 1.6 0.1
v -0.2 1.6 0.1
v -0.2 1.6 0
v -0.1 1.6 0
v -0.4 1.6 -0.1
v -0.2 1.6 -0.1
v 0.3 1.6 -0.1
v 0.5 1.6 -0.1
v 0.3 1.6 -0.2
v 0.4 1.6 -0.2
v 0.4 1.6 -0.3
v 0.5 1.6 -0.3
v -0.3 1.6 -0.5
v -0.1 1.6 -0.5
v -0.3 1.6 -0.7
v -0.1 1.6 -0.7
v 0.4 1.7 0.4
v 0.5 1.7 0.4
v 0.4 1.7 0.3
v 0.5 1.7 0.3
v 0.4 1.7 0.2
v 0.5 1.7 0.2
v 0.6 1.7 0.2
v 0.4 1.7 0.1
v 0.6 1.7 0.1
v 0.3 1.7 -0.2
v 0.4 1.7 -0.2
v 0.3 1.7 -0.3
v 0.4 1.7 -0.3
v -0.3 1.8 0.5
v -0.1 1.8 0.5
v 0.5 1.8 0.5
v 0.7 1.8 0.5
v -0.1 1.8 0.4
v -0.3 1.8 0.3
v -0.2 1.8 0.3
v -0.1 1.8 0.3
v 0.5 1.8 0.3
v 0.7 1.8 0.3
v 0 1.8 0
v 0.1 1.8 0
v 0 1.8 -0.1
v 0.1 1.8 -0.1
v 0.3 1.8 -0.1
v -0.2 1.8 -0.2
v -0.1 1.8 -0.2
v 0.1 1.8 -0.2
v -0.3 1.8 -0.3
v -0.2 1.8 -0.3
v -0.1 1.8 -0.3
v 0.1 1.8 -0.3
v 0.3 1.8 -0.3
v -0.3 1.8 -0.5
v -0.1 1.8 -0.5
v -0.1 1.9 0.4
v 0.1 1.9 0.4
v -0.2 1.9 0.3
v -0.1 1.9 0.3
v 0.1 1.9 0.3
v -0.2 1.9 0.2
v -0.1 1.9 0.2
v 0.1 1.9 0.2
v 0.1 1.9 0.1
v 0.3 1.9 0.1
v -0.1 1.9 -0.1
v 0.1 1.9 -0.1
v 0.3 1.9 -0.1
v -0.1 1.9 -0.2
v 0.1 1.9 -0.2
v -0.5 1.9 -0.3
v -0.3 1.9 -0.3
v -0.5 1.9 -0.5
v -0.3 1.9 -0.5
v 0.2 2 0.3
v 0.3 2 0.3
v 0.5 2 0.3
v 0.2 2 0.2
v 0.3 2 0.2
v -0.2 2 0.1
v -0.1 2 0.1
v 0.3 2 0.1
v 0.5 2 0.1
v -0.2 2 0
v -0.1 2 0
v -0.5 2 -0.1
v -0.3 2 -0.1
v -0.2 2 -0.1
v -0.3 2 -0.2
v -0.2 2 -0.2
v -0.5 2 -0.3
v -0.3 2 -0.3
v -0.3 2.2 0.3
v -0.2 2.2 0.3
v 0 2.2 0.3
v 0.2 2.2 0.3
v -0.3 2.2 0.1
v -0.2 2.2 0.1
v 0 2.2 0.1
v 0.2 2.2 0.1
v -0.2 2.2 0
v -0.1 2.2 0
v -0.2 2.2 -0.1
v -0.1 2.2 -0.1
v 0 2.2 -0.1
v -0.2 2.2 -0.3
v 0 2.2 -0.3
v -0.2 2.4 0.3
v 0 2.4 0.3
v -0.2 2.4 0.1
v -0.1 2.4 0.1
v 0 2.4 0.1
v -0.2 2.4 0
v -0.1 2.4 0

# faces
f 4/3/1 2/3/1 1/3/1
f 5/3/1 2/3/1 4/3/1
f 5/3/1 4/3/1 3/3/1
f 6/3/1 2/3/1 5/3/1
f 7/3/1 5/3/1 3/3/1
f 8/3/1 5/3/1 7/3/1
f 11/3/1 10/3/1 9/3/1
f 12/3/1 10/3/1 11/3/1
f 18/3/1 14/3/1 13/3/1
f 19/3/1 14/3/1 18/3/1
f 20/3/1 18/3/1 17/3/1
f 21/3/1 18/3/1 20/3/1
f 22/3/1 16/3/1 15/3/1
f 23/3/1 16/3/1 22/3/1
f 26/3/1 25/3/1 24/3/1
f 27/3/1 25/3/1 26/3/1
f 30/1/1 29/1/1 28/1/1
f 31/1/1 29/1/1 30/1/1
f 36/1/1 33/1/1 32/1/1
f 37/1/1 33/1/1 36/1/1
f 38/1/1 33/1/1 37/1/1
f 39/1/1 35/1/1 34/1/1
f 40/1/1 35/1/1 39/1/1
f 42/1/1 39/1/1 34/1/1
f 43/1/1 37/1/1 36/1/1
f 44/1/1 37/1/1 43/1/1
f 46/1/1 42/1/1 41/1/1
f 46/1/1 39/1/1 42/1/1
f 47/1/1 39/1/1 46/1/1
f 48/1/1 45/1/1 44/1/1
f 48/1/1 44/1/1 43/1/1
f 49/1/1 45/1/1 48/1/1
f 50/1/1 45/1/1 49/1/1
f 51/1/1 46/1/1 41/1/1
f 52/1/1 46/1/1 51/1/1
f 53/1/1 50/1/1 49/1/1
f 53/1/1 51/1/1 50/1/1
f 54/1/1 51/1/1 53/1/1
f 55/1/1 51/1/1 54/1/1
f 56/1/1 51/1/1 55/1/1
f 60/1/1 56/1/1 55/1/1
f 62/1/1 60/1/1 59/1/1
f 63/1/1 56/1/1 60/1/1
f 63/1/1 60/1/1 62/1/1
f 64/3/1 57/3/1 56/3/1
f 64/1/1 56/1/1 63/1/1
f 64/3/1 58/3/1 57/3/1
f 65/3/1 58/3/1 64/3/1
f 66/2/1 62/2/1 61/2/1
f 67/1/1 63/1/1 62/1/1
f 67/2/1 62/2/1 66/2/1
f 68/1/1 63/1/1 67/1/1
f 71/3/1 70/3/1 69/3/1
f 72/3/1 70/3/1 71/3/1
f 73/3/1 70/3/1 72/3/1
f 74/3/1 70/3/1 73/3/1
f 77/3/1 76/3/1 75/3/1
f 78/3/1 76/3/1 77/3/1
f 81/1/1 80/1/1 79/1/1
f 82/1/1 80/1/1 81/1/1
f 83/1/1 80/1/1 82/1/1
f 86/3/1 85/3/1 84/3/1
f 87/3/1 85/3/1 86/3/1
f 92/3/1 89/3/1 88/3/1
f 93/3/1 89/3/1 92/3/1
f 94/3/1 91/3/1 90/3/1
f 96/3/1 89/3/1 93/3/1
f 97/3/1 89/3/1 96/3/1
f 100/3/1 95/3/1 94/3/1
f 100/3/1 94/3/1 90/3/1
f 101/3/1 95/3/1 100/3/1
f 102/1/1 99/1/1 98/1/1
f 103/1/1 99/1/1 102/1/1
f 106/2/1 105/2/1 104/2/1
f 107/2/1 105/2/1 106/2/1
f 110/3/1 109/3/1 108/3/1
f 111/3/1 109/3/1 110/3/1
f 112/3/1 109/3/1 111/3/1
f 113/3/1 112/3/1 111/3/1
f 114/3/1 112/3/1 113/3/1
f 118/1/1 116/1/1 115/1/1
f 119/1/1 118/1/1 117/1/1
f 120/1/1 118/1/1 119/1/1
f 121/1/1 116/1/1 118/1/1
f 121/1/1 118/1/1 120/1/1
f 122/1/1 116/1/1 121/1/1
f 123/1/1 121/1/1 120/1/1
f 124/1/1 121/1/1 123/1/1
f 127/3/1 126/3/1 125/3/1
f 128/3/1 126/3/1 127/3/1
f 129/3/1 127/3/1 125/3/1
f 130/3/1 127/3/1 129/3/1
f 133/2/1 132/2/1 131/2/1
f 135/2/1 133/2/1 131/2/1
f 135/2/1 134/2/1 133/2/1
f 136/2/1 134/2/1 135/2/1
f 137/3/2 138/3/2 140/3/2
f 138/3/2 139/3/2 140/3/2
f 140/3/2 139/3/2 141/3/2
f 141/3/2 139/3/2 142/3/2
f 142/3/2 139/3/2 143/3/2
f 141/3/2 142/3/2 144/3/2
f 144/3/2 142/3/2 145/3/2
f 146/3/2 147/3/2 148/3/2
f 148/3/2 147/3/2 149/3/2
f 150/1/2 151/1/2 155/1/2
f 152/3/2 153/3/2 157/3/2
f 154/1/2 155/1/2 159/1/2
f 159/1/2 155/1/2 160/1/2
f 155/1/2 151/1/2 161/1/2
f 160/1/2 155/1/2 161/1/2
f 156/1/2 157/1/2 162/1/2
f 157/3/2 153/3/2 163/3/2
f 162/1/2 157/1/2 163/1/2
f 163/3/2 153/3/2 164/3/2
f 158/3/2 159/3/2 165/3/2
f 159/1/2 160/1/2 166/1/2
f 165/3/2 159/3/2 166/3/2
f 166/1/2 160/1/2 167/1/2
f 156/1/2 162/1/2 169/1/2
f 158/3/2 165/3/2 170/3/2
f 170/3/2 165/3/2 171/3/2
f 168/1/2 169/1/2 174/1/2
f 169/1/2 162/1/2 175/1/2
f 174/1/2 169/1/2 175/1/2
f 162/3/2 163/3/2 176/3/2
f 175/1/2 162/1/2 176/1/2
f 176/3/2 163/3/2 177/3/2
f 172/1/2 173/1/2 178/1/2
f 178/1/2 173/1/2 179/1/2
f 178/1/2 179/1/2 183/1/2
f 180/1/2 181/1/2 183/1/2
f 179/1/2 180/1/2 183/1/2
f 183/1/2 181/1/2 184/1/2
f 184/1/2 181/1/2 185/1/2
f 185/1/2 181/1/2 186/1/2
f 186/1/2 181/1/2 187/1/2
f 182/3/2 183/3/2 188/3/2
f 183/3/2 184/3/2 188/3/2
f 185/1/2 186/1/2 189/1/2
f 182/3/2 188/3/2 190/3/2
f 188/1/2 189/1/2 191/1/2
f 190/3/2 188/3/2 191/3/2
f 189/1/2 186/1/2 192/1/2
f 191/1/2 189/1/2 192/1/2
f 192/1/2 186/1/2 193/1/2
f 191/1/2 192/1/2 194/1/2
f 194/1/2 192/1/2 195/1/2
f 196/3/2 197/3/2 200/3/2
f 200/3/2 197/3/2 201/3/2
f 198/2/2 199/2/2 202/2/2
f 202/2/2 199/2/2 203/2/2
f 204/3/2 205/3/2 206/3/2
f 206/3/2 205/3/2 207/3/2
f 208/3/2 209/3/2 212/3/2
f 212/3/2 209/3/2 213/3/2
f 213/3/2 209/3/2 214/3/2
f 210/1/2 211/1/2 215/1/2
f 215/1/2 211/1/2 216/1/2
f 217/3/2 218/3/2 220/3/2
f 218/3/2 219/3/2 220/3/2
f 220/3/2 219/3/2 221/3/2
f 222/3/2 223/3/2 225/3/2
f 225/3/2 223/3/2 226/3/2
f 224/3/2 225/3/2 228/3/2
f 226/3/2 227/3/2 228/3/2
f 225/3/2 226/3/2 228/3/2
f 228/3/2 227/3/2 229/3/2
f 229/3/2 227/3/2 230/3/2
f 228/3/2 229/3/2 231/3/2
f 231/3/2 229/3/2 232/3/2
f 233/1/2 234/1/2 235/1/2
f 235/1/2 234/1/2 236/1/2
f 239/1/2 240/1/2 242/1/2
f 242/1/2 240/1/2 243/1/2
f 237/2/2 238/2/2 244/2/2
f 244/2/2 238/2/2 245/2/2
f 241/1/2 242/1/2 246/1/2
f 241/1/2 246/1/2 247/1/2
f 247/1/2 246/1/2 248/1/2
f 247/3/2 248/3/2 250/3/2
f 248/3/2 249/3/2 250/3/2
f 250/3/2 249/3/2 251/3/2
f 252/1/2 253/1/2 254/1/2
f 254/1/2 253/1/2 255/1/2
f 256/3/2 257/3/2 258/3/2
f 258/3/2 257/3/2 259/3/2
f 260/2/2 261/2/2 262/2/2
f 262/2/2 261/2/2 263/2/2
f 266/3/3 265/3/3 264/3/3
f 267/3/3 265/3/3 266/3/3
f 270/2/3 269/2/3 268/2/3
f 271/2/3 269/2/3 270/2/3
f 275/3/3 273/3/3 272/3/3
f 275/3/3 274/3/3 273/3/3
f 276/3/3 274/3/3 275/3/3
f 279/1/3 278/1/3 277/1/3
f 280/1/3 278/1/3 279/1/3
f 287/3/3 282/3/3 281/3/3
f 289/1/3 284/1/3 283/1/3
f 290/1/3 284/1/3 289/1/3
f 291/1/3 286/1/3 285/1/3
f 292/1/3 286/1/3 291/1/3
f 293/3/3 287/3/3 281/3/3
f 294/2/3 288/2/3 287/2/3
f 294/3/3 287/3/3 293/3/3
f 296/2/3 288/2/3 294/2/3
f 297/2/3 288/2/3 296/2/3
f 299/3/3 296/3/3 295/3/3
f 300/3/3 296/3/3 299/3/3
f 300/1/3 299/1/3 298/1/3
f 301/3/3 296/3/3 300/3/3
f 303/1/3 300/1/3 298/1/3
f 304/1/3 300/1/3 303/1/3
f 306/3/3 303/3/3 302/3/3
f 306/3/3 304/3/3 303/3/3
f 309/1/3 306/1/3 305/1/3
f 310/3/3 304/3/3 306/3/3
f 310/1/3 306/1/3 309/1/3
f 311/3/3 304/3/3 310/3/3
f 312/3/3 308/3/3 307/3/3
f 313/3/3 308/3/3 312/3/3
f 316/1/3 315/1/3 314/1/3
f 317/1/3 315/1/3 316/1/3
f 320/1/3 319/1/3 318/1/3
f 321/1/3 319/1/3 320/1/3
f 322/1/3 319/1/3 321/1/3
f 324/1/3 323/1/3 322/1/3
f 325/1/3 323/1/3 324/1/3
f 329/3/3 327/3/3 326/3/3
f 330/3/3 327/3/3 329/3/3
f 331/3/3 327/3/3 330/3/3
f 333/1/3 329/1/3 328/1/3
f 333/1/3 330/1/3 329/1/3
f 334/1/3 330/1/3 333/1/3
f 335/1/3 330/1/3 334/1/3
f 336/3/3 333/3/3 332/3/3
f 336/3/3 334/3/3 333/3/3
f 337/3/3 334/3/3 336/3/3
f 340/3/3 339/3/3 338/3/3
f 341/3/3 339/3/3 340/3/3
f 342/3/3 339/3/3 341/3/3
f 345/1/3 344/1/3 343/1/3
f 346/1/3 344/1/3 345/1/3
f 349/1/3 348/1/3 347/1/3
f 350/1/3 348/1/3 349/1/3
f 353/3/3 352/3/3 351/3/3
f 354/3/3 352/3/3 353/3/3
f 355/3/3 352/3/3 354/3/3
f 357/1/3 355/1/3 354/1/3
f 358/1/3 355/1/3 357/1/3
f 359/1/3 357/1/3 356/1/3
f 360/1/3 357/1/3 359/1/3
f 361/1/3 357/1/3 360/1/3
f 364/1/3 361/1/3 360/1/3
f 365/3/3 363/3/3 362/3/3
f 366/3/3 363/3/3 365/3/3
f 369/1/3 361/1/3 364/1/3
f 370/1/3 361/1/3 369/1/3
f 372/3/3 368/3/3 367/3/3
f 373/3/3 368/3/3 372/3/3
f 374/2/3 372/2/3 371/2/3
f 375/2/3 372/2/3 374/2/3
f 378/1/3 377/1/3 376/1/3
f 379/1/3 377/1/3 378/1/3
f 382/1/3 381/1/3 380/1/3
f 383/1/3 381/1/3 382/1/3
f 387/3/3 385/3/3 384/3/3
f 388/3/3 385/3/3 387/3/3
f 389/3/3 387/3/3 386/3/3
f 389/3/3 388/3/3 387/3/3
f 390/3/3 388/3/3 389/3/3
f 393/3/3 392/3/3 391/3/3
f 394/3/3 392/3/3 393/3/3
f 395/3/3 393/3/3 391/3/3
f 396/3/3 393/3/3 395/3/3
f 397/3/4 398/3/4 399/3/4
f 399/3/4 398/3/4 400/3/4
f 401/2/4 402/2/4 403/2/4
f 403/2/4 402/2/4 404/2/4
f 405/1/4 406/1/4 407/1/4
f 407/1/4 406/1/4 408/1/4
f 408/1/4 406/1/4 409/1/4
f 409/3/4 410/3/4 411/3/4
f 408/3/4 409/3/4 411/3/4
f 411/3/4 410/3/4 412/3/4
f 412/1/4 413/1/4 414/1/4
f 412/1/4 414/1/4 415/1/4
f 415/1/4 414/1/4 416/1/4
f 417/1/4 418/1/4 419/1/4
f 419/1/4 418/1/4 420/1/4
f 421/3/4 422/3/4 425/3/4
f 425/3/4 422/3/4 426/3/4
f 426/3/4 422/3/4 427/3/4
f 423/1/4 424/1/4 428/1/4
f 428/1/4 424/1/4 429/1/4
f 425/3/4 426/3/4 430/3/4
f 430/3/4 426/3/4 431/3/4
f 432/2/4 433/2/4 435/2/4
f 435/2/4 433/2/4 436/2/4
f 434/3/4 435/3/4 437/3/4
f 437/3/4 435/3/4 438/3/4
f 442/1/4 443/1/4 445/1/4
f 445/1/4 443/1/4 446/1/4
f 446/1/4 443/1/4 447/1/4
f 439/3/4 440/3/4 448/3/4
f 440/3/4 441/3/4 448/3/4
f 448/3/4 441/3/4 449/3/4
f 447/1/4 443/1/4 450/1/4
f 450/1/4 443/1/4 451/1/4
f 444/3/4 445/3/4 452/3/4
f 445/3/4 446/3/4 452/3/4
f 452/3/4 446/3/4 453/3/4
f 454/1/4 455/1/4 459/1/4
f 455/1/4 456/1/4 459/1/4
f 459/1/4 456/1/4 460/1/4
f 460/1/4 456/1/4 461/1/4
f 457/1/4 458/1/4 462/1/4
f 462/1/4 458/1/4 463/1/4
f 464/3/4 465/3/4 466/3/4
f 466/3/4 465/3/4 467/3/4
f 468/3/4 469/3/4 470/3/4
f 470/3/4 469/3/4 471/3/4
f 472/3/4 473/3/4 474/3/4
f 474/3/4 473/3/4 475/3/4
f 476/1/4 477/1/4 479/1/4
f 479/1/4 477/1/4 480/1/4
f 478/1/4 479/1/4 481/1/4
f 479/1/4 480/1/4 481/1/4
f 481/1/4 480/1/4 482/1/4
f 482/1/4 480/1/4 483/1/4
f 481/1/4 482/1/4 485/1/4
f 484/1/4 485/1/4 486/1/4
f 485/1/4 482/1/4 487/1/4
f 486/1/4 485/1/4 487/1/4
f 487/1/4 482/1/4 488/1/4
f 489/3/4 490/3/4 491/3/4
f 491/3/4 490/3/4 492/3/4
f 493/3/4 494/3/4 495/3/4
f 495/3/4 494/3/4 496/3/4
f 497/3/4 498/3/4 500/3/4
f 500/3/4 498/3/4 501/3/4
f 501/3/4 498/3/4 502/3/4
f 499/2/4 500/2/4 503/2/4
f 500/1/4 501/1/4 503/1/4
f 503/1/4 501/1/4 504/1/4
f 499/2/4 503/2/4 505/2/4
f 505/2/4 503/2/4 506/2/4
f 507/3/4 508/3/4 510/3/4
f 510/3/4 508/3/4 511/3/4
f 511/3/4 508/3/4 512/3/4
f 509/3/4 510/3/4 513/3/4
f 510/3/4 511/3/4 513/3/4
f 513/3/4 511/3/4 514/3/4
f 515/3/4 516/3/4 517/3/4
f 517/3/4 516/3/4 518/3/4
f 521/3/5 520/3/5 519/3/5
f 522/3/5 520/3/5 521/3/5
f 527/3/5 524/3/5 523/3/5
f 528/3/5 524/3/5 527/3/5
f 529/1/5 526/1/5 525/1/5
f 530/1/5 526/1/5 529/1/5
f 535/1/5 532/1/5 531/1/5
f 536/1/5 532/1/5 535/1/5
f 537/3/5 534/3/5 533/3/5
f 538/3/5 537/3/5 533/3/5
f 539/3/5 537/3/5 538/3/5
f 542/2/5 541/2/5 540/2/5
f 543/2/5 541/2/5 542/2/5
f 546/3/5 545/3/5 544/3/5
f 547/3/5 545/3/5 546/3/5
f 550/1/5 549/1/5 548/1/5
f 551/1/5 549/1/5 550/1/5
f 554/1/5 553/1/5 552/1/5
f 555/1/5 553/1/5 554/1/5
f 561/2/5 559/2/5 558/2/5
f 562/3/5 557/3/5 556/3/5
f 563/3/5 557/3/5 562/3/5
f 564/3/5 557/3/5 563/3/5
f 565/1/5 561/1/5 560/1/5
f 565/2/5 559/2/5 561/2/5
f 566/2/5 559/2/5 565/2/5
f 567/1/5 565/1/5 560/1/5
f 568/1/5 565/1/5 567/1/5
f 570/1/5 569/1/5 568/1/5
f 571/1/5 569/1/5 570/1/5
f 576/3/5 573/3/5 572/3/5
f 577/3/5 573/3/5 576/3/5
f 578/3/5 575/3/5 574/3/5
f 579/3/5 575/3/5 578/3/5
f 582/3/5 581/3/5 580/3/5
f 583/3/5 581/3/5 582/3/5
f 584/3/5 581/3/5 583/3/5
f 588/3/5 586/3/5 585/3/5
f 591/3/5 586/3/5 588/3/5
f 591/1/5 588/1/5 587/1/5
f 592/3/5 586/3/5 591/3/5
f 593/1/5 590/1/5 589/1/5
f 594/1/5 590/1/5 593/1/5
f 595/1/5 591/1/5 587/1/5
f 596/1/5 591/1/5 595/1/5
f 599/3/5 598/3/5 597/3/5
f 600/3/5 598/3/5 599/3/5
f 605/3/5 602/3/5 601/3/5
f 607/1/5 604/1/5 603/1/5
f 608/1/5 604/1/5 607/1/5
f 609/3/5 606/3/5 605/3/5
f 609/3/5 605/3/5 601/3/5
f 610/3/5 606/3/5 609/3/5
f 615/1/5 614/1/5 613/1/5
f 616/1/5 614/1/5 615/1/5
f 617/3/5 612/3/5 611/3/5
f 618/3/5 612/3/5 617/3/5
f 621/1/5 620/1/5 619/1/5
f 622/1/5 620/1/5 621/1/5
f 626/1/5 624/1/5 623/1/5
f 627/1/5 624/1/5 626/1/5
f 628/1/5 626/1/5 625/1/5
f 629/1/5 626/1/5 628/1/5
f 634/3/5 631/3/5 630/3/5
f 635/3/5 631/3/5 634/3/5
f 636/3/5 633/3/5 632/3/5
f 638/3/5 634/3/5 630/3/5
f 639/3/5 634/3/5 638/3/5
f 640/3/5 637/3/5 636/3/5
f 640/3/5 636/3/5 632/3/5
f 641/3/5 637/3/5 640/3/5
f 645/3/5 643/3/5 642/3/5
f 646/3/5 645/3/5 644/3/5
f 647/3/5 643/3/5 645/3/5
f 647/3/5 645/3/5 646/3/5
f 650/1/5 649/1/5 648/1/5
f 651/1/5 649/1/5 650/1/5
f 654/2/5 653/2/5 652/2/5
f 655/2/5 653/2/5 654/2/5
f 656/3/6 657/3/6 658/3/6
f 658/3/6 657/3/6 659/3/6
f 659/3/6 657/3/6 660/3/6
f 661/3/6 662/3/6 663/3/6
f 663/3/6 662/3/6 664/3/6
f 664/3/6 662/3/6 665/3/6
f 666/1/6 667/1/6 669/1/6
f 669/1/6 667/1/6 670/1/6
f 668/3/6 669/3/6 670/3/6
f 670/1/6 667/1/6 671/1/6
f 668/3/6 670/3/6 672/3/6
f 672/3/6 670/3/6 673/3/6
f 674/2/6 675/2/6 676/2/6
f 676/2/6 675/2/6 677/2/6
f 677/2/6 675/2/6 678/2/6
f 678/2/6 675/2/6 679/2/6
f 680/3/6 681/3/6 682/3/6
f 682/3/6 681/3/6 683/3/6
f 684/1/6 685/1/6 686/1/6
f 686/1/6 685/1/6 687/1/6
f 688/1/6 689/1/6 691/1/6
f 689/1/6 690/1/6 691/1/6
f 691/1/6 690/1/6 692/1/6
f 693/1/6 694/1/6 695/1/6
f 695/1/6 694/1/6 696/1/6
f 697/3/6 698/3/6 701/3/6
f 697/3/6 701/3/6 702/3/6
f 702/3/6 701/3/6 703/3/6
f 703/3/6 701/3/6 704/3/6
f 699/2/6 700/2/6 705/2/6
f 705/2/6 700/2/6 706/2/6
f 707/1/6 708/1/6 709/1/6
f 709/1/6 708/1/6 710/1/6
f 710/3/6 711/3/6 714/3/6
f 712/1/6 713/1/6 716/1/6
f 716/1/6 713/1/6 717/1/6
f 714/3/6 711/3/6 718/3/6
f 718/3/6 711/3/6 719/3/6
f 716/3/6 717/3/6 720/3/6
f 715/3/6 716/3/6 720/3/6
f 720/3/6 717/3/6 721/3/6
f 722/3/6 723/3/6 725/3/6
f 725/3/6 723/3/6 726/3/6
f 724/1/6 725/1/6 727/1/6
f 725/3/6 726/3/6 728/3/6
f 727/1/6 725/1/6 728/1/6
f 728/3/6 726/3/6 729/3/6
f 730/3/6 731/3/6 733/3/6
f 733/3/6 731/3/6 734/3/6
f 732/1/6 733/1/6 735/1/6
f 735/1/6 733/1/6 736/1/6
f 737/3/6 738/3/6 739/3/6
f 739/3/6 738/3/6 740/3/6
f 741/1/6 742/1/6 744/1/6
f 742/3/6 743/3/6 745/3/6
f 744/1/6 742/1/6 745/1/6
f 745/3/6 743/3/6 748/3/6
f 748/3/6 743/3/6 749/3/6
f 746/1/6 747/1/6 750/1/6
f 750/1/6 747/1/6 751/1/6
f 752/3/6 753/3/6 755/3/6
f 753/1/6 754/1/6 755/1/6
f 755/1/6 754/1/6 756/1/6
f 752/3/6 755/3/6 757/3/6
f 757/3/6 755/3/6 758/3/6
f 759/3/6 760/3/6 763/3/6
f 763/3/6 760/3/6 764/3/6
f 761/3/6 762/3/6 765/3/6
f 765/3/6 762/3/6 766/3/6
f 767/1/6 768/1/6 769/1/6
f 769/1/6 768/1/6 770/1/6
f 769/3/6 770/3/6 772/3/6
f 770/3/6 771/3/6 772/3/6
f 772/3/6 771/3/6 773/3/6
f 774/2/6 775/2/6 776/2/6
f 776/2/6 775/2/6 777/2/6
f 777/2/6 775/2/6 778/2/6
f 776/1/6 777/1/6 779/1/6
f 779/1/6 777/1/6 780/1/6
