# MagicaVoxel @ Ephtracy

# group
o 

# material
mtllib 0_4 milh.mtl
usemtl palette

# normals
vn -1 0 0
vn 1 0 0
vn 0 0 1
vn 0 0 -1
vn 0 -1 0
vn 0 1 0

# texcoords
vt 0.974609 0.5
vt 0.978516 0.5
vt 0.982422 0.5
vt 0.990234 0.5
vt 0.994141 0.5

# verts
v -0.2 1.8 0.1
v -0.2 1.8 -0.2
v -0.2 2 0.1
v -0.2 2 -0.2
v -0.1 1.6 0.1
v -0.1 1.6 -0.2
v -0.1 1.8 0.2
v -0.1 1.8 0.1
v -0.1 1.8 -0.2
v -0.1 1.8 -0.3
v -0.1 2 0.2
v -0.1 2 0.1
v -0.1 2 -0.1
v -0.1 2 -0.2
v -0.1 2 -0.3
v -0.1 2.1 -0.1
v -0.1 2.1 -0.2
v -0.1 2.3 0.1
v -0.1 2.3 -0.2
v 0 1.5 0
v 0 1.5 -0.1
v 0 1.6 0
v 0 1.6 -0.1
v 0 2.3 0
v 0 2.3 -0.1
v 0 2.4 0
v 0 2.4 -0.1
v 0 2.5 0
v 0 2.5 -0.1
v 0.1 1.5 0
v 0.1 1.5 -0.1
v 0.1 1.6 0
v 0.1 1.6 -0.1
v 0.1 2.3 0
v 0.1 2.3 -0.1
v 0.1 2.4 0
v 0.1 2.4 -0.1
v 0.1 2.5 0
v 0.1 2.5 -0.1
v 0.2 1.6 0.1
v 0.2 1.6 -0.2
v 0.2 1.8 0.2
v 0.2 1.8 0.1
v 0.2 1.8 -0.2
v 0.2 1.8 -0.3
v 0.2 2 0.2
v 0.2 2 0.1
v 0.2 2 0
v 0.2 2 -0.1
v 0.2 2 -0.2
v 0.2 2 -0.3
v 0.2 2.1 0.1
v 0.2 2.1 0
v 0.2 2.1 -0.1
v 0.2 2.1 -0.2
v 0.2 2.2 0.1
v 0.2 2.2 0
v 0.2 2.2 -0.1
v 0.2 2.2 -0.2
v 0.2 2.3 0.1
v 0.2 2.3 0
v 0.2 2.3 -0.2
v 0.3 1.8 0.1
v 0.3 1.8 -0.2
v 0.3 2 0.1
v 0.3 2 -0.2
v -0.1 1.8 0.2
v -0.1 2 0.2
v 0.2 1.8 0.2
v 0.2 2 0.2
v -0.2 1.8 0.1
v -0.2 2 0.1
v -0.1 1.6 0.1
v -0.1 1.8 0.1
v -0.1 2 0.1
v -0.1 2.3 0.1
v 0 2 0.1
v 0 2.1 0.1
v 0 2.2 0.1
v 0.1 2 0.1
v 0.1 2.1 0.1
v 0.1 2.2 0.1
v 0.1 2.3 0.1
v 0.2 1.6 0.1
v 0.2 1.8 0.1
v 0.2 2 0.1
v 0.2 2.1 0.1
v 0.2 2.2 0.1
v 0.2 2.3 0.1
v 0.3 1.8 0.1
v 0.3 2 0.1
v 0 1.5 0
v 0 1.6 0
v 0 2.3 0
v 0 2.4 0
v 0 2.5 0
v 0.1 1.5 0
v 0.1 1.6 0
v 0.1 2.3 0
v 0.1 2.4 0
v 0.1 2.5 0
v 0 1.5 -0.1
v 0 1.6 -0.1
v 0 2.3 -0.1
v 0 2.4 -0.1
v 0 2.5 -0.1
v 0.1 1.5 -0.1
v 0.1 1.6 -0.1
v 0.1 2.3 -0.1
v 0.1 2.4 -0.1
v 0.1 2.5 -0.1
v -0.2 1.8 -0.2
v -0.2 2 -0.2
v -0.1 1.6 -0.2
v -0.1 1.8 -0.2
v -0.1 2 -0.2
v -0.1 2.1 -0.2
v -0.1 2.3 -0.2
v 0 2 -0.2
v 0 2.1 -0.2
v 0 2.2 -0.2
v 0.1 2 -0.2
v 0.1 2.1 -0.2
v 0.2 1.6 -0.2
v 0.2 1.8 -0.2
v 0.2 2 -0.2
v 0.2 2.1 -0.2
v 0.2 2.2 -0.2
v 0.2 2.3 -0.2
v 0.3 1.8 -0.2
v 0.3 2 -0.2
v -0.1 1.8 -0.3
v -0.1 2 -0.3
v 0.2 1.8 -0.3
v 0.2 2 -0.3
v 0 1.5 0
v 0.1 1.5 0
v 0 1.5 -0.1
v 0.1 1.5 -0.1
v -0.1 1.6 0.1
v 0.2 1.6 0.1
v 0 1.6 0
v 0.1 1.6 0
v 0 1.6 -0.1
v 0.1 1.6 -0.1
v -0.1 1.6 -0.2
v 0.2 1.6 -0.2
v -0.1 1.8 0.2
v 0.2 1.8 0.2
v -0.2 1.8 0.1
v -0.1 1.8 0.1
v 0.2 1.8 0.1
v 0.3 1.8 0.1
v -0.2 1.8 -0.2
v -0.1 1.8 -0.2
v 0.2 1.8 -0.2
v 0.3 1.8 -0.2
v -0.1 1.8 -0.3
v 0.2 1.8 -0.3
v -0.1 2 0.2
v 0.2 2 0.2
v -0.2 2 0.1
v -0.1 2 0.1
v 0 2 0.1
v 0.1 2 0.1
v 0.2 2 0.1
v 0.3 2 0.1
v 0.2 2 0
v -0.1 2 -0.1
v 0.2 2 -0.1
v -0.2 2 -0.2
v -0.1 2 -0.2
v 0 2 -0.2
v 0.1 2 -0.2
v 0.2 2 -0.2
v 0.3 2 -0.2
v -0.1 2 -0.3
v 0.2 2 -0.3
v -0.1 2.3 0.1
v 0.1 2.3 0.1
v 0.2 2.3 0.1
v 0 2.3 0
v 0.1 2.3 0
v 0.2 2.3 0
v 0 2.3 -0.1
v 0.1 2.3 -0.1
v -0.1 2.3 -0.2
v 0.2 2.3 -0.2
v 0 2.5 0
v 0.1 2.5 0
v 0 2.5 -0.1
v 0.1 2.5 -0.1

# faces
f 3/5/1 2/5/1 1/5/1
f 4/5/1 2/5/1 3/5/1
f 8/5/1 6/5/1 5/5/1
f 9/5/1 6/5/1 8/5/1
f 11/5/1 8/5/1 7/5/1
f 12/5/1 8/5/1 11/5/1
f 14/5/1 10/5/1 9/5/1
f 15/5/1 10/5/1 14/5/1
f 16/2/1 13/2/1 12/2/1
f 16/1/1 14/1/1 13/1/1
f 17/1/1 14/1/1 16/1/1
f 18/2/1 16/2/1 12/2/1
f 18/2/1 17/2/1 16/2/1
f 19/2/1 17/2/1 18/2/1
f 22/4/1 21/4/1 20/4/1
f 23/4/1 21/4/1 22/4/1
f 26/2/1 25/2/1 24/2/1
f 27/2/1 25/2/1 26/2/1
f 28/3/1 27/3/1 26/3/1
f 29/3/1 27/3/1 28/3/1
f 30/4/2 31/4/2 32/4/2
f 32/4/2 31/4/2 33/4/2
f 34/2/2 35/2/2 36/2/2
f 36/2/2 35/2/2 37/2/2
f 36/3/2 37/3/2 38/3/2
f 38/3/2 37/3/2 39/3/2
f 40/5/2 41/5/2 43/5/2
f 43/5/2 41/5/2 44/5/2
f 42/5/2 43/5/2 46/5/2
f 46/5/2 43/5/2 47/5/2
f 44/5/2 45/5/2 50/5/2
f 50/5/2 45/5/2 51/5/2
f 47/3/2 48/3/2 52/3/2
f 48/2/2 49/2/2 53/2/2
f 52/3/2 48/3/2 53/3/2
f 49/3/2 50/3/2 54/3/2
f 53/2/2 49/2/2 54/2/2
f 54/3/2 50/3/2 55/3/2
f 52/2/2 53/2/2 56/2/2
f 53/2/2 54/2/2 56/2/2
f 56/2/2 54/2/2 57/2/2
f 54/1/2 55/1/2 58/1/2
f 57/2/2 54/2/2 58/2/2
f 58/1/2 55/1/2 59/1/2
f 56/3/2 57/3/2 60/3/2
f 57/2/2 58/2/2 61/2/2
f 60/3/2 57/3/2 61/3/2
f 58/2/2 59/2/2 61/2/2
f 61/2/2 59/2/2 62/2/2
f 63/5/2 64/5/2 65/5/2
f 65/5/2 64/5/2 66/5/2
f 69/5/3 68/5/3 67/5/3
f 70/5/3 68/5/3 69/5/3
f 74/5/3 72/5/3 71/5/3
f 75/5/3 72/5/3 74/5/3
f 77/2/3 76/2/3 75/2/3
f 78/2/3 76/2/3 77/2/3
f 79/2/3 76/2/3 78/2/3
f 80/1/3 78/1/3 77/1/3
f 81/3/3 79/3/3 78/3/3
f 81/1/3 78/1/3 80/1/3
f 82/2/3 76/2/3 79/2/3
f 82/3/3 79/3/3 81/3/3
f 83/2/3 76/2/3 82/2/3
f 84/5/3 74/5/3 73/5/3
f 85/5/3 74/5/3 84/5/3
f 86/3/3 81/3/3 80/3/3
f 87/2/3 82/2/3 81/2/3
f 87/3/3 81/3/3 86/3/3
f 88/3/3 83/3/3 82/3/3
f 88/2/3 82/2/3 87/2/3
f 89/3/3 83/3/3 88/3/3
f 90/5/3 86/5/3 85/5/3
f 91/5/3 86/5/3 90/5/3
f 97/4/3 93/4/3 92/4/3
f 98/4/3 93/4/3 97/4/3
f 99/2/3 95/2/3 94/2/3
f 100/3/3 96/3/3 95/3/3
f 100/2/3 95/2/3 99/2/3
f 101/3/3 96/3/3 100/3/3
f 102/4/4 103/4/4 107/4/4
f 107/4/4 103/4/4 108/4/4
f 104/2/4 105/2/4 109/2/4
f 105/3/4 106/3/4 110/3/4
f 109/2/4 105/2/4 110/2/4
f 110/3/4 106/3/4 111/3/4
f 112/5/4 113/5/4 115/5/4
f 115/5/4 113/5/4 116/5/4
f 116/1/4 117/1/4 119/1/4
f 117/2/4 118/2/4 120/2/4
f 119/1/4 117/1/4 120/1/4
f 120/2/4 118/2/4 121/2/4
f 119/2/4 120/2/4 122/2/4
f 120/1/4 121/1/4 123/1/4
f 122/2/4 120/2/4 123/2/4
f 114/5/4 115/5/4 124/5/4
f 124/5/4 115/5/4 125/5/4
f 122/3/4 123/3/4 126/3/4
f 123/1/4 121/1/4 127/1/4
f 126/3/4 123/3/4 127/3/4
f 121/2/4 118/2/4 128/2/4
f 127/1/4 121/1/4 128/1/4
f 128/2/4 118/2/4 129/2/4
f 125/5/4 126/5/4 130/5/4
f 130/5/4 126/5/4 131/5/4
f 132/5/4 133/5/4 134/5/4
f 134/5/4 133/5/4 135/5/4
f 138/4/5 137/4/5 136/4/5
f 139/4/5 137/4/5 138/4/5
f 142/5/5 141/5/5 140/5/5
f 143/5/5 141/5/5 142/5/5
f 144/5/5 142/5/5 140/5/5
f 145/5/5 141/5/5 143/5/5
f 146/5/5 144/5/5 140/5/5
f 146/5/5 145/5/5 144/5/5
f 147/5/5 141/5/5 145/5/5
f 147/5/5 145/5/5 146/5/5
f 151/5/5 149/5/5 148/5/5
f 152/5/5 149/5/5 151/5/5
f 154/5/5 151/5/5 150/5/5
f 155/5/5 151/5/5 154/5/5
f 156/5/5 153/5/5 152/5/5
f 157/5/5 153/5/5 156/5/5
f 158/5/5 156/5/5 155/5/5
f 159/5/5 156/5/5 158/5/5
f 160/5/6 161/5/6 163/5/6
f 163/5/6 161/5/6 164/5/6
f 164/5/6 161/5/6 165/5/6
f 165/5/6 161/5/6 166/5/6
f 166/5/6 167/5/6 168/5/6
f 162/5/6 163/5/6 169/5/6
f 168/5/6 167/5/6 170/5/6
f 162/5/6 169/5/6 171/5/6
f 171/5/6 169/5/6 172/5/6
f 170/5/6 167/5/6 175/5/6
f 175/5/6 167/5/6 176/5/6
f 173/5/6 174/5/6 177/5/6
f 174/5/6 175/5/6 177/5/6
f 172/5/6 173/5/6 177/5/6
f 177/5/6 175/5/6 178/5/6
f 179/2/6 180/2/6 182/2/6
f 180/3/6 181/3/6 183/3/6
f 182/2/6 180/2/6 183/2/6
f 183/3/6 181/3/6 184/3/6
f 179/2/6 182/2/6 185/2/6
f 183/2/6 184/2/6 186/2/6
f 179/2/6 185/2/6 187/2/6
f 185/2/6 186/2/6 187/2/6
f 186/2/6 184/2/6 188/2/6
f 187/2/6 186/2/6 188/2/6
f 189/3/6 190/3/6 191/3/6
f 191/3/6 190/3/6 192/3/6
