# MagicaVoxel @ Ephtracy

# group
o 

# material
mtllib Ferramenta - Ancinho.mtl
usemtl palette

# normals
vn -1 0 0
vn 1 0 0
vn 0 0 1
vn 0 0 -1
vn 0 -1 0
vn 0 1 0

# texcoords
vt 0.201172 0.5
vt 0.369141 0.5
vt 0.970703 0.5
vt 0.982422 0.5

# verts
v -0.4 0.9 0.1
v -0.4 0.9 -0.1
v -0.4 1 0.1
v -0.4 1 -0.1
v -0.2 0.9 0.1
v -0.2 0.9 -1.49012e-08
v -0.2 1 0.1
v -0.2 1 -1.49012e-08
v -0.1 0.9 -0.1
v -0.1 0.9 -0.2
v -0.1 1 -0.1
v -0.1 1 -0.2
v 0 0 -0.2
v 0 0 -0.3
v 0 0.8 -0.1
v 0 0.8 -0.2
v 0 0.8 -0.3
v 0 0.9 0.1
v 0 0.9 -1.49012e-08
v 0 0.9 -0.1
v 0 0.9 -0.2
v 0 0.9 -0.3
v 0 1 0.1
v 0 1 -1.49012e-08
v 0 1 -0.2
v 0 1 -0.3
v 0 1.1 -0.2
v 0 1.1 -0.3
v 0.2 0.9 0.1
v 0.2 0.9 -1.49012e-08
v 0.2 1 0.1
v 0.2 1 -1.49012e-08
v 0.4 0.9 0.1
v 0.4 0.9 -1.49012e-08
v 0.4 1 0.1
v 0.4 1 -1.49012e-08
v -0.3 0.9 0.1
v -0.3 0.9 -1.49012e-08
v -0.3 1 0.1
v -0.3 1 -1.49012e-08
v -0.1 0.9 0.1
v -0.1 0.9 -1.49012e-08
v -0.1 1 0.1
v -0.1 1 -1.49012e-08
v 0.1 0 -0.2
v 0.1 0 -0.3
v 0.1 0.8 -0.1
v 0.1 0.8 -0.2
v 0.1 0.8 -0.3
v 0.1 0.9 0.1
v 0.1 0.9 -1.49012e-08
v 0.1 0.9 -0.1
v 0.1 0.9 -0.2
v 0.1 0.9 -0.3
v 0.1 1 0.1
v 0.1 1 -1.49012e-08
v 0.1 1 -0.2
v 0.1 1 -0.3
v 0.1 1.1 -0.2
v 0.1 1.1 -0.3
v 0.2 0.9 -0.1
v 0.2 0.9 -0.2
v 0.2 1 -0.1
v 0.2 1 -0.2
v 0.3 0.9 0.1
v 0.3 0.9 -1.49012e-08
v 0.3 1 0.1
v 0.3 1 -1.49012e-08
v 0.5 0.9 0.1
v 0.5 0.9 -0.1
v 0.5 1 0.1
v 0.5 1 -0.1
v -0.4 0.9 0.1
v -0.4 1 0.1
v -0.3 0.9 0.1
v -0.3 1 0.1
v -0.2 0.9 0.1
v -0.2 1 0.1
v -0.1 0.9 0.1
v -0.1 1 0.1
v 0 0.9 0.1
v 0 1 0.1
v 0.1 0.9 0.1
v 0.1 1 0.1
v 0.2 0.9 0.1
v 0.2 1 0.1
v 0.3 0.9 0.1
v 0.3 1 0.1
v 0.4 0.9 0.1
v 0.4 1 0.1
v 0.5 0.9 0.1
v 0.5 1 0.1
v -0.3 0.9 -1.49012e-08
v -0.3 1 -1.49012e-08
v -0.2 0.9 -1.49012e-08
v -0.2 1 -1.49012e-08
v -0.1 0.9 -1.49012e-08
v -0.1 1 -1.49012e-08
v 0 0.9 -1.49012e-08
v 0 1 -1.49012e-08
v 0.1 0.9 -1.49012e-08
v 0.1 1 -1.49012e-08
v 0.2 0.9 -1.49012e-08
v 0.2 1 -1.49012e-08
v 0.3 0.9 -1.49012e-08
v 0.3 1 -1.49012e-08
v 0.4 0.9 -1.49012e-08
v 0.4 1 -1.49012e-08
v 0 0.8 -0.1
v 0 0.9 -0.1
v 0.1 0.8 -0.1
v 0.1 0.9 -0.1
v 0 0 -0.2
v 0 0.8 -0.2
v 0 1 -0.2
v 0 1.1 -0.2
v 0.1 0 -0.2
v 0.1 0.8 -0.2
v 0.1 1 -0.2
v 0.1 1.1 -0.2
v -0.4 0.9 -0.1
v -0.4 1 -0.1
v -0.1 0.9 -0.1
v -0.1 1 -0.1
v 0.2 0.9 -0.1
v 0.2 1 -0.1
v 0.5 0.9 -0.1
v 0.5 1 -0.1
v -0.1 0.9 -0.2
v -0.1 1 -0.2
v 0 0.9 -0.2
v 0 1 -0.2
v 0.1 0.9 -0.2
v 0.1 1 -0.2
v 0.2 0.9 -0.2
v 0.2 1 -0.2
v 0 0 -0.3
v 0 0.8 -0.3
v 0 0.9 -0.3
v 0 1 -0.3
v 0 1.1 -0.3
v 0.1 0 -0.3
v 0.1 0.8 -0.3
v 0.1 0.9 -0.3
v 0.1 1 -0.3
v 0.1 1.1 -0.3
v 0 0 -0.2
v 0.1 0 -0.2
v 0 0 -0.3
v 0.1 0 -0.3
v 0 0.8 -0.1
v 0.1 0.8 -0.1
v 0 0.8 -0.2
v 0.1 0.8 -0.2
v -0.4 0.9 0.1
v -0.3 0.9 0.1
v -0.2 0.9 0.1
v -0.1 0.9 0.1
v 0 0.9 0.1
v 0.1 0.9 0.1
v 0.2 0.9 0.1
v 0.3 0.9 0.1
v 0.4 0.9 0.1
v 0.5 0.9 0.1
v -0.3 0.9 -1.49012e-08
v -0.2 0.9 -1.49012e-08
v -0.1 0.9 -1.49012e-08
v 0 0.9 -1.49012e-08
v 0.1 0.9 -1.49012e-08
v 0.2 0.9 -1.49012e-08
v 0.3 0.9 -1.49012e-08
v 0.4 0.9 -1.49012e-08
v -0.4 0.9 -0.1
v -0.1 0.9 -0.1
v 0 0.9 -0.1
v 0.1 0.9 -0.1
v 0.2 0.9 -0.1
v 0.5 0.9 -0.1
v -0.1 0.9 -0.2
v 0 0.9 -0.2
v 0.1 0.9 -0.2
v 0.2 0.9 -0.2
v -0.4 1 0.1
v -0.3 1 0.1
v -0.2 1 0.1
v -0.1 1 0.1
v 0 1 0.1
v 0.1 1 0.1
v 0.2 1 0.1
v 0.3 1 0.1
v 0.4 1 0.1
v 0.5 1 0.1
v -0.3 1 -1.49012e-08
v -0.2 1 -1.49012e-08
v -0.1 1 -1.49012e-08
v 0 1 -1.49012e-08
v 0.1 1 -1.49012e-08
v 0.2 1 -1.49012e-08
v 0.3 1 -1.49012e-08
v 0.4 1 -1.49012e-08
v -0.4 1 -0.1
v -0.1 1 -0.1
v 0 1 -0.1
v 0.1 1 -0.1
v 0.2 1 -0.1
v 0.5 1 -0.1
v -0.1 1 -0.2
v 0 1 -0.2
v 0.1 1 -0.2
v 0.2 1 -0.2
v 0 1.1 -0.2
v 0.1 1.1 -0.2
v 0 1.1 -0.3
v 0.1 1.1 -0.3

# faces
f 3/3/1 2/3/1 1/3/1
f 4/3/1 2/3/1 3/3/1
f 7/3/1 6/3/1 5/3/1
f 8/3/1 6/3/1 7/3/1
f 11/3/1 10/3/1 9/3/1
f 12/3/1 10/3/1 11/3/1
f 16/2/1 14/2/1 13/2/1
f 17/2/1 14/2/1 16/2/1
f 20/4/1 16/4/1 15/4/1
f 21/1/1 17/1/1 16/1/1
f 21/4/1 16/4/1 20/4/1
f 22/1/1 17/1/1 21/1/1
f 23/3/1 19/3/1 18/3/1
f 24/3/1 19/3/1 23/3/1
f 25/4/1 22/4/1 21/4/1
f 26/4/1 22/4/1 25/4/1
f 27/1/1 26/1/1 25/1/1
f 28/1/1 26/1/1 27/1/1
f 31/3/1 30/3/1 29/3/1
f 32/3/1 30/3/1 31/3/1
f 35/3/1 34/3/1 33/3/1
f 36/3/1 34/3/1 35/3/1
f 37/3/2 38/3/2 39/3/2
f 39/3/2 38/3/2 40/3/2
f 41/3/2 42/3/2 43/3/2
f 43/3/2 42/3/2 44/3/2
f 45/2/2 46/2/2 48/2/2
f 48/2/2 46/2/2 49/2/2
f 47/4/2 48/4/2 52/4/2
f 48/1/2 49/1/2 53/1/2
f 52/4/2 48/4/2 53/4/2
f 53/1/2 49/1/2 54/1/2
f 50/3/2 51/3/2 55/3/2
f 55/3/2 51/3/2 56/3/2
f 53/4/2 54/4/2 57/4/2
f 57/4/2 54/4/2 58/4/2
f 57/1/2 58/1/2 59/1/2
f 59/1/2 58/1/2 60/1/2
f 61/3/2 62/3/2 63/3/2
f 63/3/2 62/3/2 64/3/2
f 65/3/2 66/3/2 67/3/2
f 67/3/2 66/3/2 68/3/2
f 69/3/2 70/3/2 71/3/2
f 71/3/2 70/3/2 72/3/2
f 75/3/3 74/3/3 73/3/3
f 76/3/3 74/3/3 75/3/3
f 79/3/3 78/3/3 77/3/3
f 80/3/3 78/3/3 79/3/3
f 83/3/3 82/3/3 81/3/3
f 84/3/3 82/3/3 83/3/3
f 87/3/3 86/3/3 85/3/3
f 88/3/3 86/3/3 87/3/3
f 91/3/3 90/3/3 89/3/3
f 92/3/3 90/3/3 91/3/3
f 95/3/3 94/3/3 93/3/3
f 96/3/3 94/3/3 95/3/3
f 99/3/3 98/3/3 97/3/3
f 100/3/3 98/3/3 99/3/3
f 103/3/3 102/3/3 101/3/3
f 104/3/3 102/3/3 103/3/3
f 107/3/3 106/3/3 105/3/3
f 108/3/3 106/3/3 107/3/3
f 111/4/3 110/4/3 109/4/3
f 112/4/3 110/4/3 111/4/3
f 117/2/3 114/2/3 113/2/3
f 118/2/3 114/2/3 117/2/3
f 119/1/3 116/1/3 115/1/3
f 120/1/3 116/1/3 119/1/3
f 121/3/4 122/3/4 123/3/4
f 123/3/4 122/3/4 124/3/4
f 125/3/4 126/3/4 127/3/4
f 127/3/4 126/3/4 128/3/4
f 129/3/4 130/3/4 131/3/4
f 131/3/4 130/3/4 132/3/4
f 133/3/4 134/3/4 135/3/4
f 135/3/4 134/3/4 136/3/4
f 137/2/4 138/2/4 142/2/4
f 138/1/4 139/1/4 143/1/4
f 142/2/4 138/2/4 143/2/4
f 139/4/4 140/4/4 144/4/4
f 143/1/4 139/1/4 144/1/4
f 140/1/4 141/1/4 145/1/4
f 144/4/4 140/4/4 145/4/4
f 145/1/4 141/1/4 146/1/4
f 149/2/5 148/2/5 147/2/5
f 150/2/5 148/2/5 149/2/5
f 153/4/5 152/4/5 151/4/5
f 154/4/5 152/4/5 153/4/5
f 165/3/5 156/3/5 155/3/5
f 166/3/5 158/3/5 157/3/5
f 167/3/5 158/3/5 166/3/5
f 168/3/5 160/3/5 159/3/5
f 169/3/5 160/3/5 168/3/5
f 170/3/5 162/3/5 161/3/5
f 171/3/5 162/3/5 170/3/5
f 172/3/5 164/3/5 163/3/5
f 173/3/5 171/3/5 170/3/5
f 173/3/5 172/3/5 171/3/5
f 173/3/5 165/3/5 155/3/5
f 173/3/5 167/3/5 166/3/5
f 173/3/5 170/3/5 169/3/5
f 173/3/5 169/3/5 168/3/5
f 173/3/5 168/3/5 167/3/5
f 173/3/5 166/3/5 165/3/5
f 174/3/5 172/3/5 173/3/5
f 175/3/5 172/3/5 174/3/5
f 176/3/5 172/3/5 175/3/5
f 177/3/5 172/3/5 176/3/5
f 178/3/5 164/3/5 172/3/5
f 178/3/5 172/3/5 177/3/5
f 179/3/5 175/3/5 174/3/5
f 180/3/5 175/3/5 179/3/5
f 181/3/5 177/3/5 176/3/5
f 182/3/5 177/3/5 181/3/5
f 183/3/6 184/3/6 193/3/6
f 185/3/6 186/3/6 194/3/6
f 194/3/6 186/3/6 195/3/6
f 187/3/6 188/3/6 196/3/6
f 196/3/6 188/3/6 197/3/6
f 189/3/6 190/3/6 198/3/6
f 198/3/6 190/3/6 199/3/6
f 191/3/6 192/3/6 200/3/6
f 198/3/6 199/3/6 201/3/6
f 199/3/6 200/3/6 201/3/6
f 183/3/6 193/3/6 201/3/6
f 194/3/6 195/3/6 201/3/6
f 197/3/6 198/3/6 201/3/6
f 196/3/6 197/3/6 201/3/6
f 195/3/6 196/3/6 201/3/6
f 193/3/6 194/3/6 201/3/6
f 201/3/6 200/3/6 202/3/6
f 202/3/6 200/3/6 203/3/6
f 203/3/6 200/3/6 204/3/6
f 204/3/6 200/3/6 205/3/6
f 200/3/6 192/3/6 206/3/6
f 205/3/6 200/3/6 206/3/6
f 202/3/6 203/3/6 207/3/6
f 203/4/6 204/4/6 208/4/6
f 207/3/6 203/3/6 208/3/6
f 204/3/6 205/3/6 209/3/6
f 208/4/6 204/4/6 209/4/6
f 209/3/6 205/3/6 210/3/6
f 211/1/6 212/1/6 213/1/6
f 213/1/6 212/1/6 214/1/6
