# MagicaVoxel @ Ephtracy

# group
o 

# material
mtllib 2_farm-3.mtl
usemtl palette

# normals
vn -1 0 0
vn 1 0 0
vn 0 0 1
vn 0 0 -1
vn 0 -1 0
vn 0 1 0

# texcoords
vt 0.0605469 0.5
vt 0.0683594 0.5
vt 0.115234 0.5
vt 0.146484 0.5
vt 0.181641 0.5
vt 0.623047 0.5
vt 0.994141 0.5

# verts
v -0.2 0.8 -0.9
v -0.2 0.8 -1
v -0.2 0.9 -0.9
v -0.2 0.9 -1
v -0.1 0.2 -0.9
v -0.1 0.2 -1
v -0.1 0.3 -0.8
v -0.1 0.3 -0.9
v -0.1 0.3 -1
v -0.1 0.3 -1.1
v -0.1 0.6 -0.8
v -0.1 0.6 -1.1
v -0.1 0.7 -0.8
v -0.1 0.7 -0.9
v -0.1 0.7 -1.1
v -0.1 0.8 -0.8
v -0.1 0.8 -0.9
v -0.1 0.8 -1
v -0.1 0.8 -1.1
v -0.1 0.9 -0.7
v -0.1 0.9 -0.8
v -0.1 0.9 -0.9
v -0.1 0.9 -1
v -0.1 1 -0.7
v -0.1 1 -0.9
v -0.1 1 -1
v -0.1 1 -1.1
v -0.1 1.1 -0.9
v -0.1 1.1 -1
v 0 0.6 -0.9
v 0 0.6 -1
v 0 0.7 -0.9
v 0 0.7 -1
v 0 1 -0.8
v 0 1 -0.9
v 0 1 -1
v 0 1 -1.1
v 0 1.1 -0.8
v 0 1.1 -0.9
v 0 1.1 -1
v 0 1.1 -1.1
v 0.1 0.6 -1
v 0.1 0.6 -1.1
v 0.1 0.7 -1
v 0.1 0.7 -1.1
v 0.2 0.6 -0.9
v 0.2 0.6 -1
v 0.2 0.6 -1.1
v 0.2 0.7 -0.9
v 0.2 0.7 -1
v 0.2 0.7 -1.1
v 0.2 1 -0.8
v 0.2 1 -0.9
v 0.2 1 -1
v 0.2 1 -1.1
v 0.2 1.1 -0.8
v 0.2 1.1 -0.9
v 0.2 1.1 -1
v 0.2 1.1 -1.1
v 0.3 0.2 -0.9
v 0.3 0.2 -1
v 0.3 0.3 -0.8
v 0.3 0.3 -0.9
v 0.3 0.3 -1
v 0.3 0.3 -1.1
v 0.3 0.6 -0.8
v 0.3 0.6 -1.1
v 0.3 0.7 -0.8
v 0.3 0.7 -0.9
v 0.3 0.7 -1.1
v 0.3 0.8 -0.8
v 0.3 0.8 -0.9
v 0.3 0.8 -1
v 0.3 0.8 -1.1
v 0.3 0.9 -0.7
v 0.3 0.9 -0.8
v 0.3 0.9 -0.9
v 0.3 0.9 -1
v 0.3 1 -0.7
v 0.3 1 -0.9
v 0.3 1 -1
v 0.3 1 -1.1
v 0.3 1.1 -0.9
v 0.3 1.1 -1
v 0.4 0.8 -0.9
v 0.4 0.8 -1
v 0.4 0.9 -0.9
v 0.4 0.9 -1
v -0.1 0.9 -0.7
v -0.1 1 -0.7
v 0.3 0.9 -0.7
v 0.3 1 -0.7
v -0.1 0.3 -0.8
v -0.1 0.6 -0.8
v -0.1 0.7 -0.8
v -0.1 0.8 -0.8
v -0.1 0.9 -0.8
v 0 0.8 -0.8
v 0 0.9 -0.8
v 0 1 -0.8
v 0 1.1 -0.8
v 0.2 0.8 -0.8
v 0.2 0.9 -0.8
v 0.2 1 -0.8
v 0.2 1.1 -0.8
v 0.3 0.3 -0.8
v 0.3 0.6 -0.8
v 0.3 0.7 -0.8
v 0.3 0.8 -0.8
v 0.3 0.9 -0.8
v -0.2 0.8 -0.9
v -0.2 0.9 -0.9
v -0.1 0.2 -0.9
v -0.1 0.3 -0.9
v -0.1 0.8 -0.9
v -0.1 0.9 -0.9
v -0.1 1 -0.9
v -0.1 1.1 -0.9
v 0 0.6 -0.9
v 0 0.7 -0.9
v 0 1 -0.9
v 0 1.1 -0.9
v 0.2 0.6 -0.9
v 0.2 0.7 -0.9
v 0.2 1 -0.9
v 0.2 1.1 -0.9
v 0.3 0.2 -0.9
v 0.3 0.3 -0.9
v 0.3 0.8 -0.9
v 0.3 0.9 -0.9
v 0.3 1 -0.9
v 0.3 1.1 -0.9
v 0.4 0.8 -0.9
v 0.4 0.9 -0.9
v -0.2 0.8 -1
v -0.2 0.9 -1
v -0.1 0.2 -1
v -0.1 0.3 -1
v -0.1 0.8 -1
v -0.1 0.9 -1
v -0.1 1 -1
v -0.1 1.1 -1
v 0 0.6 -1
v 0 0.7 -1
v 0 1 -1
v 0 1.1 -1
v 0.1 0.6 -1
v 0.1 0.7 -1
v 0.2 1 -1
v 0.2 1.1 -1
v 0.3 0.2 -1
v 0.3 0.3 -1
v 0.3 0.8 -1
v 0.3 0.9 -1
v 0.3 1 -1
v 0.3 1.1 -1
v 0.4 0.8 -1
v 0.4 0.9 -1
v -0.1 0.3 -1.1
v -0.1 0.6 -1.1
v -0.1 0.7 -1.1
v -0.1 0.8 -1.1
v -0.1 1 -1.1
v 0 0.8 -1.1
v 0 0.9 -1.1
v 0 1 -1.1
v 0 1.1 -1.1
v 0.1 0.6 -1.1
v 0.1 0.7 -1.1
v 0.2 0.6 -1.1
v 0.2 0.7 -1.1
v 0.2 0.8 -1.1
v 0.2 0.9 -1.1
v 0.2 1 -1.1
v 0.2 1.1 -1.1
v 0.3 0.3 -1.1
v 0.3 0.6 -1.1
v 0.3 0.7 -1.1
v 0.3 0.8 -1.1
v 0.3 1 -1.1
v -0.1 0.2 -0.9
v 0.3 0.2 -0.9
v -0.1 0.2 -1
v 0.3 0.2 -1
v -0.1 0.3 -0.8
v 0.3 0.3 -0.8
v -0.1 0.3 -0.9
v 0.3 0.3 -0.9
v -0.1 0.3 -1
v 0.3 0.3 -1
v -0.1 0.3 -1.1
v 0.3 0.3 -1.1
v -0.1 0.7 -0.8
v 0.3 0.7 -0.8
v -0.1 0.7 -0.9
v 0 0.7 -0.9
v 0.2 0.7 -0.9
v 0.3 0.7 -0.9
v 0 0.7 -1
v 0.1 0.7 -1
v 0.2 0.7 -1
v -0.1 0.7 -1.1
v 0.1 0.7 -1.1
v 0.2 0.7 -1.1
v 0.3 0.7 -1.1
v -0.2 0.8 -0.9
v -0.1 0.8 -0.9
v 0.3 0.8 -0.9
v 0.4 0.8 -0.9
v -0.2 0.8 -1
v -0.1 0.8 -1
v 0.3 0.8 -1
v 0.4 0.8 -1
v -0.1 0.9 -0.7
v 0.3 0.9 -0.7
v -0.1 0.9 -0.8
v 0 0.9 -0.8
v 0.2 0.9 -0.8
v 0.3 0.9 -0.8
v -0.1 0.6 -0.8
v 0.3 0.6 -0.8
v 0 0.6 -0.9
v 0.2 0.6 -0.9
v 0 0.6 -1
v 0.1 0.6 -1
v 0.2 0.6 -1
v -0.1 0.6 -1.1
v 0.1 0.6 -1.1
v 0.2 0.6 -1.1
v 0.3 0.6 -1.1
v -0.2 0.9 -0.9
v -0.1 0.9 -0.9
v 0.3 0.9 -0.9
v 0.4 0.9 -0.9
v -0.2 0.9 -1
v -0.1 0.9 -1
v 0.3 0.9 -1
v 0.4 0.9 -1
v -0.1 1 -0.7
v 0.3 1 -0.7
v 0 1 -0.8
v 0.2 1 -0.8
v -0.1 1 -0.9
v 0 1 -0.9
v 0.2 1 -0.9
v 0.3 1 -0.9
v -0.1 1 -1
v 0 1 -1
v 0.2 1 -1
v 0.3 1 -1
v -0.1 1 -1.1
v 0 1 -1.1
v 0.2 1 -1.1
v 0.3 1 -1.1
v 0 1.1 -0.8
v 0.2 1.1 -0.8
v -0.1 1.1 -0.9
v 0 1.1 -0.9
v 0.2 1.1 -0.9
v 0.3 1.1 -0.9
v -0.1 1.1 -1
v 0 1.1 -1
v 0.2 1.1 -1
v 0.3 1.1 -1
v 0 1.1 -1.1
v 0.2 1.1 -1.1

# faces
f 3/1/1 2/1/1 1/1/1
f 4/1/1 2/1/1 3/1/1
f 8/4/1 6/4/1 5/4/1
f 9/4/1 6/4/1 8/4/1
f 11/5/1 8/5/1 7/5/1
f 11/5/1 10/5/1 9/5/1
f 11/5/1 9/5/1 8/5/1
f 12/5/1 10/5/1 11/5/1
f 16/1/1 14/1/1 13/1/1
f 17/3/1 15/3/1 14/3/1
f 17/1/1 14/1/1 16/1/1
f 18/3/1 15/3/1 17/3/1
f 19/3/1 15/3/1 18/3/1
f 21/7/1 17/7/1 16/7/1
f 22/7/1 17/7/1 21/7/1
f 23/6/1 19/6/1 18/6/1
f 24/6/1 22/6/1 21/6/1
f 24/6/1 23/6/1 22/6/1
f 24/6/1 21/6/1 20/6/1
f 25/6/1 23/6/1 24/6/1
f 26/6/1 19/6/1 23/6/1
f 26/6/1 23/6/1 25/6/1
f 27/6/1 19/6/1 26/6/1
f 28/6/1 26/6/1 25/6/1
f 29/6/1 26/6/1 28/6/1
f 32/1/1 31/1/1 30/1/1
f 33/1/1 31/1/1 32/1/1
f 38/6/1 35/6/1 34/6/1
f 39/6/1 35/6/1 38/6/1
f 40/6/1 37/6/1 36/6/1
f 41/6/1 37/6/1 40/6/1
f 44/3/1 43/3/1 42/3/1
f 45/3/1 43/3/1 44/3/1
f 46/1/2 47/1/2 49/1/2
f 47/3/2 48/3/2 50/3/2
f 49/1/2 47/1/2 50/1/2
f 50/3/2 48/3/2 51/3/2
f 52/6/2 53/6/2 56/6/2
f 56/6/2 53/6/2 57/6/2
f 54/6/2 55/6/2 58/6/2
f 58/6/2 55/6/2 59/6/2
f 60/4/2 61/4/2 63/4/2
f 63/4/2 61/4/2 64/4/2
f 62/5/2 63/5/2 66/5/2
f 64/5/2 65/5/2 66/5/2
f 63/5/2 64/5/2 66/5/2
f 66/5/2 65/5/2 67/5/2
f 68/1/2 69/1/2 71/1/2
f 69/3/2 70/3/2 72/3/2
f 71/1/2 69/1/2 72/1/2
f 72/3/2 70/3/2 73/3/2
f 73/3/2 70/3/2 74/3/2
f 71/7/2 72/7/2 76/7/2
f 76/7/2 72/7/2 77/7/2
f 73/6/2 74/6/2 78/6/2
f 76/6/2 77/6/2 79/6/2
f 77/6/2 78/6/2 79/6/2
f 75/6/2 76/6/2 79/6/2
f 79/6/2 78/6/2 80/6/2
f 78/6/2 74/6/2 81/6/2
f 80/6/2 78/6/2 81/6/2
f 81/6/2 74/6/2 82/6/2
f 80/6/2 81/6/2 83/6/2
f 83/6/2 81/6/2 84/6/2
f 85/1/2 86/1/2 87/1/2
f 87/1/2 86/1/2 88/1/2
f 91/6/3 90/6/3 89/6/3
f 92/6/3 90/6/3 91/6/3
f 98/1/3 96/1/3 95/1/3
f 98/7/3 97/7/3 96/7/3
f 99/7/3 97/7/3 98/7/3
f 102/1/3 98/1/3 95/1/3
f 102/1/3 99/1/3 98/1/3
f 103/1/3 99/1/3 102/1/3
f 104/6/3 101/6/3 100/6/3
f 105/6/3 101/6/3 104/6/3
f 106/5/3 94/5/3 93/5/3
f 107/5/3 94/5/3 106/5/3
f 108/1/3 102/1/3 95/1/3
f 109/7/3 103/7/3 102/7/3
f 109/1/3 102/1/3 108/1/3
f 110/7/3 103/7/3 109/7/3
f 115/1/3 112/1/3 111/1/3
f 116/1/3 112/1/3 115/1/3
f 121/6/3 118/6/3 117/6/3
f 122/6/3 118/6/3 121/6/3
f 123/1/3 120/1/3 119/1/3
f 124/1/3 120/1/3 123/1/3
f 127/4/3 114/4/3 113/4/3
f 128/4/3 114/4/3 127/4/3
f 131/6/3 126/6/3 125/6/3
f 132/6/3 126/6/3 131/6/3
f 133/1/3 130/1/3 129/1/3
f 134/1/3 130/1/3 133/1/3
f 135/1/4 136/1/4 139/1/4
f 139/1/4 136/1/4 140/1/4
f 141/6/4 142/6/4 145/6/4
f 145/6/4 142/6/4 146/6/4
f 143/1/4 144/1/4 147/1/4
f 147/1/4 144/1/4 148/1/4
f 137/4/4 138/4/4 151/4/4
f 151/4/4 138/4/4 152/4/4
f 149/6/4 150/6/4 155/6/4
f 155/6/4 150/6/4 156/6/4
f 153/1/4 154/1/4 157/1/4
f 157/1/4 154/1/4 158/1/4
f 161/3/4 162/3/4 164/3/4
f 162/6/4 163/6/4 164/6/4
f 164/6/4 163/6/4 165/6/4
f 165/6/4 163/6/4 166/6/4
f 159/5/4 160/5/4 168/5/4
f 161/3/4 164/3/4 169/3/4
f 164/3/4 165/3/4 169/3/4
f 159/5/4 168/5/4 170/5/4
f 168/3/4 169/3/4 170/3/4
f 169/3/4 165/3/4 171/3/4
f 170/3/4 169/3/4 171/3/4
f 171/3/4 165/3/4 172/3/4
f 166/6/4 167/6/4 173/6/4
f 172/3/4 165/3/4 173/3/4
f 165/6/4 166/6/4 173/6/4
f 173/6/4 167/6/4 174/6/4
f 174/6/4 167/6/4 175/6/4
f 159/5/4 170/5/4 176/5/4
f 176/5/4 170/5/4 177/5/4
f 171/3/4 172/3/4 178/3/4
f 173/6/4 174/6/4 179/6/4
f 178/3/4 172/3/4 179/3/4
f 172/6/4 173/6/4 179/6/4
f 179/6/4 174/6/4 180/6/4
f 183/4/5 182/4/5 181/4/5
f 184/4/5 182/4/5 183/4/5
f 187/5/5 186/5/5 185/5/5
f 188/5/5 186/5/5 187/5/5
f 191/5/5 190/5/5 189/5/5
f 192/5/5 190/5/5 191/5/5
f 195/1/5 194/1/5 193/1/5
f 196/1/5 194/1/5 195/1/5
f 197/1/5 194/1/5 196/1/5
f 198/1/5 194/1/5 197/1/5
f 199/3/5 196/3/5 195/3/5
f 201/3/5 198/3/5 197/3/5
f 202/3/5 200/3/5 199/3/5
f 202/3/5 199/3/5 195/3/5
f 203/3/5 200/3/5 202/3/5
f 204/3/5 198/3/5 201/3/5
f 205/3/5 198/3/5 204/3/5
f 210/1/5 207/1/5 206/1/5
f 211/1/5 207/1/5 210/1/5
f 212/1/5 209/1/5 208/1/5
f 213/1/5 209/1/5 212/1/5
f 216/6/5 215/6/5 214/6/5
f 217/6/5 215/6/5 216/6/5
f 218/6/5 215/6/5 217/6/5
f 219/6/5 215/6/5 218/6/5
f 220/5/6 221/5/6 222/5/6
f 222/5/6 221/5/6 223/5/6
f 220/5/6 222/5/6 224/5/6
f 223/5/6 221/5/6 226/5/6
f 224/5/6 225/5/6 227/5/6
f 220/5/6 224/5/6 227/5/6
f 227/5/6 225/5/6 228/5/6
f 226/5/6 221/5/6 229/5/6
f 229/5/6 221/5/6 230/5/6
f 231/1/6 232/1/6 235/1/6
f 235/1/6 232/1/6 236/1/6
f 233/1/6 234/1/6 237/1/6
f 237/1/6 234/1/6 238/1/6
f 239/6/6 240/6/6 241/6/6
f 241/6/6 240/6/6 242/6/6
f 239/6/6 241/6/6 243/6/6
f 243/6/6 241/6/6 244/6/6
f 242/6/6 240/6/6 245/6/6
f 245/6/6 240/6/6 246/6/6
f 247/6/6 248/6/6 251/6/6
f 251/6/6 248/6/6 252/6/6
f 249/6/6 250/6/6 253/6/6
f 253/6/6 250/6/6 254/6/6
f 255/6/6 256/6/6 258/6/6
f 258/6/6 256/6/6 259/6/6
f 257/6/6 258/6/6 261/6/6
f 259/6/6 260/6/6 261/6/6
f 258/6/6 259/6/6 261/6/6
f 261/6/6 260/6/6 262/6/6
f 262/6/6 260/6/6 263/6/6
f 263/6/6 260/6/6 264/6/6
f 262/6/6 263/6/6 265/6/6
f 265/6/6 263/6/6 266/6/6
